<?xml version="1.0" encoding="utf-8"?>
<!-- Generator: Adobe Illustrator 15.1.0, SVG Export Plug-In . SVG Version: 6.00 Build 0)  -->
<!DOCTYPE svg PUBLIC "-//W3C//DTD SVG 1.1//EN" "http://www.w3.org/Graphics/SVG/1.1/DTD/svg11.dtd">
<svg version="1.1" id="Layer_1" xmlns="http://www.w3.org/2000/svg" xmlns:xlink="http://www.w3.org/1999/xlink" x="0px" y="0px"
	 width="220.801px" height="272.641px" viewBox="0 0 220.801 272.641" enable-background="new 0 0 220.801 272.641"
	 xml:space="preserve">
<g>
	<g>
		<path fill-rule="evenodd" clip-rule="evenodd" d="M184.561,63.84c-1.336-24.265-10.649-40.55-21.84-54.96
			c3.641-2.759,6.717-6.083,10.56-8.64c13.241,16.198,23.355,35.524,25.2,63.12c0.152,0.808-0.31,2.229,0.24,2.64
			c0,2.24,0,4.48,0,6.72c-0.55,0.411-0.088,1.832-0.24,2.64c-2.121,27.808-12.414,49.351-26.88,65.28
			c-14.37,15.823-33.75,28.496-61.68,30.479c-0.887,0.153-2.391-0.311-2.88,0.24c-1.36,0-2.72,0-4.08,0
			c-0.568-0.552-2.154-0.086-3.12-0.24c-23.069-1.576-40.489-10.741-53.52-22.8c-12.95-11.983-23.542-28.112-24.24-52.08
			c0-0.88,0-1.76,0-2.64c0.612-19.434,7.808-34.115,17.28-45.12c9.396-10.916,22.693-19.636,41.28-21.12
			c0.966-0.154,2.552,0.312,3.12-0.24c0.48,0,0.96,0,1.44,0c0.568,0.552,2.154,0.086,3.12,0.24
			c29.131,3.91,47.302,18.778,51.6,47.521c0.153,0.887-0.311,2.391,0.24,2.88c0,0.56,0,1.12,0,1.68
			c-0.549,0.411-0.088,1.832-0.24,2.64c-1.05,12.791-6.123,21.557-12.479,29.04c-0.98,0.78-1.86,1.66-2.641,2.64
			c-6.438,5.401-13.818,9.861-24.959,10.56c-1.52,0-3.04,0-4.56,0c-15.255-1.012-28.435-10.51-33.36-22.8
			c-8.048-20.082,4.776-42.164,24.72-44.16c1.76,0,3.52,0,5.28,0c11.164,1.29,20.603,8.6,23.28,18.48
			c3.746,13.823-4.882,27.792-18.96,29.28c-1.12,0-2.24,0-3.36,0c-6.206-0.594-10.199-3.401-13.68-6.72
			c3.112-3.368,6.95-6.011,10.32-9.12c6.086,5.684,14.711-1.487,12.24-9.84c-1.374-4.644-5.752-7.592-10.8-8.16
			c-0.649-0.399-2.95-0.399-3.6,0c-7.565,0.925-13.169,8.089-13.92,15.36c-1.422,13.777,10.194,22.835,22.32,23.76
			c0.649,0.398,2.951,0.398,3.6,0c7.1-0.341,11.759-3.122,15.6-6.72c0.9-0.7,1.701-1.5,2.4-2.4c4.576-4.864,7.953-10.927,8.64-19.68
			c0.548-0.333,0.09-1.67,0.24-2.4c0-0.4,0-0.8,0-1.2c-0.15-0.729,0.308-2.067-0.24-2.4c-3.23-20.93-16.876-31.443-38.16-34.32
			c-0.489-0.551-1.993-0.087-2.88-0.24c-0.32,0-0.64,0-0.96,0c-0.887,0.153-2.391-0.311-2.88,0.24
			c-12.195,0.845-20.268,5.812-27.12,12c-1.14,0.939-2.18,1.979-3.12,3.12c-8.214,9.148-15.335,22.426-15.12,39.36
			c0.212,16.752,7.608,29.544,15.84,38.4c1.18,1.38,2.46,2.66,3.84,3.84c11.246,10.195,24.943,17.938,45.12,19.2
			c2.402,0.399,6.479,0.399,8.88,0c20.915-1.325,34.817-9.662,46.32-20.4c1.38-1.179,2.66-2.459,3.84-3.839
			c13.229-14.451,23.294-32.066,24.96-58.08C184.96,71.759,184.96,66.961,184.561,63.84z"/>
		<path fill-rule="evenodd" clip-rule="evenodd" fill="#7F7F7F" d="M22.08,96.24c-0.397-0.336-0.397-2.304,0-2.64
			C22.08,94.48,22.08,95.36,22.08,96.24z"/>
		<path fill-rule="evenodd" clip-rule="evenodd" fill="#7F7F7F" d="M96.24,105.12c-0.571,0.398-2.789,0.398-3.36,0
			C94,105.12,95.12,105.12,96.24,105.12z"/>
		<path fill-rule="evenodd" clip-rule="evenodd" fill="#E1C8D5" d="M6.48,185.04c8.08-0.399,17.84-0.399,25.92,0
			C23.76,185.04,15.12,185.04,6.48,185.04z"/>
		<path fill-rule="evenodd" clip-rule="evenodd" fill="#E1C8D5" d="M170.4,185.04c7.84-0.399,17.359-0.399,25.2,0
			C187.2,185.04,178.801,185.04,170.4,185.04z"/>
		<path fill-rule="evenodd" clip-rule="evenodd" fill="#E46FAB" d="M6.48,185.04c8.64,0,17.28,0,25.92,0
			c11.895,0.506,18.518,6.282,19.68,17.521c0,1.76,0,3.52,0,5.28c-1.076,14.764-12.904,18.776-30,17.52c0,6.64,0,13.28,0,19.92
			c-5.28,0-10.56,0-15.84,0C6.4,225.28,5.92,204.641,6.48,185.04z M32.64,211.681c4.253-2.297,4.212-10.193,0.48-12.721
			c-2.504-1.695-6.567-1.089-11.04-1.199c0,4.96,0,9.92,0,14.88C26.552,212.34,29.574,213.336,32.64,211.681z"/>
		<path fill-rule="evenodd" clip-rule="evenodd" fill="#E46FAB" d="M60.72,185.04c11.36,0,22.72,0,34.08,0c0,4.4,0,8.801,0,13.2
			c-6.081,0.16-12.8-0.319-18.48,0.24c0,3.2,0,6.4,0,9.6c5.36,0.56,11.76,0.08,17.52,0.24c0,4.4,0,8.8,0,13.2
			c-5.76,0.16-12.16-0.319-17.52,0.24c0,3.359,0,6.72,0,10.08c5.68,0.56,12.399,0.08,18.48,0.239c0,4.4,0,8.801,0,13.2
			c-11.44,0-22.88,0-34.32,0C60.64,225.28,60.16,204.641,60.72,185.04z"/>
		<path fill-rule="evenodd" clip-rule="evenodd" fill="#E46FAB" d="M123.12,185.28c5.286-0.399,12.234-0.399,17.521,0
			c7.305,20.216,15.308,39.732,22.56,60c-5.52,0-11.04,0-16.56,0c-1.007-3.393-2.251-6.55-3.36-9.84
			c0.067-0.388-0.227-0.413-0.24-0.72c-3.377,0-7.091,0-11.04,0c-3.671,0-8.225-0.768-11.04,0c-0.301,0.082-0.488,0.324-0.479,0.72
			c-1.107,3.293-2.313,6.487-3.36,9.84c-5.52,0-11.04,0-16.56,0C107.838,225.039,115.825,205.506,123.12,185.28z M138.721,222.721
			c-2.132-6.749-4.366-13.395-6.961-19.681c-2.152,6.647-4.686,12.914-6.72,19.681C127.931,223.119,135.83,223.119,138.721,222.721z
			"/>
		<path fill-rule="evenodd" clip-rule="evenodd" fill="#E46FAB" d="M170.4,185.04c8.4,0,16.8,0,25.2,0
			c10.903,0.372,18.67,6.753,18.96,18c0.235,9.14-4.31,15.629-12.72,17.28c0.568,2.525,2.754,4.178,4.319,6.24
			c4.534,5.974,9.726,12.83,13.92,18.72c-3.184,0-6.229,0-9.359,0c-3.108,0-6.881,0.804-9.36,0c-1.337-0.433-3.091-3.963-4.08-5.52
			c-3.649-5.747-7.702-12.069-11.28-17.28c0,7.6,0,15.2,0,22.8c-5.279,0-10.56,0-15.84,0C170.32,225.28,169.84,204.641,170.4,185.04
			z M186,197.28c0,4.88,0,9.76,0,14.64c6.401,0.321,11.485-0.675,12.24-6c0.397-0.336,0.397-2.304,0-2.64
			c-0.446-4.113-3.41-5.71-7.68-6C189.594,196.881,186.967,196.881,186,197.28z"/>
		<path fill-rule="evenodd" clip-rule="evenodd" fill="#E1C8D5" d="M186,197.28c0.967-0.399,3.594-0.399,4.561,0
			C189.04,197.28,187.521,197.28,186,197.28z"/>
		<path fill-rule="evenodd" clip-rule="evenodd" fill="#E1C8D5" d="M52.08,202.561c0.399,1.205,0.399,4.075,0,5.28
			C52.08,206.08,52.08,204.32,52.08,202.561z"/>
		<path fill-rule="evenodd" clip-rule="evenodd" fill="#E1C8D5" d="M198.24,203.28c0.397,0.336,0.397,2.304,0,2.64
			C198.24,205.04,198.24,204.16,198.24,203.28z"/>
		<path fill-rule="evenodd" clip-rule="evenodd" fill="#E1C8D5" d="M76.32,221.761c5.36-0.56,11.76-0.08,17.52-0.24
			C88.48,222.08,82.081,221.601,76.32,221.761z"/>
		<path fill-rule="evenodd" clip-rule="evenodd" fill="#E1C8D5" d="M125.04,222.721c4.561,0,9.12,0,13.681,0
			C135.83,223.119,127.931,223.119,125.04,222.721z"/>
		<path fill-rule="evenodd" clip-rule="evenodd" fill="#FFFFFF" d="M220.801,0c0,90.882,0,181.758,0,272.641
			c-73.6,0-147.203,0-220.801,0C0,181.759,0,90.883,0,0C73.6,0,147.202,0,220.801,0z M198.48,63.36
			c-1.845-27.596-11.959-46.922-25.2-63.12c-3.843,2.557-6.919,5.881-10.56,8.64c11.19,14.41,20.504,30.696,21.84,54.96
			c0,3.68,0,7.36,0,11.04c-1.666,26.014-11.731,43.629-24.96,58.08c-1.381,1.18-2.66,2.459-3.84,3.839
			c-11.503,10.738-25.405,19.075-46.32,20.4c-2.96,0-5.92,0-8.88,0c-20.177-1.263-33.875-9.005-45.12-19.2
			c-1.18-1.38-2.459-2.66-3.84-3.84c-8.232-8.856-15.627-21.647-15.84-38.4c-0.215-16.934,6.906-30.212,15.12-39.36
			c1.141-0.939,2.181-1.979,3.12-3.12c6.852-6.188,14.925-11.155,27.12-12c0.887-0.153,2.391,0.311,2.88-0.24c0.32,0,0.64,0,0.96,0
			c0.489,0.551,1.993,0.087,2.88,0.24C109.124,44.157,122.77,54.67,126,75.6c0.15,0.729-0.307,2.067,0.24,2.4c0,0.4,0,0.8,0,1.2
			c-0.547,0.333-0.09,1.67-0.24,2.4c-0.687,8.753-4.063,14.816-8.64,19.68c-0.9,0.699-1.7,1.5-2.4,2.4
			c-3.841,3.599-8.5,6.379-15.6,6.72c-1.2,0-2.4,0-3.6,0c-12.126-0.925-23.743-9.983-22.32-23.76
			c0.751-7.271,6.355-14.435,13.92-15.36c1.2,0,2.4,0,3.6,0c5.048,0.567,9.427,3.516,10.8,8.16c2.471,8.353-6.154,15.524-12.24,9.84
			c-3.37,3.109-7.208,5.752-10.32,9.12c3.481,3.318,7.475,6.125,13.68,6.72c0.571,0.398,2.789,0.398,3.36,0
			c14.078-1.487,22.706-15.457,18.96-29.28c-2.678-9.88-12.116-17.19-23.28-18.48c-1.205-0.399-4.075-0.399-5.28,0
			c-19.944,1.996-32.768,24.078-24.72,44.16c4.925,12.29,18.105,21.789,33.36,22.8c0.966,0.399,3.594,0.399,4.56,0
			c11.141-0.699,18.521-5.159,24.959-10.56c0.98-0.78,1.86-1.66,2.641-2.64c6.356-7.483,11.43-16.25,12.479-29.04
			c0.55-0.411,0.088-1.832,0.24-2.64c0-0.56,0-1.12,0-1.68c-0.153-0.887,0.311-2.391-0.24-2.88
			c-4.298-28.743-22.469-43.611-51.6-47.521c-0.568-0.552-2.154-0.086-3.12-0.24c-0.48,0-0.96,0-1.44,0
			c-0.966,0.154-2.552-0.312-3.12,0.24c-18.587,1.484-31.884,10.204-41.28,21.12C29.888,59.485,22.692,74.167,22.08,93.6
			c-0.397,0.336-0.397,2.304,0,2.64c0.698,23.968,11.29,40.097,24.24,52.08c13.031,12.059,30.451,21.224,53.52,22.8
			c0.568,0.552,2.154,0.086,3.12,0.24c1.36,0,2.72,0,4.08,0c0.887-0.153,2.391,0.311,2.88-0.24
			c27.93-1.983,47.31-14.656,61.68-30.479c14.466-15.93,24.759-37.472,26.88-65.28c0.549-0.411,0.088-1.832,0.24-2.64
			c0-2.24,0-4.48,0-6.72C198.568,65.192,199.029,63.771,198.48,63.36z M6.48,185.04c-0.56,19.601-0.08,40.24-0.24,60.24
			c5.28,0,10.56,0,15.84,0c0-6.64,0-13.28,0-19.92c17.096,1.257,28.924-2.756,30-17.52c0.399-1.205,0.399-4.075,0-5.28
			c-1.162-11.238-7.785-17.015-19.68-17.521C24.32,184.641,14.56,184.641,6.48,185.04z M60.72,185.04
			c-0.56,19.601-0.08,40.24-0.24,60.24c11.44,0,22.88,0,34.32,0c0.427-1.833,0.24-3.92,0.24-6.72c0-1.33,0.776-5.872-0.24-6.72
			c-0.303-0.253-3.539,0-4.56,0c-5.014,0-9.647,0-13.92,0c0-3.36,0-6.721,0-10.08c5.76-0.16,12.16,0.319,17.52-0.24
			c0-4.4,0-8.8,0-13.2c-5.76-0.16-12.16,0.319-17.52-0.24c0-3.199,0-6.399,0-9.6c6.16,0,12.32,0,18.48,0
			c0.398-4.01,0.398-9.67,0-13.68C83.52,184.96,71.6,184.48,60.72,185.04z M140.641,185.28c-4.737-0.798-12.783-0.798-17.521,0
			c-7.295,20.226-15.282,39.759-22.56,60c5.52,0,11.041,0,16.56,0c1.047-3.353,2.253-6.547,3.36-9.84
			c0.146-0.014,0.284-0.036,0.24-0.24c6.886-0.245,16.071-0.712,22.56,0.24c1.109,3.29,2.354,6.447,3.36,9.84
			c5.52,0,11.04,0,16.56,0C155.948,225.013,147.945,205.496,140.641,185.28z M170.4,185.04c-0.561,19.601-0.08,40.24-0.24,60.24
			c5.28,0,10.561,0,15.84,0c0-7.6,0-15.2,0-22.8c3.578,5.211,7.631,11.533,11.28,17.28c0.989,1.557,2.743,5.087,4.08,5.52
			c2.479,0.804,6.252,0,9.36,0c3.13,0,6.176,0,9.359,0c-4.194-5.89-9.386-12.746-13.92-18.72c-1.565-2.062-3.751-3.715-4.319-6.24
			c8.41-1.651,12.955-8.141,12.72-17.28c-0.29-11.247-8.057-17.628-18.96-18C187.76,184.641,178.24,184.641,170.4,185.04z"/>
		<path fill-rule="evenodd" clip-rule="evenodd" fill="#7F7F7F" d="M155.761,136.8c1.18-1.38,2.459-2.66,3.84-3.839
			C158.421,134.34,157.141,135.621,155.761,136.8z"/>
		<path fill-rule="evenodd" clip-rule="evenodd" fill="#7F7F7F" d="M51.6,134.16c1.38,1.18,2.66,2.46,3.84,3.84
			C54.06,136.82,52.78,135.541,51.6,134.16z"/>
		<path fill-rule="evenodd" clip-rule="evenodd" fill="#363636" d="M50.88,56.4c0.94-1.14,1.98-2.18,3.12-3.12
			C53.061,54.42,52.021,55.46,50.88,56.4z"/>
		<path fill-rule="evenodd" clip-rule="evenodd" fill="#E1C8D5" d="M114.96,103.68c0.7-0.9,1.5-1.701,2.4-2.4
			C116.661,102.181,115.86,102.98,114.96,103.68z"/>
		<path fill-rule="evenodd" clip-rule="evenodd" fill="#7F7F7F" d="M124.8,113.76c0.78-0.98,1.66-1.86,2.641-2.64
			C126.66,112.101,125.78,112.98,124.8,113.76z"/>
		<path fill-rule="evenodd" clip-rule="evenodd" fill="#E1C8D5" d="M76.32,231.841c4.272,0,8.906,0,13.92,0
			c1.021,0,4.257-0.253,4.56,0c1.016,0.848,0.24,5.39,0.24,6.72c0,2.8,0.187,4.887-0.24,6.72c0-4.399,0-8.8,0-13.2
			C88.72,231.921,82,232.4,76.32,231.841z"/>
		<path fill-rule="evenodd" clip-rule="evenodd" fill="#E1C8D5" d="M60.72,185.04c10.88-0.56,22.8-0.08,34.08-0.239
			c0.398,4.01,0.398,9.67,0,13.68c-6.16,0-12.32,0-18.48,0c5.68-0.56,12.399-0.08,18.48-0.24c0-4.399,0-8.8,0-13.2
			C83.44,185.04,72.08,185.04,60.72,185.04z"/>
		<path fill-rule="evenodd" clip-rule="evenodd" fill="#E1C8D5" d="M123.12,185.28c4.737-0.798,12.783-0.798,17.521,0
			C135.354,184.881,128.406,184.881,123.12,185.28z"/>
		<path fill-rule="evenodd" clip-rule="evenodd" fill="#E1C8D5" d="M120.48,235.44c-0.009-0.396,0.179-0.638,0.479-0.72
			c2.815-0.768,7.369,0,11.04,0c3.949,0,7.663,0,11.04,0c0.014,0.307,0.308,0.332,0.24,0.72c-6.488-0.952-15.674-0.485-22.56-0.24
			C120.765,235.404,120.627,235.427,120.48,235.44z"/>
		<path fill-rule="evenodd" clip-rule="evenodd" fill="#363636" d="M80.64,27.36c0.568-0.552,2.154-0.086,3.12-0.24
			C83.192,27.672,81.606,27.206,80.64,27.36z"/>
		<path fill-rule="evenodd" clip-rule="evenodd" fill="#363636" d="M85.2,27.12c0.966,0.154,2.552-0.312,3.12,0.24
			C87.354,27.206,85.768,27.672,85.2,27.12z"/>
		<path fill-rule="evenodd" clip-rule="evenodd" fill="#7F7F7F" d="M81.12,41.28c0.489-0.551,1.993-0.087,2.88-0.24
			C83.511,41.591,82.007,41.127,81.12,41.28z"/>
		<path fill-rule="evenodd" clip-rule="evenodd" fill="#7F7F7F" d="M84.96,41.04c0.887,0.153,2.391-0.311,2.88,0.24
			C86.953,41.127,85.449,41.591,84.96,41.04z"/>
		<path fill-rule="evenodd" clip-rule="evenodd" fill="#363636" d="M198.48,63.36c0.549,0.411,0.088,1.832,0.24,2.64
			C198.171,65.589,198.633,64.168,198.48,63.36z"/>
		<path fill-rule="evenodd" clip-rule="evenodd" fill="#363636" d="M198.721,72.72c-0.152,0.808,0.309,2.229-0.24,2.64
			C198.633,74.552,198.171,73.131,198.721,72.72z"/>
		<path fill-rule="evenodd" clip-rule="evenodd" fill="#363636" d="M139.92,74.88c0.551,0.489,0.087,1.993,0.24,2.88
			C139.609,77.271,140.073,75.767,139.92,74.88z"/>
		<path fill-rule="evenodd" clip-rule="evenodd" fill="#7F7F7F" d="M126,75.6c0.548,0.333,0.09,1.67,0.24,2.4
			C125.693,77.667,126.15,76.33,126,75.6z"/>
		<path fill-rule="evenodd" clip-rule="evenodd" fill="#7F7F7F" d="M126.24,79.2c-0.15,0.729,0.308,2.067-0.24,2.4
			C126.15,80.871,125.693,79.533,126.24,79.2z"/>
		<path fill-rule="evenodd" clip-rule="evenodd" fill="#363636" d="M140.16,79.44c-0.152,0.808,0.31,2.229-0.24,2.64
			C140.072,81.272,139.611,79.851,140.16,79.44z"/>
		<path fill-rule="evenodd" clip-rule="evenodd" fill="#363636" d="M95.76,110.4c1.2,0,2.4,0,3.6,0
			C98.711,110.799,96.41,110.799,95.76,110.4z"/>
		<path fill-rule="evenodd" clip-rule="evenodd" fill="#7F7F7F" d="M95.28,124.32c1.52,0,3.04,0,4.56,0
			C98.874,124.719,96.247,124.719,95.28,124.32z"/>
		<path fill-rule="evenodd" clip-rule="evenodd" fill="#363636" d="M99.84,171.12c0.966,0.154,2.552-0.312,3.12,0.24
			C101.994,171.206,100.408,171.672,99.84,171.12z"/>
		<path fill-rule="evenodd" clip-rule="evenodd" fill="#363636" d="M107.04,171.36c0.489-0.551,1.993-0.087,2.88-0.24
			C109.431,171.671,107.927,171.207,107.04,171.36z"/>
		<path fill-rule="evenodd" clip-rule="evenodd" fill="#FFFFFF" d="M190.561,197.28c4.27,0.29,7.233,1.887,7.68,6
			c0,0.88,0,1.76,0,2.64c-0.755,5.325-5.839,6.321-12.24,6c0-4.88,0-9.76,0-14.64C187.521,197.28,189.04,197.28,190.561,197.28z"/>
		<path fill-rule="evenodd" clip-rule="evenodd" fill="#FFFFFF" d="M22.08,212.641c0-4.96,0-9.92,0-14.88
			c4.473,0.11,8.536-0.496,11.04,1.199c3.732,2.527,3.773,10.424-0.48,12.721C29.574,213.336,26.552,212.34,22.08,212.641z"/>
		<path fill-rule="evenodd" clip-rule="evenodd" fill="#FFFFFF" d="M125.04,222.721c2.034-6.767,4.567-13.033,6.72-19.681
			c2.595,6.286,4.829,12.932,6.961,19.681C134.16,222.721,129.601,222.721,125.04,222.721z"/>
		<path fill-rule="evenodd" clip-rule="evenodd" fill="#E1C8D5" d="M184.561,63.84c0.399,3.121,0.399,7.918,0,11.04
			C184.561,71.2,184.561,67.52,184.561,63.84z"/>
		<path fill-rule="evenodd" clip-rule="evenodd" fill="#E1C8D5" d="M100.56,157.2c2.96,0,5.92,0,8.88,0
			C107.039,157.6,102.962,157.6,100.56,157.2z"/>
		<path fill-rule="evenodd" clip-rule="evenodd" fill="#363636" d="M86.64,57.36c1.205-0.399,4.075-0.399,5.28,0
			C90.16,57.36,88.4,57.36,86.64,57.36z"/>
		<path fill-rule="evenodd" clip-rule="evenodd" fill="#7F7F7F" d="M87.36,71.28c0.649-0.399,2.95-0.399,3.6,0
			C89.76,71.28,88.56,71.28,87.36,71.28z"/>
	</g>
</g>
</svg>
