<?xml version="1.0" encoding="UTF-8" standalone="no"?>
<svg
   xmlns:dc="http://purl.org/dc/elements/1.1/"
   xmlns:cc="http://creativecommons.org/ns#"
   xmlns:rdf="http://www.w3.org/1999/02/22-rdf-syntax-ns#"
   xmlns:svg="http://www.w3.org/2000/svg"
   xmlns="http://www.w3.org/2000/svg"
   xml:space="preserve"
   enable-background="new 0 0 220.801 272.641"
   viewBox="0 0 200 200.00001"
   height="200"
   width="200"
   y="0px"
   x="0px"
   id="Layer_1"
   version="1.1"><metadata
     id="metadata101"><rdf:RDF><cc:Work
         rdf:about=""><dc:format>image/svg+xml</dc:format><dc:type
           rdf:resource="http://purl.org/dc/dcmitype/StillImage" /><dc:title></dc:title></cc:Work></rdf:RDF></metadata><defs
     id="defs99" /><g
     transform="matrix(0.72457626,0,0,0.72457626,22.000001,2.4508119)"
     id="g3"><g
       id="g5"><path
         style="clip-rule:evenodd;fill-rule:evenodd"
         id="path7"
         d="m 184.561,63.84 c -1.336,-24.265 -10.649,-40.55 -21.84,-54.96 3.641,-2.759 6.717,-6.083 10.56,-8.64 13.241,16.198 23.355,35.524 25.2,63.12 0.152,0.808 -0.31,2.229 0.24,2.64 0,2.24 0,4.48 0,6.72 -0.55,0.411 -0.088,1.832 -0.24,2.64 -2.121,27.808 -12.414,49.351 -26.88,65.28 -14.37,15.823 -33.75,28.496 -61.68,30.479 -0.887,0.153 -2.391,-0.311 -2.88,0.24 -1.36,0 -2.72,0 -4.08,0 -0.568,-0.552 -2.154,-0.086 -3.12,-0.24 -23.069,-1.576 -40.489,-10.741 -53.52,-22.8 -12.95,-11.983 -23.542,-28.112 -24.24,-52.08 0,-0.88 0,-1.76 0,-2.64 0.612,-19.434 7.808,-34.115 17.28,-45.12 9.396,-10.916 22.693,-19.636 41.28,-21.12 0.966,-0.154 2.552,0.312 3.12,-0.24 0.48,0 0.96,0 1.44,0 0.568,0.552 2.154,0.086 3.12,0.24 29.131,3.91 47.302,18.778 51.6,47.521 0.153,0.887 -0.311,2.391 0.24,2.88 0,0.56 0,1.12 0,1.68 -0.549,0.411 -0.088,1.832 -0.24,2.64 -1.05,12.791 -6.123,21.557 -12.479,29.04 -0.98,0.78 -1.86,1.66 -2.641,2.64 -6.438,5.401 -13.818,9.861 -24.959,10.56 -1.52,0 -3.04,0 -4.56,0 -15.255,-1.012 -28.435,-10.51 -33.36,-22.8 -8.048,-20.082 4.776,-42.164 24.72,-44.16 1.76,0 3.52,0 5.28,0 11.164,1.29 20.603,8.6 23.28,18.48 3.746,13.823 -4.882,27.792 -18.96,29.28 -1.12,0 -2.24,0 -3.36,0 -6.206,-0.594 -10.199,-3.401 -13.68,-6.72 3.112,-3.368 6.95,-6.011 10.32,-9.12 6.086,5.684 14.711,-1.487 12.24,-9.84 -1.374,-4.644 -5.752,-7.592 -10.8,-8.16 -0.649,-0.399 -2.95,-0.399 -3.6,0 -7.565,0.925 -13.169,8.089 -13.92,15.36 -1.422,13.777 10.194,22.835 22.32,23.76 0.649,0.398 2.951,0.398 3.6,0 7.1,-0.341 11.759,-3.122 15.6,-6.72 0.9,-0.7 1.701,-1.5 2.4,-2.4 4.576,-4.864 7.953,-10.927 8.64,-19.68 0.548,-0.333 0.09,-1.67 0.24,-2.4 0,-0.4 0,-0.8 0,-1.2 -0.15,-0.729 0.308,-2.067 -0.24,-2.4 -3.23,-20.93 -16.876,-31.443 -38.16,-34.32 -0.489,-0.551 -1.993,-0.087 -2.88,-0.24 -0.32,0 -0.64,0 -0.96,0 -0.887,0.153 -2.391,-0.311 -2.88,0.24 -12.195,0.845 -20.268,5.812 -27.12,12 -1.14,0.939 -2.18,1.979 -3.12,3.12 -8.214,9.148 -15.335,22.426 -15.12,39.36 0.212,16.752 7.608,29.544 15.84,38.4 1.18,1.38 2.46,2.66 3.84,3.84 11.246,10.195 24.943,17.938 45.12,19.2 2.402,0.399 6.479,0.399 8.88,0 20.915,-1.325 34.817,-9.662 46.32,-20.4 1.38,-1.179 2.66,-2.459 3.84,-3.839 13.229,-14.451 23.294,-32.066 24.96,-58.08 0.398,-3.122 0.398,-7.92 -0.001,-11.041 z" /><path
         style="clip-rule:evenodd;fill:#7f7f7f;fill-rule:evenodd"
         id="path9"
         d="m 22.08,96.24 c -0.397,-0.336 -0.397,-2.304 0,-2.64 0,0.88 0,1.76 0,2.64 z" /><path
         style="clip-rule:evenodd;fill:#7f7f7f;fill-rule:evenodd"
         id="path11"
         d="m 96.24,105.12 c -0.571,0.398 -2.789,0.398 -3.36,0 1.12,0 2.24,0 3.36,0 z" /><path
         style="clip-rule:evenodd;fill:#e1c8d5;fill-rule:evenodd"
         id="path13"
         d="m 6.48,185.04 c 8.08,-0.399 17.84,-0.399 25.92,0 -8.64,0 -17.28,0 -25.92,0 z" /><path
         style="clip-rule:evenodd;fill:#e1c8d5;fill-rule:evenodd"
         id="path15"
         d="m 170.4,185.04 c 7.84,-0.399 17.359,-0.399 25.2,0 -8.4,0 -16.799,0 -25.2,0 z" /><path
         style="clip-rule:evenodd;fill:#e46fab;fill-rule:evenodd"
         id="path17"
         d="m 6.48,185.04 c 8.64,0 17.28,0 25.92,0 11.895,0.506 18.518,6.282 19.68,17.521 0,1.76 0,3.52 0,5.28 -1.076,14.764 -12.904,18.776 -30,17.52 0,6.64 0,13.28 0,19.92 -5.28,0 -10.56,0 -15.84,0 C 6.4,225.28 5.92,204.641 6.48,185.04 Z m 26.16,26.641 c 4.253,-2.297 4.212,-10.193 0.48,-12.721 -2.504,-1.695 -6.567,-1.089 -11.04,-1.199 0,4.96 0,9.92 0,14.88 4.472,-0.301 7.494,0.695 10.56,-0.96 z" /><path
         style="clip-rule:evenodd;fill:#e46fab;fill-rule:evenodd"
         id="path19"
         d="m 60.72,185.04 c 11.36,0 22.72,0 34.08,0 0,4.4 0,8.801 0,13.2 -6.081,0.16 -12.8,-0.319 -18.48,0.24 0,3.2 0,6.4 0,9.6 5.36,0.56 11.76,0.08 17.52,0.24 0,4.4 0,8.8 0,13.2 -5.76,0.16 -12.16,-0.319 -17.52,0.24 0,3.359 0,6.72 0,10.08 5.68,0.56 12.399,0.08 18.48,0.239 0,4.4 0,8.801 0,13.2 -11.44,0 -22.88,0 -34.32,0 0.16,-19.999 -0.32,-40.638 0.24,-60.239 z" /><path
         style="clip-rule:evenodd;fill:#e46fab;fill-rule:evenodd"
         id="path21"
         d="m 123.12,185.28 c 5.286,-0.399 12.234,-0.399 17.521,0 7.305,20.216 15.308,39.732 22.56,60 -5.52,0 -11.04,0 -16.56,0 -1.007,-3.393 -2.251,-6.55 -3.36,-9.84 0.067,-0.388 -0.227,-0.413 -0.24,-0.72 -3.377,0 -7.091,0 -11.04,0 -3.671,0 -8.225,-0.768 -11.04,0 -0.301,0.082 -0.488,0.324 -0.479,0.72 -1.107,3.293 -2.313,6.487 -3.36,9.84 -5.52,0 -11.04,0 -16.56,0 7.276,-20.241 15.263,-39.774 22.558,-60 z m 15.601,37.441 c -2.132,-6.749 -4.366,-13.395 -6.961,-19.681 -2.152,6.647 -4.686,12.914 -6.72,19.681 2.891,0.398 10.79,0.398 13.681,0 z" /><path
         style="clip-rule:evenodd;fill:#e46fab;fill-rule:evenodd"
         id="path23"
         d="m 170.4,185.04 c 8.4,0 16.8,0 25.2,0 10.903,0.372 18.67,6.753 18.96,18 0.235,9.14 -4.31,15.629 -12.72,17.28 0.568,2.525 2.754,4.178 4.319,6.24 4.534,5.974 9.726,12.83 13.92,18.72 -3.184,0 -6.229,0 -9.359,0 -3.108,0 -6.881,0.804 -9.36,0 -1.337,-0.433 -3.091,-3.963 -4.08,-5.52 -3.649,-5.747 -7.702,-12.069 -11.28,-17.28 0,7.6 0,15.2 0,22.8 -5.279,0 -10.56,0 -15.84,0 0.16,-20 -0.32,-40.639 0.24,-60.24 z m 15.6,12.24 c 0,4.88 0,9.76 0,14.64 6.401,0.321 11.485,-0.675 12.24,-6 0.397,-0.336 0.397,-2.304 0,-2.64 -0.446,-4.113 -3.41,-5.71 -7.68,-6 -0.966,-0.399 -3.593,-0.399 -4.56,0 z" /><path
         style="clip-rule:evenodd;fill:#e1c8d5;fill-rule:evenodd"
         id="path25"
         d="m 186,197.28 c 0.967,-0.399 3.594,-0.399 4.561,0 -1.521,0 -3.04,0 -4.561,0 z" /><path
         style="clip-rule:evenodd;fill:#e1c8d5;fill-rule:evenodd"
         id="path27"
         d="m 52.08,202.561 c 0.399,1.205 0.399,4.075 0,5.28 0,-1.761 0,-3.521 0,-5.28 z" /><path
         style="clip-rule:evenodd;fill:#e1c8d5;fill-rule:evenodd"
         id="path29"
         d="m 198.24,203.28 c 0.397,0.336 0.397,2.304 0,2.64 0,-0.88 0,-1.76 0,-2.64 z" /><path
         style="clip-rule:evenodd;fill:#e1c8d5;fill-rule:evenodd"
         id="path31"
         d="m 76.32,221.761 c 5.36,-0.56 11.76,-0.08 17.52,-0.24 -5.36,0.559 -11.759,0.08 -17.52,0.24 z" /><path
         style="clip-rule:evenodd;fill:#e1c8d5;fill-rule:evenodd"
         id="path33"
         d="m 125.04,222.721 c 4.561,0 9.12,0 13.681,0 -2.891,0.398 -10.79,0.398 -13.681,0 z" /><path
         style="clip-rule:evenodd;fill:#ffffff;fill-rule:evenodd"
         id="path35"
         d="m 220.801,0 c 0,90.882 0,181.758 0,272.641 -73.6,0 -147.203,0 -220.801,0 C 0,181.759 0,90.883 0,0 73.6,0 147.202,0 220.801,0 Z M 198.48,63.36 c -1.845,-27.596 -11.959,-46.922 -25.2,-63.12 -3.843,2.557 -6.919,5.881 -10.56,8.64 11.19,14.41 20.504,30.696 21.84,54.96 0,3.68 0,7.36 0,11.04 -1.666,26.014 -11.731,43.629 -24.96,58.08 -1.381,1.18 -2.66,2.459 -3.84,3.839 -11.503,10.738 -25.405,19.075 -46.32,20.4 -2.96,0 -5.92,0 -8.88,0 -20.177,-1.263 -33.875,-9.005 -45.12,-19.2 -1.18,-1.38 -2.459,-2.66 -3.84,-3.84 -8.232,-8.856 -15.627,-21.647 -15.84,-38.4 -0.215,-16.934 6.906,-30.212 15.12,-39.36 1.141,-0.939 2.181,-1.979 3.12,-3.12 6.852,-6.188 14.925,-11.155 27.12,-12 0.887,-0.153 2.391,0.311 2.88,-0.24 0.32,0 0.64,0 0.96,0 0.489,0.551 1.993,0.087 2.88,0.24 21.284,2.878 34.93,13.391 38.16,34.321 0.15,0.729 -0.307,2.067 0.24,2.4 0,0.4 0,0.8 0,1.2 -0.547,0.333 -0.09,1.67 -0.24,2.4 -0.687,8.753 -4.063,14.816 -8.64,19.68 -0.9,0.699 -1.7,1.5 -2.4,2.4 -3.841,3.599 -8.5,6.379 -15.6,6.72 -1.2,0 -2.4,0 -3.6,0 -12.126,-0.925 -23.743,-9.983 -22.32,-23.76 0.751,-7.271 6.355,-14.435 13.92,-15.36 1.2,0 2.4,0 3.6,0 5.048,0.567 9.427,3.516 10.8,8.16 2.471,8.353 -6.154,15.524 -12.24,9.84 -3.37,3.109 -7.208,5.752 -10.32,9.12 3.481,3.318 7.475,6.125 13.68,6.72 0.571,0.398 2.789,0.398 3.36,0 14.078,-1.487 22.706,-15.457 18.96,-29.28 -2.678,-9.88 -12.116,-17.19 -23.28,-18.48 -1.205,-0.399 -4.075,-0.399 -5.28,0 -19.944,1.996 -32.768,24.078 -24.72,44.16 4.925,12.29 18.105,21.789 33.36,22.8 0.966,0.399 3.594,0.399 4.56,0 11.141,-0.699 18.521,-5.159 24.959,-10.56 0.98,-0.78 1.86,-1.66 2.641,-2.64 6.356,-7.483 11.43,-16.25 12.479,-29.04 0.55,-0.411 0.088,-1.832 0.24,-2.64 0,-0.56 0,-1.12 0,-1.68 -0.153,-0.887 0.311,-2.391 -0.24,-2.88 -4.298,-28.743 -22.469,-43.611 -51.6,-47.521 -0.568,-0.552 -2.154,-0.086 -3.12,-0.24 -0.48,0 -0.96,0 -1.44,0 -0.966,0.154 -2.552,-0.312 -3.12,0.24 C 62.052,28.843 48.755,37.563 39.359,48.479 29.888,59.485 22.692,74.167 22.08,93.6 c -0.397,0.336 -0.397,2.304 0,2.64 0.698,23.968 11.29,40.097 24.24,52.08 13.031,12.059 30.451,21.224 53.52,22.8 0.568,0.552 2.154,0.086 3.12,0.24 1.36,0 2.72,0 4.08,0 0.887,-0.153 2.391,0.311 2.88,-0.24 27.93,-1.983 47.31,-14.656 61.68,-30.479 14.466,-15.93 24.759,-37.472 26.88,-65.28 0.549,-0.411 0.088,-1.832 0.24,-2.64 0,-2.24 0,-4.48 0,-6.72 -0.152,-0.809 0.309,-2.23 -0.24,-2.641 z m -192,121.68 c -0.56,19.601 -0.08,40.24 -0.24,60.24 5.28,0 10.56,0 15.84,0 0,-6.64 0,-13.28 0,-19.92 17.096,1.257 28.924,-2.756 30,-17.52 0.399,-1.205 0.399,-4.075 0,-5.28 -1.162,-11.238 -7.785,-17.015 -19.68,-17.521 -8.08,-0.398 -17.84,-0.398 -25.92,0.001 z m 54.24,0 c -0.56,19.601 -0.08,40.24 -0.24,60.24 11.44,0 22.88,0 34.32,0 0.427,-1.833 0.24,-3.92 0.24,-6.72 0,-1.33 0.776,-5.872 -0.24,-6.72 -0.303,-0.253 -3.539,0 -4.56,0 -5.014,0 -9.647,0 -13.92,0 0,-3.36 0,-6.721 0,-10.08 5.76,-0.16 12.16,0.319 17.52,-0.24 0,-4.4 0,-8.8 0,-13.2 -5.76,-0.16 -12.16,0.319 -17.52,-0.24 0,-3.199 0,-6.399 0,-9.6 6.16,0 12.32,0 18.48,0 0.398,-4.01 0.398,-9.67 0,-13.68 -11.28,0.16 -23.2,-0.32 -34.08,0.24 z m 79.921,0.24 c -4.737,-0.798 -12.783,-0.798 -17.521,0 -7.295,20.226 -15.282,39.759 -22.56,60 5.52,0 11.041,0 16.56,0 1.047,-3.353 2.253,-6.547 3.36,-9.84 0.146,-0.014 0.284,-0.036 0.24,-0.24 6.886,-0.245 16.071,-0.712 22.56,0.24 1.109,3.29 2.354,6.447 3.36,9.84 5.52,0 11.04,0 16.56,0 -7.252,-20.267 -15.255,-39.784 -22.559,-60 z m 29.759,-0.24 c -0.561,19.601 -0.08,40.24 -0.24,60.24 5.28,0 10.561,0 15.84,0 0,-7.6 0,-15.2 0,-22.8 3.578,5.211 7.631,11.533 11.28,17.28 0.989,1.557 2.743,5.087 4.08,5.52 2.479,0.804 6.252,0 9.36,0 3.13,0 6.176,0 9.359,0 -4.194,-5.89 -9.386,-12.746 -13.92,-18.72 -1.565,-2.062 -3.751,-3.715 -4.319,-6.24 8.41,-1.651 12.955,-8.141 12.72,-17.28 -0.29,-11.247 -8.057,-17.628 -18.96,-18 -7.84,-0.399 -17.36,-0.399 -25.2,0 z" /><path
         style="clip-rule:evenodd;fill:#7f7f7f;fill-rule:evenodd"
         id="path37"
         d="m 155.761,136.8 c 1.18,-1.38 2.459,-2.66 3.84,-3.839 -1.18,1.379 -2.46,2.66 -3.84,3.839 z" /><path
         style="clip-rule:evenodd;fill:#7f7f7f;fill-rule:evenodd"
         id="path39"
         d="m 51.6,134.16 c 1.38,1.18 2.66,2.46 3.84,3.84 -1.38,-1.18 -2.66,-2.459 -3.84,-3.84 z" /><path
         style="clip-rule:evenodd;fill:#363636;fill-rule:evenodd"
         id="path41"
         d="m 50.88,56.4 c 0.94,-1.14 1.98,-2.18 3.12,-3.12 -0.939,1.14 -1.979,2.18 -3.12,3.12 z" /><path
         style="clip-rule:evenodd;fill:#e1c8d5;fill-rule:evenodd"
         id="path43"
         d="m 114.96,103.68 c 0.7,-0.9 1.5,-1.701 2.4,-2.4 -0.699,0.901 -1.5,1.7 -2.4,2.4 z" /><path
         style="clip-rule:evenodd;fill:#7f7f7f;fill-rule:evenodd"
         id="path45"
         d="m 124.8,113.76 c 0.78,-0.98 1.66,-1.86 2.641,-2.64 -0.781,0.981 -1.661,1.86 -2.641,2.64 z" /><path
         style="clip-rule:evenodd;fill:#e1c8d5;fill-rule:evenodd"
         id="path47"
         d="m 76.32,231.841 c 4.272,0 8.906,0 13.92,0 1.021,0 4.257,-0.253 4.56,0 1.016,0.848 0.24,5.39 0.24,6.72 0,2.8 0.187,4.887 -0.24,6.72 0,-4.399 0,-8.8 0,-13.2 -6.08,-0.16 -12.8,0.319 -18.48,-0.24 z" /><path
         style="clip-rule:evenodd;fill:#e1c8d5;fill-rule:evenodd"
         id="path49"
         d="m 60.72,185.04 c 10.88,-0.56 22.8,-0.08 34.08,-0.239 0.398,4.01 0.398,9.67 0,13.68 -6.16,0 -12.32,0 -18.48,0 5.68,-0.56 12.399,-0.08 18.48,-0.24 0,-4.399 0,-8.8 0,-13.2 C 83.44,185.04 72.08,185.04 60.72,185.04 Z" /><path
         style="clip-rule:evenodd;fill:#e1c8d5;fill-rule:evenodd"
         id="path51"
         d="m 123.12,185.28 c 4.737,-0.798 12.783,-0.798 17.521,0 -5.287,-0.399 -12.235,-0.399 -17.521,0 z" /><path
         style="clip-rule:evenodd;fill:#e1c8d5;fill-rule:evenodd"
         id="path53"
         d="m 120.48,235.44 c -0.009,-0.396 0.179,-0.638 0.479,-0.72 2.815,-0.768 7.369,0 11.04,0 3.949,0 7.663,0 11.04,0 0.014,0.307 0.308,0.332 0.24,0.72 -6.488,-0.952 -15.674,-0.485 -22.56,-0.24 0.046,0.204 -0.092,0.227 -0.239,0.24 z" /><path
         style="clip-rule:evenodd;fill:#363636;fill-rule:evenodd"
         id="path55"
         d="m 80.64,27.36 c 0.568,-0.552 2.154,-0.086 3.12,-0.24 -0.568,0.552 -2.154,0.086 -3.12,0.24 z" /><path
         style="clip-rule:evenodd;fill:#363636;fill-rule:evenodd"
         id="path57"
         d="m 85.2,27.12 c 0.966,0.154 2.552,-0.312 3.12,0.24 -0.966,-0.154 -2.552,0.312 -3.12,-0.24 z" /><path
         style="clip-rule:evenodd;fill:#7f7f7f;fill-rule:evenodd"
         id="path59"
         d="m 81.12,41.28 c 0.489,-0.551 1.993,-0.087 2.88,-0.24 -0.489,0.551 -1.993,0.087 -2.88,0.24 z" /><path
         style="clip-rule:evenodd;fill:#7f7f7f;fill-rule:evenodd"
         id="path61"
         d="m 84.96,41.04 c 0.887,0.153 2.391,-0.311 2.88,0.24 -0.887,-0.153 -2.391,0.311 -2.88,-0.24 z" /><path
         style="clip-rule:evenodd;fill:#363636;fill-rule:evenodd"
         id="path63"
         d="m 198.48,63.36 c 0.549,0.411 0.088,1.832 0.24,2.64 -0.549,-0.411 -0.087,-1.832 -0.24,-2.64 z" /><path
         style="clip-rule:evenodd;fill:#363636;fill-rule:evenodd"
         id="path65"
         d="m 198.721,72.72 c -0.152,0.808 0.309,2.229 -0.24,2.64 0.152,-0.808 -0.31,-2.229 0.24,-2.64 z" /><path
         style="clip-rule:evenodd;fill:#363636;fill-rule:evenodd"
         id="path67"
         d="m 139.92,74.88 c 0.551,0.489 0.087,1.993 0.24,2.88 -0.551,-0.489 -0.087,-1.993 -0.24,-2.88 z" /><path
         style="clip-rule:evenodd;fill:#7f7f7f;fill-rule:evenodd"
         id="path69"
         d="m 126,75.6 c 0.548,0.333 0.09,1.67 0.24,2.4 -0.547,-0.333 -0.09,-1.67 -0.24,-2.4 z" /><path
         style="clip-rule:evenodd;fill:#7f7f7f;fill-rule:evenodd"
         id="path71"
         d="m 126.24,79.2 c -0.15,0.729 0.308,2.067 -0.24,2.4 0.15,-0.729 -0.307,-2.067 0.24,-2.4 z" /><path
         style="clip-rule:evenodd;fill:#363636;fill-rule:evenodd"
         id="path73"
         d="m 140.16,79.44 c -0.152,0.808 0.31,2.229 -0.24,2.64 0.152,-0.808 -0.309,-2.229 0.24,-2.64 z" /><path
         style="clip-rule:evenodd;fill:#363636;fill-rule:evenodd"
         id="path75"
         d="m 95.76,110.4 c 1.2,0 2.4,0 3.6,0 -0.649,0.399 -2.95,0.399 -3.6,0 z" /><path
         style="clip-rule:evenodd;fill:#7f7f7f;fill-rule:evenodd"
         id="path77"
         d="m 95.28,124.32 c 1.52,0 3.04,0 4.56,0 -0.966,0.399 -3.593,0.399 -4.56,0 z" /><path
         style="clip-rule:evenodd;fill:#363636;fill-rule:evenodd"
         id="path79"
         d="m 99.84,171.12 c 0.966,0.154 2.552,-0.312 3.12,0.24 -0.966,-0.154 -2.552,0.312 -3.12,-0.24 z" /><path
         style="clip-rule:evenodd;fill:#363636;fill-rule:evenodd"
         id="path81"
         d="m 107.04,171.36 c 0.489,-0.551 1.993,-0.087 2.88,-0.24 -0.489,0.551 -1.993,0.087 -2.88,0.24 z" /><path
         style="clip-rule:evenodd;fill:#ffffff;fill-rule:evenodd"
         id="path83"
         d="m 190.561,197.28 c 4.27,0.29 7.233,1.887 7.68,6 0,0.88 0,1.76 0,2.64 -0.755,5.325 -5.839,6.321 -12.24,6 0,-4.88 0,-9.76 0,-14.64 1.52,0 3.039,0 4.56,0 z" /><path
         style="clip-rule:evenodd;fill:#ffffff;fill-rule:evenodd"
         id="path85"
         d="m 22.08,212.641 c 0,-4.96 0,-9.92 0,-14.88 4.473,0.11 8.536,-0.496 11.04,1.199 3.732,2.527 3.773,10.424 -0.48,12.721 -3.066,1.655 -6.088,0.659 -10.56,0.96 z" /><path
         style="clip-rule:evenodd;fill:#ffffff;fill-rule:evenodd"
         id="path87"
         d="m 125.04,222.721 c 2.034,-6.767 4.567,-13.033 6.72,-19.681 2.595,6.286 4.829,12.932 6.961,19.681 -4.561,0 -9.12,0 -13.681,0 z" /><path
         style="clip-rule:evenodd;fill:#e1c8d5;fill-rule:evenodd"
         id="path89"
         d="m 184.561,63.84 c 0.399,3.121 0.399,7.918 0,11.04 0,-3.68 0,-7.36 0,-11.04 z" /><path
         style="clip-rule:evenodd;fill:#e1c8d5;fill-rule:evenodd"
         id="path91"
         d="m 100.56,157.2 c 2.96,0 5.92,0 8.88,0 -2.401,0.4 -6.478,0.4 -8.88,0 z" /><path
         style="clip-rule:evenodd;fill:#363636;fill-rule:evenodd"
         id="path93"
         d="m 86.64,57.36 c 1.205,-0.399 4.075,-0.399 5.28,0 -1.76,0 -3.52,0 -5.28,0 z" /><path
         style="clip-rule:evenodd;fill:#7f7f7f;fill-rule:evenodd"
         id="path95"
         d="m 87.36,71.28 c 0.649,-0.399 2.95,-0.399 3.6,0 -1.2,0 -2.4,0 -3.6,0 z" /></g></g></svg>