<?xml version="1.0" encoding="UTF-8" standalone="no"?>
<svg
   xmlns:dc="http://purl.org/dc/elements/1.1/"
   xmlns:cc="http://creativecommons.org/ns#"
   xmlns:rdf="http://www.w3.org/1999/02/22-rdf-syntax-ns#"
   xmlns:svg="http://www.w3.org/2000/svg"
   xmlns="http://www.w3.org/2000/svg"
   viewBox="0 0 200 200"
   height="200"
   width="200"
   version="1.1"
   id="svg6307">
  <metadata
     id="metadata6313">
    <rdf:RDF>
      <cc:Work
         rdf:about="">
        <dc:format>image/svg+xml</dc:format>
        <dc:type
           rdf:resource="http://purl.org/dc/dcmitype/StillImage" />
        <dc:title></dc:title>
      </cc:Work>
    </rdf:RDF>
  </metadata>
  <defs
     id="defs6311">
    <clipPath
       clipPathUnits="userSpaceOnUse"
       id="clipPath6859">
      <rect
         style="fill:none;fill-opacity:1;stroke:none;stroke-width:1.5;stroke-miterlimit:4;stroke-dasharray:none;stroke-dashoffset:0;stroke-opacity:1"
         id="rect6861"
         width="302.15881"
         height="62.087425"
         x="1300.7316"
         y="860.62445" />
    </clipPath>
    <clipPath
       clipPathUnits="userSpaceOnUse"
       id="clipPath7468">
      <rect
         style="fill:none;fill-opacity:1;stroke:none;stroke-width:1.5;stroke-miterlimit:4;stroke-dasharray:none;stroke-dashoffset:0;stroke-opacity:1"
         id="rect7470"
         width="324.4068"
         height="72.952721"
         x="753.84479"
         y="389.7948" />
    </clipPath>
    <clipPath
       clipPathUnits="userSpaceOnUse"
       id="clipPath6201">
      <rect
         style="fill:none;fill-opacity:1;stroke:none;stroke-width:1.5;stroke-miterlimit:4;stroke-dasharray:none;stroke-dashoffset:0;stroke-opacity:1"
         id="rect6203"
         width="351.21951"
         height="103.17073"
         x="594.14636"
         y="341.70731" />
    </clipPath>
  </defs>
  <g
     transform="translate(-57.430866,68.813562)"
     id="g7581">
    <g
       style="font-style:normal;font-variant:normal;font-weight:normal;font-stretch:normal;letter-spacing:normal;word-spacing:normal;text-anchor:start;fill:none;fill-opacity:1;fill-rule:evenodd;stroke:#000000;stroke-linecap:butt;stroke-linejoin:miter;stroke-miterlimit:10.43299961;stroke-dasharray:none;stroke-dashoffset:0;stroke-opacity:1"
       id="content"
       transform="matrix(0.28571429,0,0,-0.28571429,-50,150)"
       xml:space="preserve"
       stroke-miterlimit="10.433"
       font-style="normal"
       font-variant="normal"
       font-weight="normal"
       font-stretch="normal"
       font-size-adjust="none"
       letter-spacing="normal"
       word-spacing="normal"><path
         style="fill:#000000;stroke-width:0"
         d="m 481.7,433.02 0,0.01 0,0 0,0.01 0,0.01 0,0.01 0,0.01 0,0.02 0,0.02 -0.01,0.02 0,0.02 -0.01,0.02 0,0.02 -0.01,0.03 -0.01,0.02 -0.01,0.03 -0.01,0.02 -0.02,0.02 -0.01,0.03 -0.02,0.02 -0.02,0.03 -0.03,0.02 -0.01,0.01 -0.01,0.01 -0.01,0.01 -0.02,0.01 -0.01,0.01 -0.02,0.01 -0.01,0.01 -0.02,0.01 -0.02,0.01 -0.02,0.01 -0.01,0.01 -0.02,0 -0.03,0.01 -0.02,0.01 -0.02,0 -0.02,0.01 -0.02,0 -0.03,0.01 -0.02,0 -0.03,0 -0.03,0.01 -0.03,0 -0.03,0 -0.03,0 c -0.74,0 -5.47,-0.45 -6.32,-0.55 -0.4,-0.05 -0.7,-0.3 -0.7,-0.95 0,-0.59 0.45,-0.59 1.2,-0.59 2.39,0 2.49,-0.35 2.49,-0.85 l -0.15,-0.99 -2.99,-11.81 c -0.9,1.84 -2.34,3.19 -4.58,3.19 l 0.05,-1.1 c 3.24,0 3.93,-4.08 3.93,-4.38 0,-0.3 -0.1,-0.6 -0.15,-0.85 l -2.49,-9.76 c -0.25,-0.9 -0.25,-1 -0.99,-1.84 -2.19,-2.75 -4.24,-3.54 -5.63,-3.54 -2.49,0 -3.19,2.74 -3.19,4.68 0,2.49 1.59,8.62 2.74,10.91 1.54,2.94 3.78,4.78 5.78,4.78 l -0.05,1.1 c -5.83,0 -12.01,-7.32 -12.01,-14.6 0,-4.68 2.74,-7.97 6.63,-7.97 0.99,0 3.49,0.2 6.47,3.74 0.4,-2.09 2.14,-3.74 4.53,-3.74 1.75,0 2.9,1.15 3.69,2.74 0.85,1.79 1.5,4.83 1.5,4.93 0,0.5 -0.45,0.5 -0.6,0.5 -0.5,0 -0.55,-0.2 -0.7,-0.89 -0.85,-3.24 -1.74,-6.18 -3.78,-6.18 -1.35,0 -1.5,1.29 -1.5,2.29 0,1.2 0.1,1.54 0.3,2.39 z"
         id="path7584" /><path
         style="fill:#000000;stroke-width:0"
         d="m 491.11,433.46 0.03,0.05 0.02,0.05 0.02,0.06 0.03,0.05 0.02,0.04 0.02,0.05 0.01,0.04 0.02,0.05 0.01,0.04 0.02,0.04 0.01,0.04 0.01,0.04 0.02,0.03 0.01,0.04 0.01,0.03 0,0.04 0.01,0.03 0.01,0.03 0,0.03 0.01,0.03 0.01,0.03 0,0.03 0,0.02 0.01,0.03 0,0.05 0,0.05 0.01,0.05 0,0.04 c 0,1.09 -0.98,1.92 -2.06,1.92 -1.33,0 -1.75,-1.08 -1.92,-1.64 l -4.6,-15.1 c -0.04,-0.07 -0.18,-0.52 -0.18,-0.55 0,-0.42 1.08,-0.77 1.37,-0.77 0.24,0 0.27,0.07 0.52,0.59 z"
         id="path7586" /><path
         style="fill:#000000;stroke-width:0"
         d="m 490.21,408.15 0,0.01 0,0 0,0 0,0.01 0.01,0.01 0,0 0,0.01 0,0 0.01,0.02 0,0.02 0.01,0.02 0,0.01 0.01,0.02 0,0.03 0.01,0.02 0.01,0.02 0,0.02 0.01,0.03 0.01,0.04 0.01,0.05 0,0.03 0.01,0.02 0,0.02 0.01,0.02 0,0.02 0.01,0.02 0,0.02 0,0.01 0.01,0.01 0,0.01 0,0 0,0.01 0,0.01 0,0 0,0.01 0,0 0,0 0,0.01 0,0 0,0 c 0,0.18 -0.13,0.49 -0.55,0.49 -0.7,0 -3.59,-0.28 -4.47,-0.35 -0.28,-0.03 -0.76,-0.07 -0.76,-0.8 0,-0.49 0.48,-0.49 0.9,-0.49 1.68,0 1.68,-0.24 1.68,-0.52 0,-0.25 -0.35,-1.64 -0.56,-2.44 l -0.8,-3.21 c -0.32,-1.19 -2.23,-8.82 -2.3,-9.28 -0.18,-0.83 -0.18,-1.29 -0.18,-1.7 0,-3.53 2.23,-5.76 5.13,-5.76 l 0.03,0.98 c -1.71,0 -2.68,1.5 -2.68,3.55 0,1.29 0.31,2.48 1.29,6.42 0.21,0.66 0.21,0.73 0.87,1.5 1.33,1.53 2.89,2.3 4.15,2.3 1.36,0 2.54,-1.01 2.54,-3.38 0,-1.43 -0.76,-4.99 -1.81,-7.01 -0.84,-1.71 -2.58,-3.38 -4.36,-3.38 l 0,0 -0.03,-0.98 c 4.36,0 8.99,4.74 8.99,9.9 0,4.08 -2.82,5.83 -5.23,5.83 -1.81,0 -3.35,-1.01 -4.39,-1.92 z"
         id="path7588" /><path
         style="fill:#000000;stroke-width:0"
         d="m 549.22,415.29 0.14,0 0.15,0 0.15,0.01 0.07,0 0.07,0 0.07,0.01 0.08,0.01 0.07,0.01 0.07,0.01 0.06,0.02 0.07,0.01 0.07,0.02 0.06,0.02 0.06,0.03 0.06,0.03 0.05,0.03 0.06,0.03 0.05,0.04 0.04,0.04 0.05,0.05 0.03,0.05 0.02,0.03 0.02,0.02 0.02,0.03 0.01,0.03 0.02,0.03 0.01,0.04 0.01,0.03 0.01,0.04 0.01,0.03 0.01,0.04 0.01,0.04 0,0.04 0.01,0.04 0,0.04 0,0.05 0,0.05 c 0,0.99 -0.94,0.99 -1.64,0.99 l -29.84,0 c -0.7,0 -1.64,0 -1.64,-0.99 0,-1 0.94,-1 1.69,-1 z"
         id="path7590" /><path
         style="fill:#000000;stroke-width:0"
         d="m 549.27,405.62 0.13,0.01 0.14,0 0.14,0 0.07,0.01 0.07,0 0.07,0.01 0.07,0.01 0.07,0.01 0.07,0.01 0.06,0.01 0.07,0.02 0.06,0.02 0.06,0.02 0.06,0.02 0.06,0.03 0.06,0.03 0.05,0.04 0.05,0.04 0.04,0.04 0.05,0.04 0.02,0.03 0.02,0.03 0.01,0.02 0.02,0.03 0.02,0.03 0.01,0.03 0.02,0.03 0.01,0.03 0.01,0.04 0.01,0.03 0.01,0.04 0.01,0.04 0.01,0.04 0,0.04 0.01,0.04 0,0.04 0,0.05 0,0.04 c 0,1 -0.94,1 -1.69,1 l -29.74,0 c -0.75,0 -1.69,0 -1.69,-1 0,-1 0.94,-1 1.64,-1 z"
         id="path7592" /><path
         style="fill:#000000;stroke-width:0"
         d="m 593.7,433.02 0,0.01 0,0 0,0.01 0,0.01 0,0.01 0,0.01 0,0.02 0,0.02 -0.01,0.02 0,0.02 -0.01,0.02 0,0.02 -0.01,0.03 -0.01,0.02 -0.01,0.03 -0.01,0.02 -0.02,0.02 -0.01,0.03 -0.02,0.02 -0.02,0.03 -0.03,0.02 -0.01,0.01 -0.01,0.01 -0.01,0.01 -0.02,0.01 -0.01,0.01 -0.02,0.01 -0.01,0.01 -0.02,0.01 -0.02,0.01 -0.02,0.01 -0.01,0.01 -0.02,0 -0.03,0.01 -0.02,0.01 -0.02,0 -0.02,0.01 -0.02,0 -0.03,0.01 -0.02,0 -0.03,0 -0.03,0.01 -0.03,0 -0.03,0 -0.03,0 c -0.74,0 -5.47,-0.45 -6.32,-0.55 -0.4,-0.05 -0.7,-0.3 -0.7,-0.95 0,-0.59 0.45,-0.59 1.2,-0.59 2.39,0 2.49,-0.35 2.49,-0.85 l -0.15,-0.99 -2.99,-11.81 c -0.9,1.84 -2.34,3.19 -4.58,3.19 l 0.05,-1.1 c 3.23,0 3.93,-4.08 3.93,-4.38 0,-0.3 -0.1,-0.6 -0.15,-0.85 l -2.49,-9.76 c -0.25,-0.9 -0.25,-1 -0.99,-1.84 -2.19,-2.75 -4.24,-3.54 -5.63,-3.54 -2.49,0 -3.19,2.74 -3.19,4.68 0,2.49 1.59,8.62 2.74,10.91 1.54,2.94 3.78,4.78 5.78,4.78 l -0.05,1.1 c -5.83,0 -12.01,-7.32 -12.01,-14.6 0,-4.68 2.74,-7.97 6.63,-7.97 0.99,0 3.48,0.2 6.47,3.74 0.4,-2.09 2.14,-3.74 4.53,-3.74 1.75,0 2.9,1.15 3.69,2.74 0.85,1.79 1.5,4.83 1.5,4.93 0,0.5 -0.45,0.5 -0.6,0.5 -0.5,0 -0.55,-0.2 -0.7,-0.89 -0.85,-3.24 -1.74,-6.18 -3.78,-6.18 -1.35,0 -1.5,1.29 -1.5,2.29 0,1.2 0.1,1.54 0.3,2.39 z"
         id="path7594" /><path
         style="fill:#000000;stroke-width:0"
         d="m 603.21,414.15 0,0.01 0,0 0,0 0,0.01 0.01,0.01 0,0 0,0.01 0,0 0.01,0.02 0,0.02 0.01,0.02 0,0.01 0.01,0.02 0,0.03 0.01,0.02 0.01,0.02 0,0.02 0.01,0.03 0.01,0.04 0.01,0.05 0,0.03 0.01,0.02 0,0.02 0.01,0.02 0,0.02 0.01,0.02 0,0.02 0,0.01 0.01,0.01 0,0.01 0,0 0,0.01 0,0.01 0,0 0,0.01 0,0 0,0 0,0.01 0,0 0,0 c 0,0.18 -0.13,0.49 -0.56,0.49 -0.69,0 -3.58,-0.28 -4.46,-0.35 -0.28,-0.03 -0.76,-0.07 -0.76,-0.8 0,-0.49 0.48,-0.49 0.91,-0.49 1.67,0 1.67,-0.24 1.67,-0.52 0,-0.25 -0.35,-1.64 -0.56,-2.44 l -0.8,-3.21 c -0.31,-1.19 -2.23,-8.82 -2.3,-9.28 -0.18,-0.83 -0.18,-1.29 -0.18,-1.7 0,-3.53 2.23,-5.76 5.13,-5.76 l 0.03,0.98 c -1.71,0 -2.68,1.5 -2.68,3.55 0,1.29 0.31,2.48 1.29,6.42 0.21,0.66 0.21,0.73 0.87,1.5 1.33,1.53 2.89,2.3 4.15,2.3 1.36,0 2.54,-1.01 2.54,-3.38 0,-1.43 -0.76,-4.99 -1.81,-7.01 -0.84,-1.71 -2.58,-3.38 -4.36,-3.38 l 0,0 -0.03,-0.98 c 4.35,0 8.99,4.74 8.99,9.9 0,4.08 -2.82,5.83 -5.23,5.83 -1.81,0 -3.35,-1.01 -4.39,-1.92 z"
         id="path7596" /><polygon
         style="fill:#000000;stroke-width:0"
         points="644.57,453.65 644.57,455.99 633.26,455.99 633.26,366.38 644.57,366.38 644.57,368.72 635.6,368.72 635.6,453.65 "
         id="polygon7598" /><path
         style="fill:#000000;stroke-width:0"
         d="m 661.21,446.15 0,0.01 0,0 0,0 0,0.01 0.01,0.01 0,0 0,0.01 0,0 0.01,0.02 0,0.02 0.01,0.02 0,0.01 0.01,0.02 0,0.03 0.01,0.02 0.01,0.02 0,0.02 0.01,0.03 0.01,0.04 0.01,0.05 0,0.03 0.01,0.02 0,0.02 0.01,0.02 0,0.02 0.01,0.02 0,0.02 0,0.01 0.01,0.01 0,0.01 0,0 0,0.01 0,0.01 0,0 0,0.01 0,0 0,0 0,0.01 0,0 0,0 c 0,0.18 -0.13,0.49 -0.56,0.49 -0.69,0 -3.58,-0.28 -4.46,-0.35 -0.28,-0.03 -0.76,-0.07 -0.76,-0.8 0,-0.49 0.48,-0.49 0.91,-0.49 1.67,0 1.67,-0.24 1.67,-0.52 0,-0.25 -0.35,-1.64 -0.56,-2.44 l -0.8,-3.21 c -0.31,-1.19 -2.23,-8.82 -2.3,-9.28 -0.18,-0.83 -0.18,-1.29 -0.18,-1.7 0,-3.53 2.23,-5.76 5.13,-5.76 l 0.03,0.98 c -1.71,0 -2.68,1.5 -2.68,3.55 0,1.29 0.31,2.48 1.29,6.42 0.21,0.66 0.21,0.73 0.87,1.5 1.33,1.53 2.89,2.3 4.15,2.3 1.36,0 2.54,-1.01 2.54,-3.38 0,-1.43 -0.76,-4.99 -1.81,-7.01 -0.84,-1.71 -2.58,-3.38 -4.36,-3.38 l 0,0 -0.03,-0.98 c 4.35,0 8.99,4.74 8.99,9.9 0,4.08 -2.82,5.83 -5.23,5.83 -1.81,0 -3.35,-1.01 -4.39,-1.92 z"
         id="path7600" /><path
         style="fill:#000000;stroke-width:0"
         d="m 685.15,430.88 10.66,0 c 0.46,0 1.29,0 1.29,0.84 0,0.87 -0.8,0.87 -1.29,0.87 l -10.66,0 0,10.7 c 0,0.46 0,1.29 -0.84,1.29 -0.87,0 -0.87,-0.8 -0.87,-1.29 l 0,-10.7 -10.71,0 c -0.45,0 -1.29,0 -1.29,-0.84 0,-0.87 0.8,-0.87 1.29,-0.87 l 10.71,0 0,-10.7 c 0,-0.46 0,-1.29 0.83,-1.29 0.88,0 0.88,0.8 0.88,1.29 z"
         id="path7602" /><path
         style="fill:#000000;stroke-width:0"
         d="m 712.38,449.15 -0.61,-0.44 -0.58,-0.46 -0.55,-0.48 -0.52,-0.49 -0.5,-0.5 -0.47,-0.51 -0.45,-0.52 -0.42,-0.54 -0.4,-0.54 -0.38,-0.55 -0.35,-0.56 -0.33,-0.56 -0.31,-0.57 -0.29,-0.57 -0.26,-0.58 -0.25,-0.58 -0.23,-0.58 -0.2,-0.58 -0.19,-0.59 -0.18,-0.58 -0.15,-0.58 -0.14,-0.58 -0.12,-0.57 -0.11,-0.58 -0.1,-0.56 -0.07,-0.56 -0.07,-0.55 -0.05,-0.55 -0.04,-0.54 -0.03,-0.52 -0.01,-0.52 -0.01,-0.51 c 0,-4.91 1.46,-12.55 8.37,-17.43 0.28,0 0.69,0 0.69,0.41 0,0.22 -0.1,0.29 -0.34,0.53 -4.64,4.18 -6.35,10.11 -6.35,16.46 0,9.41 3.59,14.01 6.45,16.6 0.14,0.13 0.24,0.24 0.24,0.41 0,0.42 -0.41,0.42 -0.69,0.42 z"
         id="path7604" /><path
         style="fill:#000000;stroke-width:0"
         d="m 726.68,445.18 0,0.04 0,0.04 0,0.04 0,0.04 0,0.04 0,0.04 0,0.03 0,0.04 -0.01,0.03 0,0.03 0,0.04 0,0.03 -0.01,0.02 0,0.03 0,0.03 -0.01,0.03 0,0.02 0,0.02 -0.02,0.05 -0.01,0.04 -0.01,0.04 -0.02,0.03 -0.02,0.03 -0.02,0.03 -0.03,0.03 -0.02,0.02 -0.03,0.02 -0.04,0.02 -0.03,0.01 -0.04,0.01 -0.05,0.02 -0.05,0 -0.02,0.01 -0.03,0 -0.03,0.01 -0.02,0 -0.03,0 -0.03,0 -0.04,0 -0.03,0.01 -0.03,0 -0.04,0 -0.03,0 -0.04,0 -0.04,0 -0.04,0 -0.04,0 -0.04,0 -0.05,0 -0.04,0 c -2.24,-2.19 -5.41,-2.23 -6.84,-2.23 l 0,-1.25 c 0.84,0 3.14,0 5.05,0.97 l 0,-17.78 c 0,-1.15 0,-1.61 -3.48,-1.61 l -1.33,0 0,-1.25 12.45,0 0,1.25 -1.32,0 c -3.49,0 -3.49,0.46 -3.49,1.61 z"
         id="path7606" /><path
         style="fill:#000000;stroke-width:0"
         d="m 760.94,430.88 0.05,0 0.06,0 0.05,0 0.06,0 0.12,0 0.06,0.01 0.05,0 0.06,0.01 0.06,0 0.06,0.01 0.06,0.01 0.05,0.02 0.06,0.01 0.06,0.02 0.05,0.01 0.05,0.02 0.05,0.03 0.05,0.02 0.04,0.03 0.04,0.04 0.05,0.03 0.03,0.04 0.02,0.02 0.02,0.02 0.01,0.03 0.02,0.02 0.01,0.02 0.02,0.03 0.01,0.03 0.01,0.02 0.01,0.03 0.01,0.03 0.01,0.03 0,0.03 0.01,0.04 0.01,0.03 0,0.04 0,0.03 0.01,0.04 0,0.04 c 0,0.87 -0.81,0.87 -1.4,0.87 l -20.78,0 c -0.56,0 -1.39,0 -1.39,-0.84 0,-0.87 0.8,-0.87 1.39,-0.87 z"
         id="path7608" /><path
         style="fill:#000000;stroke-width:0"
         d="m 775.21,446.15 0,0.01 0,0 0,0 0,0.01 0.01,0.01 0,0 0,0.01 0,0 0.01,0.02 0,0.02 0.01,0.02 0,0.01 0.01,0.02 0,0.03 0.01,0.02 0.01,0.02 0,0.02 0.01,0.03 0.01,0.04 0.01,0.05 0,0.03 0.01,0.02 0,0.02 0.01,0.02 0,0.02 0.01,0.02 0,0.02 0,0.01 0.01,0.01 0,0.01 0,0 0,0.01 0,0.01 0,0 0,0.01 0,0 0,0 0,0.01 0,0 0,0 c 0,0.18 -0.13,0.49 -0.56,0.49 -0.69,0 -3.58,-0.28 -4.46,-0.35 -0.28,-0.03 -0.76,-0.07 -0.76,-0.8 0,-0.49 0.48,-0.49 0.91,-0.49 1.67,0 1.67,-0.24 1.67,-0.52 0,-0.25 -0.35,-1.64 -0.56,-2.44 l -0.8,-3.21 c -0.31,-1.19 -2.23,-8.82 -2.3,-9.28 -0.18,-0.83 -0.18,-1.29 -0.18,-1.7 0,-3.53 2.23,-5.76 5.13,-5.76 l 0.03,0.98 c -1.71,0 -2.68,1.5 -2.68,3.55 0,1.29 0.31,2.48 1.29,6.42 0.21,0.66 0.21,0.73 0.87,1.5 1.33,1.53 2.89,2.3 4.15,2.3 1.36,0 2.54,-1.01 2.54,-3.38 0,-1.43 -0.76,-4.99 -1.81,-7.01 -0.84,-1.71 -2.58,-3.38 -4.36,-3.38 l 0,0 -0.03,-0.98 c 4.35,0 8.99,4.74 8.99,9.9 0,4.08 -2.82,5.83 -5.23,5.83 -1.81,0 -3.35,-1.01 -4.39,-1.92 z"
         id="path7610" /><path
         style="fill:#000000;stroke-width:0"
         d="m 787.14,449.15 -0.03,0 -0.02,0 -0.03,0 -0.02,0 -0.03,0 -0.02,0 -0.03,0 -0.03,0 -0.03,-0.01 -0.02,0 -0.03,0 -0.03,-0.01 -0.03,-0.01 -0.02,0 -0.03,-0.01 -0.02,-0.01 -0.03,-0.01 -0.02,-0.01 -0.03,-0.02 -0.02,-0.01 -0.02,-0.02 -0.02,-0.01 -0.02,-0.02 -0.01,-0.01 0,-0.01 -0.01,-0.02 -0.01,-0.01 -0.01,-0.01 0,-0.01 -0.01,-0.02 0,-0.01 -0.01,-0.01 0,-0.02 -0.01,-0.01 0,-0.02 -0.01,-0.02 0,-0.01 0,-0.02 0,-0.02 0,-0.02 0,-0.02 c 0,-0.17 0.1,-0.28 0.31,-0.52 3,-2.75 6.35,-7.46 6.35,-16.46 0,-7.29 -2.27,-12.79 -6.04,-16.21 -0.59,-0.59 -0.62,-0.63 -0.62,-0.81 0,-0.17 0.1,-0.41 0.45,-0.41 0.42,0 3.73,2.3 6.03,6.66 1.54,2.89 2.55,6.66 2.55,10.74 0,4.91 -1.47,12.55 -8.37,17.43 z"
         id="path7612" /><path
         style="fill:#000000;stroke-width:0"
         d="m 818.49,432.48 0.02,0.09 0.03,0.09 0.01,0.08 0.02,0.07 0.02,0.08 0.02,0.07 0.01,0.06 0.02,0.06 0.01,0.06 0.01,0.06 0.02,0.06 0.01,0.05 0.01,0.05 0.01,0.05 0.01,0.1 0.02,0.1 0.01,0.09 0,0.1 0.01,0.05 0,0.05 0,0.06 0.01,0.05 0,0.06 0,0.06 0,0.06 0,0.07 0,0.07 0,0.07 c 0,0.56 0,2.03 -1.29,3.04 -0.59,0.45 -1.6,0.94 -3.24,0.94 -1.47,0 -3.63,-0.39 -5.9,-3.14 -0.24,2.62 -2.61,3.14 -3.69,3.14 -1.36,0 -2.2,-0.91 -2.75,-1.85 -0.7,-1.19 -1.26,-3.28 -1.26,-3.49 0,-0.45 0.49,-0.45 0.59,-0.45 0.49,0 0.52,0.11 0.77,1.05 0.52,2.02 1.18,3.76 2.54,3.76 0.91,0 1.16,-0.77 1.16,-1.71 0,-0.66 -0.32,-1.95 -0.56,-2.89 -0.24,-0.94 -0.6,-2.37 -0.77,-3.14 l -1.12,-4.46 c -0.14,-0.46 -0.34,-1.33 -0.34,-1.43 0,-0.77 0.62,-1.12 1.18,-1.12 0.63,0 1.19,0.46 1.36,0.77 0.17,0.31 0.45,1.43 0.63,2.16 0.17,0.66 0.56,2.27 0.76,3.14 0.21,0.76 0.43,1.53 0.6,2.33 0.38,1.5 0.38,1.57 1.08,2.65 1.12,1.71 2.86,3.7 5.58,3.7 1.95,0 2.06,-1.6 2.06,-2.44 0,-0.94 -0.07,-1.26 -0.25,-1.92 l -3.94,-15.65 c -0.14,-0.53 -0.14,-0.7 -0.14,-0.74 0,-0.76 0.63,-1.11 1.19,-1.11 1.25,0 1.57,1.18 1.67,1.67 z"
         id="path7614" /><path
         style="fill:#000000;stroke-width:0"
         d="m 831.84,443.13 4.15,1.97 c 0.45,0.22 0.53,0.25 0.53,0.5 0,0.2 -0.18,0.35 -0.35,0.4 l -4.96,-0.93 -0.57,4.54 c -0.05,0.3 -0.08,0.69 -0.45,0.69 -0.37,0 -0.45,-0.42 -0.47,-0.67 l -0.57,-4.56 -4.89,0.93 c -0.29,0 -0.42,-0.25 -0.42,-0.4 0,-0.2 0.1,-0.33 0.45,-0.5 l 4.23,-1.97 -2.24,-4.08 c -0.05,-0.08 -0.18,-0.3 -0.18,-0.43 0,-0.24 0.23,-0.4 0.4,-0.4 0.1,0 0.2,0.05 0.28,0.08 0.17,0.17 3.29,3.49 3.38,3.61 l 1.92,-2.04 0.95,-0.97 c 0.1,-0.13 0.35,-0.4 0.47,-0.5 0.08,-0.08 0.18,-0.18 0.35,-0.18 0.18,0 0.4,0.16 0.4,0.4 0,0.13 -0.13,0.35 -0.18,0.43 z"
         id="path7616" /><polyline
         style="fill:#000000;fill-rule:nonzero;stroke-width:0"
         points="652,410 842.44,410 842.44,412.04 652,412.04 "
         id="polyline7618" /><path
         style="fill:#000000;stroke-width:0"
         d="m 671.21,404.15 0,0.01 0,0 0,0 0,0.01 0.01,0.01 0,0 0,0.01 0,0 0.01,0.02 0,0.02 0.01,0.02 0,0.01 0.01,0.02 0,0.03 0.01,0.02 0.01,0.02 0,0.02 0.01,0.03 0.01,0.04 0.01,0.05 0,0.03 0.01,0.02 0,0.02 0.01,0.02 0,0.02 0.01,0.02 0,0.02 0,0.01 0.01,0.01 0,0.01 0,0 0,0.01 0,0.01 0,0 0,0.01 0,0 0,0 0,0.01 0,0 0,0 c 0,0.18 -0.13,0.49 -0.56,0.49 -0.69,0 -3.58,-0.28 -4.46,-0.35 -0.28,-0.03 -0.76,-0.07 -0.76,-0.8 0,-0.49 0.48,-0.49 0.91,-0.49 1.67,0 1.67,-0.24 1.67,-0.52 0,-0.25 -0.35,-1.64 -0.56,-2.44 l -0.8,-3.21 c -0.31,-1.19 -2.23,-8.82 -2.3,-9.28 -0.18,-0.83 -0.18,-1.29 -0.18,-1.7 0,-3.53 2.23,-5.76 5.13,-5.76 l 0.03,0.98 c -1.71,0 -2.68,1.5 -2.68,3.55 0,1.29 0.31,2.48 1.29,6.42 0.21,0.66 0.21,0.73 0.87,1.5 1.33,1.53 2.89,2.3 4.15,2.3 1.36,0 2.54,-1.01 2.54,-3.38 0,-1.43 -0.76,-4.99 -1.81,-7.01 -0.84,-1.71 -2.58,-3.38 -4.36,-3.38 l 0,0 -0.03,-0.98 c 4.35,0 8.99,4.74 8.99,9.9 0,4.08 -2.82,5.83 -5.23,5.83 -1.81,0 -3.35,-1.01 -4.39,-1.92 z"
         id="path7620" /><path
         style="fill:#000000;stroke-width:0"
         d="m 696.15,388.88 10.66,0 c 0.46,0 1.29,0 1.29,0.84 0,0.87 -0.8,0.87 -1.29,0.87 l -10.66,0 0,10.7 c 0,0.46 0,1.29 -0.84,1.29 -0.87,0 -0.87,-0.8 -0.87,-1.29 l 0,-10.7 -10.71,0 c -0.45,0 -1.29,0 -1.29,-0.84 0,-0.87 0.8,-0.87 1.29,-0.87 l 10.71,0 0,-10.7 c 0,-0.46 0,-1.29 0.83,-1.29 0.88,0 0.88,0.8 0.88,1.29 z"
         id="path7622" /><path
         style="fill:#000000;stroke-width:0"
         d="m 722.38,407.15 -0.61,-0.44 -0.58,-0.46 -0.55,-0.48 -0.52,-0.49 -0.5,-0.5 -0.47,-0.51 -0.45,-0.52 -0.42,-0.54 -0.4,-0.54 -0.38,-0.55 -0.35,-0.56 -0.33,-0.56 -0.31,-0.57 -0.29,-0.57 -0.26,-0.58 -0.25,-0.58 -0.23,-0.58 -0.2,-0.58 -0.19,-0.59 -0.18,-0.58 -0.15,-0.58 -0.14,-0.58 -0.12,-0.57 -0.11,-0.58 -0.1,-0.56 -0.07,-0.56 -0.07,-0.55 -0.05,-0.55 -0.04,-0.54 -0.03,-0.52 -0.01,-0.52 -0.01,-0.51 c 0,-4.91 1.46,-12.55 8.37,-17.43 0.28,0 0.69,0 0.69,0.41 0,0.22 -0.1,0.29 -0.34,0.53 -4.64,4.18 -6.35,10.11 -6.35,16.46 0,9.41 3.59,14.01 6.45,16.6 0.14,0.13 0.24,0.24 0.24,0.41 0,0.42 -0.41,0.42 -0.69,0.42 z"
         id="path7624" /><path
         style="fill:#000000;stroke-width:0"
         d="m 737.68,403.18 0,0.04 0,0.04 0,0.04 0,0.04 0,0.04 0,0.04 0,0.03 0,0.04 -0.01,0.03 0,0.03 0,0.04 0,0.03 -0.01,0.02 0,0.03 0,0.03 -0.01,0.03 0,0.02 0,0.02 -0.02,0.05 -0.01,0.04 -0.01,0.04 -0.02,0.03 -0.02,0.03 -0.02,0.03 -0.03,0.03 -0.02,0.02 -0.03,0.02 -0.04,0.02 -0.03,0.01 -0.04,0.01 -0.05,0.02 -0.05,0 -0.02,0.01 -0.03,0 -0.03,0.01 -0.02,0 -0.03,0 -0.03,0 -0.04,0 -0.03,0.01 -0.03,0 -0.04,0 -0.03,0 -0.04,0 -0.04,0 -0.04,0 -0.04,0 -0.04,0 -0.05,0 -0.04,0 c -2.24,-2.19 -5.41,-2.23 -6.84,-2.23 l 0,-1.25 c 0.84,0 3.14,0 5.05,0.97 l 0,-17.78 c 0,-1.15 0,-1.61 -3.48,-1.61 l -1.33,0 0,-1.25 12.45,0 0,1.25 -1.32,0 c -3.49,0 -3.49,0.46 -3.49,1.61 z"
         id="path7626" /><path
         style="fill:#000000;stroke-width:0"
         d="m 771.94,388.88 0.05,0 0.06,0 0.05,0 0.06,0 0.12,0 0.06,0.01 0.05,0 0.06,0.01 0.06,0 0.06,0.01 0.06,0.01 0.05,0.02 0.06,0.01 0.06,0.02 0.05,0.01 0.05,0.02 0.05,0.03 0.05,0.02 0.04,0.03 0.04,0.04 0.05,0.03 0.03,0.04 0.02,0.02 0.02,0.02 0.01,0.03 0.02,0.02 0.01,0.02 0.02,0.03 0.01,0.03 0.01,0.02 0.01,0.03 0.01,0.03 0.01,0.03 0,0.03 0.01,0.04 0.01,0.03 0,0.04 0,0.03 0.01,0.04 0,0.04 c 0,0.87 -0.81,0.87 -1.4,0.87 l -20.78,0 c -0.56,0 -1.39,0 -1.39,-0.84 0,-0.87 0.8,-0.87 1.39,-0.87 z"
         id="path7628" /><path
         style="fill:#000000;stroke-width:0"
         d="m 786.21,404.15 0,0.01 0,0 0,0 0,0.01 0.01,0.01 0,0 0,0.01 0,0 0.01,0.02 0,0.02 0.01,0.02 0,0.01 0.01,0.02 0,0.03 0.01,0.02 0.01,0.02 0,0.02 0.01,0.03 0.01,0.04 0.01,0.05 0,0.03 0.01,0.02 0,0.02 0.01,0.02 0,0.02 0.01,0.02 0,0.02 0,0.01 0.01,0.01 0,0.01 0,0 0,0.01 0,0.01 0,0 0,0.01 0,0 0,0 0,0.01 0,0 0,0 c 0,0.18 -0.13,0.49 -0.56,0.49 -0.69,0 -3.58,-0.28 -4.46,-0.35 -0.28,-0.03 -0.76,-0.07 -0.76,-0.8 0,-0.49 0.48,-0.49 0.91,-0.49 1.67,0 1.67,-0.24 1.67,-0.52 0,-0.25 -0.35,-1.64 -0.56,-2.44 l -0.8,-3.21 c -0.31,-1.19 -2.23,-8.82 -2.3,-9.28 -0.18,-0.83 -0.18,-1.29 -0.18,-1.7 0,-3.53 2.23,-5.76 5.13,-5.76 l 0.03,0.98 c -1.71,0 -2.68,1.5 -2.68,3.55 0,1.29 0.31,2.48 1.29,6.42 0.21,0.66 0.21,0.73 0.87,1.5 1.33,1.53 2.89,2.3 4.15,2.3 1.36,0 2.54,-1.01 2.54,-3.38 0,-1.43 -0.76,-4.99 -1.81,-7.01 -0.84,-1.71 -2.58,-3.38 -4.36,-3.38 l 0,0 -0.03,-0.98 c 4.35,0 8.99,4.74 8.99,9.9 0,4.08 -2.82,5.83 -5.23,5.83 -1.81,0 -3.35,-1.01 -4.39,-1.92 z"
         id="path7630" /><path
         style="fill:#000000;stroke-width:0"
         d="m 797.14,407.15 -0.03,0 -0.02,0 -0.03,0 -0.02,0 -0.03,0 -0.02,0 -0.03,0 -0.03,0 -0.03,-0.01 -0.02,0 -0.03,0 -0.03,-0.01 -0.03,-0.01 -0.02,0 -0.03,-0.01 -0.02,-0.01 -0.03,-0.01 -0.02,-0.01 -0.03,-0.02 -0.02,-0.01 -0.02,-0.02 -0.02,-0.01 -0.02,-0.02 -0.01,-0.01 0,-0.01 -0.01,-0.02 -0.01,-0.01 -0.01,-0.01 0,-0.01 -0.01,-0.02 0,-0.01 -0.01,-0.01 0,-0.02 -0.01,-0.01 0,-0.02 -0.01,-0.02 0,-0.01 0,-0.02 0,-0.02 0,-0.02 0,-0.02 c 0,-0.17 0.1,-0.28 0.31,-0.52 3,-2.75 6.35,-7.46 6.35,-16.46 0,-7.29 -2.27,-12.79 -6.04,-16.21 -0.59,-0.59 -0.62,-0.63 -0.62,-0.81 0,-0.17 0.1,-0.41 0.45,-0.41 0.42,0 3.73,2.3 6.03,6.66 1.54,2.89 2.55,6.66 2.55,10.74 0,4.91 -1.47,12.55 -8.37,17.43 z"
         id="path7632" /><path
         style="fill:#000000;stroke-width:0"
         d="m 829.49,390.48 0.02,0.09 0.03,0.09 0.01,0.08 0.02,0.07 0.02,0.08 0.02,0.07 0.01,0.06 0.02,0.06 0.01,0.06 0.01,0.06 0.02,0.06 0.01,0.05 0.01,0.05 0.01,0.05 0.01,0.1 0.02,0.1 0.01,0.09 0,0.1 0.01,0.05 0,0.05 0,0.06 0.01,0.05 0,0.06 0,0.06 0,0.06 0,0.07 0,0.07 0,0.07 c 0,0.56 0,2.03 -1.29,3.04 -0.59,0.45 -1.6,0.94 -3.24,0.94 -1.47,0 -3.63,-0.39 -5.9,-3.14 -0.24,2.62 -2.61,3.14 -3.69,3.14 -1.36,0 -2.2,-0.91 -2.75,-1.85 -0.7,-1.19 -1.26,-3.28 -1.26,-3.49 0,-0.45 0.49,-0.45 0.59,-0.45 0.49,0 0.52,0.11 0.77,1.05 0.52,2.02 1.18,3.76 2.54,3.76 0.91,0 1.16,-0.77 1.16,-1.71 0,-0.66 -0.32,-1.95 -0.56,-2.89 -0.24,-0.94 -0.6,-2.37 -0.77,-3.14 l -1.12,-4.46 c -0.14,-0.46 -0.34,-1.33 -0.34,-1.43 0,-0.77 0.62,-1.12 1.18,-1.12 0.63,0 1.19,0.46 1.36,0.77 0.17,0.31 0.45,1.43 0.63,2.16 0.17,0.66 0.56,2.27 0.76,3.14 0.21,0.76 0.43,1.53 0.6,2.33 0.38,1.5 0.38,1.57 1.08,2.65 1.12,1.71 2.86,3.7 5.58,3.7 1.95,0 2.06,-1.6 2.06,-2.44 0,-0.94 -0.07,-1.26 -0.25,-1.92 l -3.94,-15.65 c -0.14,-0.53 -0.14,-0.7 -0.14,-0.74 0,-0.76 0.63,-1.11 1.19,-1.11 1.25,0 1.57,1.18 1.67,1.67 z"
         id="path7634" /><polygon
         style="fill:#000000;stroke-width:0"
         points="848.9,455.99 848.9,453.65 857.86,453.65 857.86,368.72 848.9,368.72 848.9,366.38 860.2,366.38 860.2,455.99 "
         id="polygon7636" /><path
         style="fill:#000000;stroke-width:0"
         d="m 912.95,439.1 0.01,0.04 0.01,0.05 0.01,0.04 0.01,0.05 0.01,0.04 0.01,0.04 0.01,0.04 0.01,0.04 0.02,0.07 0.02,0.07 0.02,0.06 0.02,0.06 0.02,0.05 0.02,0.05 0.02,0.05 0.02,0.05 0.03,0.04 0.02,0.03 0.03,0.04 0.02,0.03 0.03,0.03 0.03,0.03 0.03,0.02 0.03,0.02 0.04,0.02 0.04,0.02 0.04,0.01 0.04,0.02 0.05,0.01 0.04,0.01 0.06,0.01 0.05,0.01 0.06,0.01 0.06,0.01 0.07,0 0.07,0.01 c 0.17,0.04 1.39,0.04 2.09,0.04 2.13,0 3.03,0 3.9,-0.28 1.57,-0.49 1.64,-1.5 1.64,-2.76 0,-0.55 0,-1.01 -0.24,-2.82 l -0.07,-0.39 c 0,-0.34 0.24,-0.52 0.59,-0.52 0.53,0 0.59,0.32 0.66,0.87 l 0.95,6.66 c 0,0.49 -0.42,0.49 -1.05,0.49 l -21.45,0 c -0.87,0 -0.94,0 -1.18,-0.73 l -2.2,-6.17 c -0.03,-0.14 -0.17,-0.46 -0.17,-0.63 0,-0.14 0.07,-0.49 0.59,-0.49 0.46,0 0.52,0.18 0.73,0.84 2.03,5.58 3.18,5.93 8.48,5.93 l 1.46,0 c 1.05,0 1.08,-0.04 1.08,-0.35 0,-0.04 0,-0.21 -0.14,-0.74 l -4.6,-18.34 c -0.32,-1.28 -0.42,-1.64 -4.08,-1.64 -1.25,0 -1.57,0 -1.57,-0.76 0,-0.11 0.07,-0.49 0.59,-0.49 l 12.07,0 c 0.28,0 0.8,0 0.8,0.77 0,0.48 -0.35,0.48 -1.43,0.48 -0.66,0 -1.36,0.04 -2.02,0.07 -1.19,0.11 -1.26,0.25 -1.26,0.67 0,0.24 0,0.31 0.14,0.8 z"
         id="path7638" /><polyline
         style="fill:#000000;fill-rule:nonzero;stroke-width:0"
         points="886,410 935.8,410 935.8,412.04 886,412.04 "
         id="polyline7640" /><path
         style="fill:#000000;stroke-width:0"
         d="m 902.95,402.1 0.01,0.04 0.01,0.05 0.01,0.04 0.01,0.05 0.01,0.04 0.01,0.04 0.01,0.04 0.01,0.04 0.02,0.07 0.02,0.07 0.02,0.06 0.02,0.06 0.02,0.05 0.02,0.05 0.02,0.05 0.02,0.05 0.03,0.04 0.02,0.03 0.03,0.04 0.02,0.03 0.03,0.03 0.03,0.03 0.03,0.02 0.03,0.02 0.04,0.02 0.04,0.02 0.04,0.01 0.04,0.02 0.05,0.01 0.04,0.01 0.06,0.01 0.05,0.01 0.06,0.01 0.06,0.01 0.07,0 0.07,0.01 c 0.17,0.04 1.39,0.04 2.09,0.04 2.13,0 3.03,0 3.9,-0.28 1.57,-0.49 1.64,-1.5 1.64,-2.76 0,-0.55 0,-1.01 -0.24,-2.82 l -0.07,-0.39 c 0,-0.34 0.24,-0.52 0.59,-0.52 0.53,0 0.59,0.32 0.66,0.87 l 0.95,6.66 c 0,0.49 -0.42,0.49 -1.05,0.49 l -21.45,0 c -0.87,0 -0.94,0 -1.18,-0.73 l -2.2,-6.17 c -0.03,-0.14 -0.17,-0.46 -0.17,-0.63 0,-0.14 0.07,-0.49 0.59,-0.49 0.46,0 0.52,0.18 0.73,0.84 2.03,5.58 3.18,5.93 8.48,5.93 l 1.46,0 c 1.05,0 1.08,-0.04 1.08,-0.35 0,-0.04 0,-0.21 -0.14,-0.74 l -4.6,-18.34 c -0.32,-1.28 -0.42,-1.64 -4.08,-1.64 -1.25,0 -1.57,0 -1.57,-0.76 0,-0.11 0.07,-0.49 0.59,-0.49 l 12.07,0 c 0.28,0 0.8,0 0.8,0.77 0,0.48 -0.35,0.48 -1.43,0.48 -0.66,0 -1.36,0.04 -2.02,0.07 -1.19,0.11 -1.26,0.25 -1.26,0.67 0,0.24 0,0.31 0.14,0.8 z"
         id="path7642" /><path
         style="fill:#000000;stroke-width:0"
         d="m 925.84,396.13 4.15,1.97 c 0.45,0.22 0.53,0.25 0.53,0.5 0,0.2 -0.18,0.35 -0.35,0.4 l -4.96,-0.93 -0.57,4.54 c -0.05,0.3 -0.08,0.69 -0.45,0.69 -0.37,0 -0.45,-0.42 -0.47,-0.67 l -0.57,-4.56 -4.89,0.93 c -0.29,0 -0.42,-0.25 -0.42,-0.4 0,-0.2 0.1,-0.33 0.45,-0.5 l 4.23,-1.97 -2.24,-4.08 c -0.05,-0.08 -0.18,-0.3 -0.18,-0.43 0,-0.24 0.23,-0.4 0.4,-0.4 0.1,0 0.2,0.05 0.28,0.08 0.17,0.17 3.29,3.49 3.38,3.61 l 1.92,-2.04 0.95,-0.97 c 0.1,-0.13 0.35,-0.4 0.47,-0.5 0.08,-0.08 0.18,-0.18 0.35,-0.18 0.18,0 0.4,0.16 0.4,0.4 0,0.13 -0.13,0.35 -0.18,0.43 z"
         id="path7644" /></g>  </g>
  <g
     id="g7736"
     transform="translate(-36.217669,-6.7261377)">
    <g
       word-spacing="normal"
       letter-spacing="normal"
       font-size-adjust="none"
       font-stretch="normal"
       font-weight="normal"
       font-variant="normal"
       font-style="normal"
       stroke-miterlimit="10.433"
       xml:space="preserve"
       transform="matrix(0.28571429,0,0,-0.28571429,-50,150)"
       id="g7738"
       style="font-style:normal;font-variant:normal;font-weight:normal;font-stretch:normal;letter-spacing:normal;word-spacing:normal;text-anchor:start;fill:none;fill-opacity:1;fill-rule:evenodd;stroke:#000000;stroke-linecap:butt;stroke-linejoin:miter;stroke-miterlimit:10.43299961;stroke-dasharray:none;stroke-dashoffset:0;stroke-opacity:1"><path
         id="path7740"
         d="m 477.27,436.24 0.03,0.13 0.03,0.12 0.03,0.11 0.03,0.11 0.03,0.11 0.03,0.09 0.03,0.1 0.03,0.08 0.03,0.09 0.03,0.07 0.03,0.08 0.03,0.06 0.03,0.07 0.03,0.06 0.03,0.05 0.03,0.06 0.03,0.04 0.03,0.05 0.04,0.04 0.03,0.04 0.04,0.03 0.03,0.04 0.04,0.03 0.04,0.02 0.04,0.03 0.05,0.02 0.04,0.02 0.05,0.02 0.05,0.02 0.05,0.02 0.05,0.01 0.05,0.02 c 0.45,0.1 2.1,0.1 3.14,0.1 5.04,0 7.28,-0.2 7.28,-4.09 0,-0.74 -0.2,-2.68 -0.4,-3.98 -0.05,-0.2 -0.15,-0.8 -0.15,-0.95 0,-0.3 0.15,-0.64 0.6,-0.64 0.55,0 0.64,0.39 0.74,1.14 l 1.35,8.67 c 0.05,0.2 0.1,0.7 0.1,0.85 0,0.54 -0.5,0.54 -1.35,0.54 l -27.64,0 c -1.2,0 -1.25,-0.05 -1.6,-0.99 l -2.98,-8.77 c -0.05,-0.1 -0.3,-0.8 -0.3,-0.9 0,-0.29 0.25,-0.54 0.59,-0.54 0.5,0 0.55,0.25 0.85,1.04 2.69,7.72 3.98,8.62 11.36,8.62 l 1.94,0 c 1.4,0 1.4,-0.2 1.4,-0.6 0,-0.3 -0.16,-0.9 -0.2,-1.04 l -6.68,-26.61 c -0.45,-1.84 -0.6,-2.39 -5.93,-2.39 -1.79,0 -2.09,0 -2.09,-0.94 0,-0.6 0.55,-0.6 0.85,-0.6 1.34,0 2.74,0.1 4.08,0.1 l 8.37,0 c 1.44,0 2.94,-0.1 4.33,-0.1 0.5,0 1.1,0 1.1,1 0,0.54 -0.4,0.54 -1.69,0.54 -1.25,0 -1.89,0 -3.19,0.1 -1.45,0.15 -1.84,0.3 -1.84,1.1 0,0.05 0,0.3 0.19,1.05 z"
         style="fill:#000000;stroke-width:0" /><path
         id="path7742"
         d="m 539.22,422.29 0.14,0 0.15,0 0.15,0.01 0.07,0 0.07,0 0.07,0.01 0.08,0.01 0.07,0.01 0.07,0.01 0.06,0.02 0.07,0.01 0.07,0.02 0.06,0.02 0.06,0.03 0.06,0.03 0.05,0.03 0.06,0.03 0.05,0.04 0.04,0.04 0.05,0.05 0.03,0.05 0.02,0.03 0.02,0.02 0.02,0.03 0.01,0.03 0.02,0.03 0.01,0.04 0.01,0.03 0.01,0.04 0.01,0.03 0.01,0.04 0.01,0.04 0,0.04 0.01,0.04 0,0.04 0,0.05 0,0.05 c 0,0.99 -0.94,0.99 -1.64,0.99 l -29.84,0 c -0.7,0 -1.64,0 -1.64,-0.99 0,-1 0.94,-1 1.69,-1 z"
         style="fill:#000000;stroke-width:0" /><path
         id="path7744"
         d="m 539.27,412.62 0.13,0.01 0.14,0 0.14,0 0.07,0.01 0.07,0 0.07,0.01 0.07,0.01 0.07,0.01 0.07,0.01 0.06,0.01 0.07,0.02 0.06,0.02 0.06,0.02 0.06,0.02 0.06,0.03 0.06,0.03 0.05,0.04 0.05,0.04 0.04,0.04 0.05,0.04 0.02,0.03 0.02,0.03 0.01,0.02 0.02,0.03 0.02,0.03 0.01,0.03 0.02,0.03 0.01,0.03 0.01,0.04 0.01,0.03 0.01,0.04 0.01,0.04 0.01,0.04 0,0.04 0.01,0.04 0,0.04 0,0.05 0,0.04 c 0,1 -0.94,1 -1.69,1 l -29.74,0 c -0.75,0 -1.69,0 -1.69,-1 0,-1 0.94,-1 1.64,-1 z"
         style="fill:#000000;stroke-width:0" /><path
         id="path7746"
         d="m 602.08,446.02 0.07,0.24 0.08,0.24 0.04,0.12 0.04,0.12 0.05,0.11 0.05,0.11 0.06,0.11 0.06,0.11 0.07,0.1 0.07,0.1 0.08,0.1 0.08,0.1 0.09,0.09 0.09,0.09 0.11,0.08 0.11,0.08 0.12,0.08 0.12,0.07 0.14,0.07 0.14,0.07 0.16,0.06 0.16,0.05 0.18,0.05 0.18,0.04 0.2,0.04 0.2,0.03 0.22,0.03 0.11,0.01 0.12,0.01 0.12,0.01 0.12,0.01 0.13,0.01 0.13,0 c 0.17,0 0.69,0.03 0.69,0.77 0,0.21 -0.17,0.49 -0.52,0.49 l -7.32,0 c -0.18,0 -0.7,0 -0.7,-0.77 0,-0.46 0.46,-0.49 0.77,-0.49 1.64,-0.03 2.23,-0.56 2.23,-1.43 0,-0.28 -0.03,-0.45 -0.14,-0.84 l -3.8,-15.2 -8.86,18.13 c -0.28,0.6 -0.35,0.6 -1.18,0.6 l -4.78,0 c -0.66,0 -1.12,0 -1.12,-0.77 0,-0.49 0.42,-0.49 1.16,-0.49 0.73,0 1.49,-0.03 2.23,-0.17 l -4.67,-18.66 c -0.32,-1.32 -0.91,-2.37 -3.63,-2.48 -0.24,0 -0.73,-0.03 -0.73,-0.73 0,-0.38 0.27,-0.52 0.52,-0.52 l 7.32,0 c 0.35,0 0.7,0.18 0.7,0.73 0,0.49 -0.42,0.52 -0.8,0.52 -2.2,0.07 -2.2,0.98 -2.2,1.47 0,0.14 0,0.32 0.14,0.87 l 4.46,17.86 10.18,-20.86 c 0.28,-0.55 0.42,-0.59 0.77,-0.59 0.56,0 0.56,0.11 0.73,0.73 z"
         style="fill:#000000;stroke-width:0" /><polyline
         id="polyline7748"
         points="564,418 616.56,418 616.56,420.04 564,420.04 "
         style="fill:#000000;fill-rule:nonzero;stroke-width:0" /><path
         id="path7750"
         d="m 566.61,384.75 -0.02,-0.09 -0.02,-0.09 -0.02,-0.08 -0.02,-0.08 -0.02,-0.07 -0.02,-0.07 -0.03,-0.07 -0.02,-0.06 -0.02,-0.06 -0.03,-0.06 -0.03,-0.05 -0.03,-0.05 -0.03,-0.05 -0.03,-0.04 -0.04,-0.04 -0.04,-0.04 -0.04,-0.03 -0.05,-0.03 -0.05,-0.03 -0.05,-0.03 -0.06,-0.02 -0.07,-0.02 -0.07,-0.02 -0.07,-0.02 -0.08,-0.01 -0.05,-0.01 -0.04,-0.01 -0.04,0 -0.05,-0.01 -0.05,0 -0.05,0 -0.05,-0.01 -0.06,0 -0.05,0 -0.06,0 -0.06,-0.01 -0.06,0 -0.06,0 -0.06,0 c -0.46,0 -0.94,0 -0.94,-0.73 0,-0.38 0.31,-0.53 0.48,-0.53 l 6.66,0 c 0.32,0 0.7,0.11 0.7,0.77 0,0.49 -0.49,0.49 -0.91,0.49 -0.76,0 -1.7,0 -1.7,0.42 0,0.17 0.24,1.08 0.38,1.6 0.42,1.85 0.9,3.73 1.29,5.2 0.42,-0.7 1.5,-2.06 3.59,-2.06 l 0,0.98 c -2.48,0 -3.11,2.68 -3.11,3.03 0,0.14 0.08,0.38 0.11,0.52 l 1.75,7.01 c 2.02,2.69 3.76,3.21 4.88,3.21 1.36,0 2.54,-1.01 2.54,-3.38 0,-1.43 -0.76,-4.99 -1.81,-7.01 -0.87,-1.71 -2.58,-3.38 -4.36,-3.38 l 0,-0.98 c 4.26,0 8.96,4.71 8.96,9.9 0,4.08 -2.82,5.83 -5.23,5.83 -2.16,0 -4.01,-1.47 -4.95,-2.44 -0.59,1.99 -2.54,2.44 -3.59,2.44 -1.36,0 -2.2,-0.91 -2.75,-1.85 -0.7,-1.19 -1.26,-3.28 -1.26,-3.49 0,-0.45 0.49,-0.45 0.59,-0.45 0.49,0 0.52,0.11 0.77,1.05 0.52,2.02 1.18,3.76 2.54,3.76 0.91,0 1.16,-0.77 1.16,-1.71 0,-0.38 -0.08,-0.83 -0.11,-1.05 z"
         style="fill:#000000;stroke-width:0" /><path
         id="path7752"
         d="m 608.96,398.89 0.02,0.08 0.02,0.07 0.01,0.06 0.02,0.07 0.02,0.06 0.02,0.05 0.02,0.06 0.02,0.05 0.03,0.04 0.02,0.05 0.03,0.04 0.04,0.04 0.03,0.04 0.04,0.03 0.05,0.03 0.05,0.03 0.05,0.03 0.06,0.02 0.07,0.03 0.07,0.02 0.07,0.01 0.04,0.01 0.05,0.01 0.04,0.01 0.05,0 0.05,0.01 0.05,0.01 0.05,0 0.05,0.01 0.06,0 0.06,0.01 0.06,0 0.06,0 0.07,0.01 0.07,0 0.06,0 0.08,0.01 0.07,0 0.08,0 0.08,0 0.08,0 0.08,0 0.09,0 c 0.65,0 0.7,0 0.8,0.07 0.15,0.15 0.22,0.45 0.22,0.63 0,0.05 -0.02,0.42 -0.44,0.42 -0.53,0 -1.13,-0.07 -1.67,-0.07 l -3.67,0 c -0.57,0 -1.19,0.07 -1.74,0.07 -0.17,0 -0.62,0 -0.62,-0.7 0,-0.42 0.3,-0.42 0.92,-0.42 0.25,0 1.07,0 1.6,-0.15 0,-0.3 0,-0.35 -0.08,-0.62 l -1.42,-5.71 -9.49,0 1.37,5.48 c 0.2,0.8 0.25,1 2.14,1 0.65,0 0.7,0 0.8,0.07 0.15,0.15 0.22,0.45 0.22,0.63 0,0.05 -0.02,0.42 -0.45,0.42 -0.52,0 -1.12,-0.07 -1.66,-0.07 l -3.66,0 c -0.58,0 -1.2,0.07 -1.75,0.07 -0.17,0 -0.62,0 -0.62,-0.7 0,-0.42 0.3,-0.42 0.92,-0.42 0.25,0 1.07,0 1.59,-0.15 0,-0.3 0,-0.35 -0.07,-0.62 l -3.26,-13.05 c -0.2,-0.75 -0.23,-0.95 -2.15,-0.95 -0.62,0 -1.02,0 -1.02,-0.7 0,-0.2 0.18,-0.42 0.45,-0.42 0.53,0 1.12,0.07 1.67,0.07 l 3.69,0 c 0.57,0 1.19,-0.07 1.74,-0.07 0.15,0 0.62,0 0.62,0.7 0,0.42 -0.35,0.42 -0.82,0.42 -0.05,0 -0.65,0 -1.07,0.05 -0.62,0.05 -0.65,0.08 -0.65,0.28 0,0.05 0,0.09 0.08,0.34 l 1.62,6.5 9.49,0 -1.57,-6.22 c -0.2,-0.75 -0.25,-0.95 -2.14,-0.95 -0.63,0 -1.03,0 -1.03,-0.7 0,-0.2 0.18,-0.42 0.45,-0.42 0.53,0 1.12,0.07 1.67,0.07 l 3.69,0 c 0.57,0 1.19,-0.07 1.74,-0.07 0.15,0 0.62,0 0.62,0.7 0,0.42 -0.35,0.42 -0.82,0.42 -0.05,0 -0.64,0 -1.07,0.05 -0.62,0.05 -0.65,0.08 -0.65,0.28 0,0.05 0,0.09 0.08,0.34 z"
         style="fill:#000000;stroke-width:0" /><path
         id="path7754"
         d="m 647.7,440.02 0,0.01 0,0 0,0.01 0,0.01 0,0.01 0,0.01 0,0.02 0,0.02 -0.01,0.02 0,0.02 -0.01,0.02 0,0.02 -0.01,0.03 -0.01,0.02 -0.01,0.03 -0.01,0.02 -0.02,0.02 -0.01,0.03 -0.02,0.02 -0.02,0.03 -0.03,0.02 -0.01,0.01 -0.01,0.01 -0.01,0.01 -0.02,0.01 -0.01,0.01 -0.02,0.01 -0.01,0.01 -0.02,0.01 -0.02,0.01 -0.02,0.01 -0.01,0.01 -0.02,0 -0.03,0.01 -0.02,0.01 -0.02,0 -0.02,0.01 -0.02,0 -0.03,0.01 -0.02,0 -0.03,0 -0.03,0.01 -0.03,0 -0.03,0 -0.03,0 c -0.74,0 -5.47,-0.45 -6.32,-0.55 -0.4,-0.05 -0.7,-0.3 -0.7,-0.95 0,-0.59 0.45,-0.59 1.2,-0.59 2.39,0 2.49,-0.35 2.49,-0.85 l -0.15,-0.99 -2.99,-11.81 c -0.9,1.84 -2.34,3.19 -4.58,3.19 l 0.05,-1.1 c 3.23,0 3.93,-4.08 3.93,-4.38 0,-0.3 -0.1,-0.6 -0.15,-0.85 l -2.49,-9.76 c -0.25,-0.9 -0.25,-1 -0.99,-1.84 -2.19,-2.75 -4.24,-3.54 -5.63,-3.54 -2.49,0 -3.19,2.74 -3.19,4.68 0,2.49 1.59,8.62 2.74,10.91 1.54,2.94 3.78,4.78 5.78,4.78 l -0.05,1.1 c -5.83,0 -12.01,-7.32 -12.01,-14.6 0,-4.68 2.74,-7.97 6.63,-7.97 0.99,0 3.48,0.2 6.47,3.74 0.4,-2.09 2.14,-3.74 4.53,-3.74 1.75,0 2.9,1.15 3.69,2.74 0.85,1.79 1.5,4.83 1.5,4.93 0,0.5 -0.45,0.5 -0.6,0.5 -0.5,0 -0.55,-0.2 -0.7,-0.89 -0.85,-3.24 -1.74,-6.18 -3.78,-6.18 -1.35,0 -1.5,1.29 -1.5,2.29 0,1.2 0.1,1.54 0.3,2.39 z"
         style="fill:#000000;stroke-width:0" /><path
         id="path7756"
         d="m 658.11,440.46 0.03,0.05 0.02,0.05 0.02,0.06 0.03,0.05 0.02,0.04 0.02,0.05 0.01,0.04 0.02,0.05 0.01,0.04 0.02,0.04 0.01,0.04 0.01,0.04 0.02,0.03 0.01,0.04 0.01,0.03 0,0.04 0.01,0.03 0.01,0.03 0,0.03 0.01,0.03 0.01,0.03 0,0.03 0,0.02 0.01,0.03 0,0.05 0,0.05 0.01,0.05 0,0.04 c 0,1.09 -0.98,1.92 -2.06,1.92 -1.33,0 -1.75,-1.08 -1.92,-1.64 l -4.6,-15.1 c -0.04,-0.07 -0.18,-0.52 -0.18,-0.55 0,-0.42 1.08,-0.77 1.36,-0.77 0.25,0 0.28,0.07 0.53,0.59 z"
         style="fill:#000000;stroke-width:0" /><path
         id="path7758"
         d="m 657.21,415.15 0,0.01 0,0 0,0 0,0.01 0.01,0.01 0,0 0,0.01 0,0 0.01,0.02 0,0.02 0.01,0.02 0,0.01 0.01,0.02 0,0.03 0.01,0.02 0.01,0.02 0,0.02 0.01,0.03 0.01,0.04 0.01,0.05 0,0.03 0.01,0.02 0,0.02 0.01,0.02 0,0.02 0.01,0.02 0,0.02 0,0.01 0.01,0.01 0,0.01 0,0 0,0.01 0,0.01 0,0 0,0.01 0,0 0,0 0,0.01 0,0 0,0 c 0,0.18 -0.13,0.49 -0.56,0.49 -0.69,0 -3.58,-0.28 -4.46,-0.35 -0.28,-0.03 -0.76,-0.07 -0.76,-0.8 0,-0.49 0.48,-0.49 0.91,-0.49 1.67,0 1.67,-0.24 1.67,-0.52 0,-0.25 -0.35,-1.64 -0.56,-2.44 l -0.8,-3.21 c -0.31,-1.19 -2.23,-8.82 -2.3,-9.28 -0.18,-0.83 -0.18,-1.29 -0.18,-1.7 0,-3.53 2.23,-5.76 5.13,-5.76 l 0.03,0.98 c -1.71,0 -2.68,1.5 -2.68,3.55 0,1.29 0.31,2.48 1.29,6.42 0.21,0.66 0.21,0.73 0.87,1.5 1.33,1.53 2.89,2.3 4.15,2.3 1.36,0 2.54,-1.01 2.54,-3.38 0,-1.43 -0.76,-4.99 -1.81,-7.01 -0.84,-1.71 -2.58,-3.38 -4.36,-3.38 l 0,0 -0.03,-0.98 c 4.35,0 8.99,4.74 8.99,9.9 0,4.08 -2.82,5.83 -5.23,5.83 -1.81,0 -3.35,-1.01 -4.39,-1.92 z"
         style="fill:#000000;stroke-width:0" /><polygon
         id="polygon7760"
         points="684.87,395.54 684.87,441.37 689.7,441.37 689.7,443.36 682.88,443.36 682.88,393.55 689.7,393.55 689.7,395.54 "
         style="fill:#000000;stroke-width:0" /><path
         id="path7762"
         d="m 702.91,440.02 0,0.01 0,0 0,0.01 0,0.01 -0.01,0.01 0,0.01 0,0.02 0,0.02 0,0.02 -0.01,0.02 0,0.02 -0.01,0.02 -0.01,0.03 -0.01,0.02 -0.01,0.03 -0.01,0.02 -0.01,0.02 -0.02,0.03 -0.02,0.02 -0.02,0.03 -0.02,0.02 -0.01,0.01 -0.02,0.01 -0.01,0.01 -0.01,0.01 -0.02,0.01 -0.01,0.01 -0.02,0.01 -0.02,0.01 -0.01,0.01 -0.02,0.01 -0.02,0.01 -0.02,0 -0.02,0.01 -0.02,0.01 -0.03,0 -0.02,0.01 -0.02,0 -0.03,0.01 -0.02,0 -0.03,0 -0.03,0.01 -0.02,0 -0.03,0 -0.03,0 c -1.15,0 -4.78,-0.4 -6.08,-0.5 -0.4,-0.05 -0.95,-0.1 -0.95,-1 0,-0.59 0.45,-0.59 1.2,-0.59 2.39,0 2.49,-0.35 2.49,-0.85 0,-0.35 -0.45,-2.04 -0.7,-3.09 l -4.08,-16.24 c -0.6,-2.49 -0.8,-3.28 -0.8,-5.03 0,-4.73 2.64,-7.82 6.33,-7.82 l 0,1.1 c -1.7,0 -3.34,1.34 -3.34,5.03 0,0.95 0,1.89 0.8,5.03 l 1.09,4.58 c 0.3,1.1 0.3,1.2 0.75,1.75 2.44,3.24 4.68,3.98 5.98,3.98 1.79,0 3.14,-1.49 3.14,-4.68 0,-2.94 -1.65,-8.67 -2.54,-10.56 -1.65,-3.34 -3.94,-5.13 -5.88,-5.13 l 0,-1.1 c 5.88,0 12,7.43 12,14.6 0,4.53 -2.64,7.97 -6.62,7.97 -2.29,0 -4.33,-1.45 -5.83,-2.99 z"
         style="fill:#000000;stroke-width:0" /><path
         id="path7764"
         d="m 743.38,417.46 13.89,0 c 0.7,0 1.64,0 1.64,0.99 0,1 -0.94,1 -1.64,1 l -13.89,0 0,13.95 c 0,0.69 0,1.64 -1,1.64 -1,0 -1,-0.95 -1,-1.64 l 0,-13.95 -13.95,0 c -0.7,0 -1.64,0 -1.64,-1 0,-0.99 0.94,-0.99 1.64,-0.99 l 13.95,0 0,-13.95 c 0,-0.7 0,-1.64 1,-1.64 1,0 1,0.94 1,1.64 z"
         style="fill:#000000;stroke-width:0" /><path
         id="path7766"
         d="m 789.49,394.04 0,0.03 0,0.03 -0.01,0.01 0,0.02 0,0.01 -0.01,0.02 0,0.02 -0.01,0.01 -0.01,0.02 -0.01,0.02 -0.01,0.03 -0.01,0.02 -0.02,0.02 -0.02,0.03 -0.02,0.03 -0.02,0.03 -0.03,0.03 -0.03,0.04 -0.01,0.02 -0.02,0.02 -0.02,0.02 -0.02,0.02 -0.02,0.02 -0.02,0.03 -0.02,0.02 -0.02,0.02 -0.02,0.03 -0.03,0.02 -0.02,0.03 -0.03,0.03 -0.02,0.03 -0.03,0.03 -0.03,0.03 -0.03,0.03 -0.03,0.03 -0.03,0.03 -0.04,0.04 -0.03,0.03 -0.04,0.04 -0.03,0.03 -0.04,0.04 -0.04,0.04 c -6.23,6.28 -7.82,15.69 -7.82,23.31 0,8.67 1.9,17.34 8.02,23.57 0.65,0.59 0.65,0.69 0.65,0.84 0,0.35 -0.2,0.5 -0.5,0.5 -0.5,0 -4.98,-3.39 -7.92,-9.72 -2.54,-5.47 -3.14,-11 -3.14,-15.19 0,-3.88 0.55,-9.91 3.29,-15.54 2.99,-6.12 7.27,-9.36 7.77,-9.36 0.3,0 0.5,0.15 0.5,0.49 z"
         style="fill:#000000;stroke-width:0" /><path
         id="path7768"
         d="m 806.65,437.88 0,0.05 -0.01,0.06 0,0.05 0,0.05 0,0.05 0,0.05 0,0.04 0,0.05 0,0.04 0,0.04 0,0.04 0,0.04 0,0.04 -0.01,0.04 0,0.03 0,0.04 -0.01,0.03 0,0.03 -0.01,0.06 -0.01,0.05 -0.02,0.05 -0.01,0.05 -0.02,0.04 -0.02,0.04 -0.03,0.04 -0.03,0.03 -0.03,0.02 -0.03,0.03 -0.04,0.02 -0.05,0.02 -0.02,0.01 -0.03,0.01 -0.02,0 -0.03,0.01 -0.03,0.01 -0.03,0 -0.03,0.01 -0.03,0 -0.03,0.01 -0.04,0 -0.04,0 -0.03,0 -0.04,0.01 -0.04,0 -0.04,0 -0.05,0 -0.04,0 -0.05,0 -0.05,0.01 -0.05,0 -0.05,0 -0.05,0 c -3.09,-3.19 -7.47,-3.19 -9.07,-3.19 l 0,-1.55 c 1,0 3.94,0 6.53,1.3 l 0,-25.81 c 0,-1.79 -0.15,-2.39 -4.63,-2.39 l -1.6,0 0,-1.54 16.14,0 0,1.54 -1.59,0 c -4.49,0 -4.63,0.55 -4.63,2.39 z"
         style="fill:#000000;stroke-width:0" /><path
         id="path7770"
         d="m 860.83,417.46 0.16,0 0.16,0 0.15,0 0.08,0.01 0.08,0 0.07,0.01 0.08,0.01 0.07,0.01 0.07,0.01 0.07,0.01 0.07,0.02 0.06,0.02 0.07,0.02 0.06,0.03 0.05,0.02 0.06,0.04 0.05,0.03 0.05,0.04 0.05,0.04 0.04,0.05 0.04,0.05 0.01,0.02 0.02,0.03 0.02,0.03 0.01,0.03 0.02,0.03 0.01,0.04 0.01,0.03 0.01,0.03 0.01,0.04 0.01,0.04 0,0.04 0.01,0.04 0,0.04 0.01,0.04 0,0.05 0,0.04 c 0,1 -0.9,1 -1.74,1 l -26.95,0 c -0.85,0 -1.75,0 -1.75,-1 0,-0.99 0.9,-0.99 1.75,-0.99 z"
         style="fill:#000000;stroke-width:0" /><path
         id="path7772"
         d="m 889.91,440.02 0,0.01 0,0 0,0.01 0,0.01 -0.01,0.01 0,0.01 0,0.02 0,0.02 0,0.02 -0.01,0.02 0,0.02 -0.01,0.02 -0.01,0.03 -0.01,0.02 -0.01,0.03 -0.01,0.02 -0.01,0.02 -0.02,0.03 -0.02,0.02 -0.02,0.03 -0.02,0.02 -0.01,0.01 -0.02,0.01 -0.01,0.01 -0.01,0.01 -0.02,0.01 -0.01,0.01 -0.02,0.01 -0.02,0.01 -0.01,0.01 -0.02,0.01 -0.02,0.01 -0.02,0 -0.02,0.01 -0.02,0.01 -0.03,0 -0.02,0.01 -0.02,0 -0.03,0.01 -0.02,0 -0.03,0 -0.03,0.01 -0.02,0 -0.03,0 -0.03,0 c -1.15,0 -4.78,-0.4 -6.08,-0.5 -0.4,-0.05 -0.95,-0.1 -0.95,-1 0,-0.59 0.45,-0.59 1.2,-0.59 2.39,0 2.49,-0.35 2.49,-0.85 0,-0.35 -0.45,-2.04 -0.7,-3.09 l -4.08,-16.24 c -0.6,-2.49 -0.8,-3.28 -0.8,-5.03 0,-4.73 2.64,-7.82 6.33,-7.82 l 0,1.1 c -1.7,0 -3.34,1.34 -3.34,5.03 0,0.95 0,1.89 0.8,5.03 l 1.09,4.58 c 0.3,1.1 0.3,1.2 0.75,1.75 2.44,3.24 4.68,3.98 5.98,3.98 1.79,0 3.14,-1.49 3.14,-4.68 0,-2.94 -1.65,-8.67 -2.54,-10.56 -1.65,-3.34 -3.94,-5.13 -5.88,-5.13 l 0,-1.1 c 5.88,0 12,7.43 12,14.6 0,4.53 -2.64,7.97 -6.62,7.97 -2.29,0 -4.33,-1.45 -5.83,-2.99 z"
         style="fill:#000000;stroke-width:0" /><path
         id="path7774"
         d="m 913.4,418.45 -0.01,0.37 0,0.39 -0.01,0.39 -0.01,0.41 -0.04,0.84 -0.06,0.88 -0.09,0.92 -0.1,0.94 -0.14,0.98 -0.16,1 -0.2,1.02 -0.23,1.04 -0.27,1.05 -0.3,1.06 -0.35,1.06 -0.39,1.07 -0.22,0.53 -0.22,0.54 -0.24,0.53 -0.25,0.53 c -2.99,6.12 -7.27,9.36 -7.77,9.36 -0.3,0 -0.5,-0.2 -0.5,-0.5 0,-0.15 0,-0.25 0.94,-1.15 4.89,-4.92 7.73,-12.85 7.73,-23.26 0,-8.52 -1.85,-17.28 -8.02,-23.56 -0.65,-0.6 -0.65,-0.69 -0.65,-0.85 0,-0.29 0.2,-0.49 0.5,-0.49 0.5,0 4.98,3.38 7.92,9.71 2.54,5.48 3.14,11.01 3.14,15.19 z"
         style="fill:#000000;stroke-width:0" /><path
         id="path7776"
         d="m 943.31,419.8 0.04,0.16 0.05,0.16 0.04,0.16 0.04,0.16 0.03,0.15 0.03,0.16 0.03,0.16 0.03,0.17 0.03,0.16 0.02,0.18 0.01,0.09 0.01,0.09 0,0.1 0.01,0.1 0.01,0.1 0,0.1 0.01,0.11 0,0.1 0,0.12 0.01,0.11 0,0.12 0,0.13 c 0,3.24 -1.99,5.33 -5.73,5.33 -3.94,0 -6.53,-2.59 -7.72,-4.34 -0.25,2.84 -2.34,4.34 -4.58,4.34 -2.3,0 -3.24,-1.95 -3.69,-2.84 -0.9,-1.7 -1.54,-4.68 -1.54,-4.83 0,-0.5 0.49,-0.5 0.59,-0.5 0.5,0 0.55,0.05 0.85,1.14 0.84,3.54 1.84,5.93 3.64,5.93 0.84,0 1.54,-0.4 1.54,-2.29 0,-1.04 -0.15,-1.59 -0.8,-4.18 l -2.89,-11.51 c -0.15,-0.75 -0.45,-1.89 -0.45,-2.14 0,-0.9 0.7,-1.35 1.45,-1.35 0.6,0 1.5,0.4 1.84,1.4 0.05,0.1 0.65,2.44 0.95,3.68 l 1.1,4.49 c 0.29,1.09 0.59,2.19 0.84,3.34 0.1,0.29 0.5,1.94 0.55,2.23 0.15,0.45 1.69,3.24 3.39,4.59 1.1,0.8 2.64,1.74 4.78,1.74 2.14,0 2.69,-1.69 2.69,-3.49 0,-0.25 0,-1.14 -0.5,-3.13 l -5.68,-22.92 c -0.15,-0.59 -0.15,-0.7 -0.15,-0.79 0,-0.75 0.55,-1.35 1.4,-1.35 1.54,0 1.89,1.44 2.04,1.99 z"
         style="fill:#000000;stroke-width:0" /><polygon
         id="polygon7778"
         points="946.1,441.37 950.93,441.37 950.93,395.54 946.1,395.54 946.1,393.55 952.92,393.55 952.92,443.36 946.1,443.36 "
         style="fill:#000000;stroke-width:0" /></g>  </g>
  <g
     transform="translate(-24.317574,151.0794)"
     id="g7914">
    <g
       style="font-style:normal;font-variant:normal;font-weight:normal;font-stretch:normal;letter-spacing:normal;word-spacing:normal;text-anchor:start;fill:none;fill-opacity:1;fill-rule:evenodd;stroke:#000000;stroke-linecap:butt;stroke-linejoin:miter;stroke-miterlimit:10.43299961;stroke-dasharray:none;stroke-dashoffset:0;stroke-opacity:1"
       id="g7916"
       transform="matrix(0.28571429,0,0,-0.28571429,-50,150)"
       xml:space="preserve"
       stroke-miterlimit="10.433"
       font-style="normal"
       font-variant="normal"
       font-weight="normal"
       font-stretch="normal"
       font-size-adjust="none"
       letter-spacing="normal"
       word-spacing="normal"><path
         style="fill:#000000;stroke-width:0"
         d="m 481.7,440.02 0,0.01 0,0 0,0.01 0,0.01 0,0.01 0,0.01 0,0.02 0,0.02 -0.01,0.02 0,0.02 -0.01,0.02 0,0.02 -0.01,0.03 -0.01,0.02 -0.01,0.03 -0.01,0.02 -0.02,0.02 -0.01,0.03 -0.02,0.02 -0.02,0.03 -0.03,0.02 -0.01,0.01 -0.01,0.01 -0.01,0.01 -0.02,0.01 -0.01,0.01 -0.02,0.01 -0.01,0.01 -0.02,0.01 -0.02,0.01 -0.02,0.01 -0.01,0.01 -0.02,0 -0.03,0.01 -0.02,0.01 -0.02,0 -0.02,0.01 -0.02,0 -0.03,0.01 -0.02,0 -0.03,0 -0.03,0.01 -0.03,0 -0.03,0 -0.03,0 c -0.74,0 -5.47,-0.45 -6.32,-0.55 -0.4,-0.05 -0.7,-0.3 -0.7,-0.95 0,-0.59 0.45,-0.59 1.2,-0.59 2.39,0 2.49,-0.35 2.49,-0.85 l -0.15,-0.99 -2.99,-11.81 c -0.9,1.84 -2.34,3.19 -4.58,3.19 l 0.05,-1.1 c 3.24,0 3.93,-4.08 3.93,-4.38 0,-0.3 -0.1,-0.6 -0.15,-0.85 l -2.49,-9.76 c -0.25,-0.9 -0.25,-1 -0.99,-1.84 -2.19,-2.75 -4.24,-3.54 -5.63,-3.54 -2.49,0 -3.19,2.74 -3.19,4.68 0,2.49 1.59,8.62 2.74,10.91 1.54,2.94 3.78,4.78 5.78,4.78 l -0.05,1.1 c -5.83,0 -12.01,-7.32 -12.01,-14.6 0,-4.68 2.74,-7.97 6.63,-7.97 0.99,0 3.49,0.2 6.47,3.74 0.4,-2.09 2.14,-3.74 4.53,-3.74 1.75,0 2.9,1.15 3.69,2.74 0.85,1.79 1.5,4.83 1.5,4.93 0,0.5 -0.45,0.5 -0.6,0.5 -0.5,0 -0.55,-0.2 -0.7,-0.89 -0.85,-3.24 -1.74,-6.18 -3.78,-6.18 -1.35,0 -1.5,1.29 -1.5,2.29 0,1.2 0.1,1.54 0.3,2.39 z"
         id="path7918" /><path
         style="fill:#000000;stroke-width:0"
         d="m 491.11,440.46 0.03,0.05 0.02,0.05 0.02,0.06 0.03,0.05 0.02,0.04 0.02,0.05 0.01,0.04 0.02,0.05 0.01,0.04 0.02,0.04 0.01,0.04 0.01,0.04 0.02,0.03 0.01,0.04 0.01,0.03 0,0.04 0.01,0.03 0.01,0.03 0,0.03 0.01,0.03 0.01,0.03 0,0.03 0,0.02 0.01,0.03 0,0.05 0,0.05 0.01,0.05 0,0.04 c 0,1.09 -0.98,1.92 -2.06,1.92 -1.33,0 -1.75,-1.08 -1.92,-1.64 l -4.6,-15.1 c -0.04,-0.07 -0.18,-0.52 -0.18,-0.55 0,-0.42 1.08,-0.77 1.37,-0.77 0.24,0 0.27,0.07 0.52,0.59 z"
         id="path7920" /><path
         style="fill:#000000;stroke-width:0"
         d="m 489.2,401.04 0,0.02 0,0.01 0,0.02 0.01,0.03 0.01,0.02 0,0.03 0.01,0.04 0.01,0.04 0.01,0.04 0.01,0.04 0.01,0.05 0.02,0.05 0.01,0.05 0.01,0.06 0.03,0.12 0.03,0.12 0.04,0.14 0.03,0.14 0.04,0.14 0.04,0.15 0.04,0.16 0.08,0.31 0.07,0.31 0.04,0.15 0.04,0.15 0.04,0.14 0.04,0.14 0.03,0.14 0.04,0.12 0.03,0.12 0.01,0.05 0.01,0.05 0.02,0.05 0.01,0.05 0.01,0.04 0.01,0.04 0.01,0.04 0.01,0.03 0.01,0.03 0.01,0.03 0.01,0.02 0,0.02 0.01,0.02 0,0.01 c 0.07,0.27 1.08,2.02 2.2,2.86 0.38,0.27 1.32,0.97 2.82,0.97 0.35,0 1.22,-0.03 1.92,-0.49 -1.11,-0.31 -1.54,-1.29 -1.54,-1.91 0,-0.77 0.6,-1.3 1.4,-1.3 0.8,0 1.95,0.67 1.95,2.13 0,1.81 -1.92,2.55 -3.69,2.55 -1.82,0 -3.39,-0.74 -4.92,-2.48 -0.63,2.13 -2.76,2.48 -3.59,2.48 -1.29,0 -2.16,-0.81 -2.72,-1.78 -0.8,-1.36 -1.29,-3.39 -1.29,-3.56 0,-0.45 0.49,-0.45 0.59,-0.45 0.49,0 0.52,0.11 0.77,1.05 0.52,2.12 1.18,3.76 2.54,3.76 0.91,0 1.16,-0.77 1.16,-1.71 0,-0.66 -0.32,-1.95 -0.56,-2.89 -0.25,-0.94 -0.6,-2.37 -0.77,-3.14 l -1.12,-4.46 c -0.14,-0.46 -0.34,-1.33 -0.34,-1.43 0,-0.77 0.62,-1.12 1.18,-1.12 0.52,0 1.22,0.31 1.5,1.01 0.07,0.21 0.45,1.75 0.66,2.62 z"
         id="path7922" /><path
         style="fill:#000000;stroke-width:0"
         d="m 547.83,417.46 0.16,0 0.16,0 0.15,0 0.08,0.01 0.08,0 0.07,0.01 0.08,0.01 0.07,0.01 0.07,0.01 0.07,0.01 0.07,0.02 0.06,0.02 0.07,0.02 0.06,0.03 0.05,0.02 0.06,0.04 0.05,0.03 0.05,0.04 0.05,0.04 0.04,0.05 0.04,0.05 0.01,0.02 0.02,0.03 0.02,0.03 0.01,0.03 0.02,0.03 0.01,0.04 0.01,0.03 0.01,0.03 0.01,0.04 0.01,0.04 0,0.04 0.01,0.04 0,0.04 0.01,0.04 0,0.05 0,0.04 c 0,1 -0.9,1 -1.74,1 l -26.95,0 c -0.85,0 -1.75,0 -1.75,-1 0,-0.99 0.9,-0.99 1.75,-0.99 z"
         id="path7924" /><path
         style="fill:#000000;stroke-width:0"
         d="m 589.7,440.02 0,0.01 0,0 0,0.01 0,0.01 0,0.01 0,0.01 0,0.02 0,0.02 -0.01,0.02 0,0.02 -0.01,0.02 0,0.02 -0.01,0.03 -0.01,0.02 -0.01,0.03 -0.01,0.02 -0.02,0.02 -0.01,0.03 -0.02,0.02 -0.02,0.03 -0.03,0.02 -0.01,0.01 -0.01,0.01 -0.01,0.01 -0.02,0.01 -0.01,0.01 -0.02,0.01 -0.01,0.01 -0.02,0.01 -0.02,0.01 -0.02,0.01 -0.01,0.01 -0.02,0 -0.03,0.01 -0.02,0.01 -0.02,0 -0.02,0.01 -0.02,0 -0.03,0.01 -0.02,0 -0.03,0 -0.03,0.01 -0.03,0 -0.03,0 -0.03,0 c -0.74,0 -5.47,-0.45 -6.32,-0.55 -0.4,-0.05 -0.7,-0.3 -0.7,-0.95 0,-0.59 0.45,-0.59 1.2,-0.59 2.39,0 2.49,-0.35 2.49,-0.85 l -0.15,-0.99 -2.99,-11.81 c -0.9,1.84 -2.34,3.19 -4.58,3.19 l 0.05,-1.1 c 3.23,0 3.93,-4.08 3.93,-4.38 0,-0.3 -0.1,-0.6 -0.15,-0.85 l -2.49,-9.76 c -0.25,-0.9 -0.25,-1 -0.99,-1.84 -2.19,-2.75 -4.24,-3.54 -5.63,-3.54 -2.49,0 -3.19,2.74 -3.19,4.68 0,2.49 1.59,8.62 2.74,10.91 1.54,2.94 3.78,4.78 5.78,4.78 l -0.05,1.1 c -5.83,0 -12.01,-7.32 -12.01,-14.6 0,-4.68 2.74,-7.97 6.63,-7.97 0.99,0 3.48,0.2 6.47,3.74 0.4,-2.09 2.14,-3.74 4.53,-3.74 1.75,0 2.9,1.15 3.69,2.74 0.85,1.79 1.5,4.83 1.5,4.93 0,0.5 -0.45,0.5 -0.6,0.5 -0.5,0 -0.55,-0.2 -0.7,-0.89 -0.85,-3.24 -1.74,-6.18 -3.78,-6.18 -1.35,0 -1.5,1.29 -1.5,2.29 0,1.2 0.1,1.54 0.3,2.39 z"
         id="path7926" /><path
         style="fill:#000000;stroke-width:0"
         d="m 598.2,406.04 0,0.02 0,0.01 0,0.02 0.01,0.03 0.01,0.02 0,0.03 0.01,0.04 0.01,0.04 0.01,0.04 0.01,0.04 0.01,0.05 0.02,0.05 0.01,0.05 0.01,0.06 0.03,0.12 0.03,0.12 0.04,0.14 0.03,0.14 0.04,0.14 0.04,0.15 0.04,0.16 0.07,0.31 0.08,0.31 0.04,0.15 0.04,0.15 0.04,0.14 0.04,0.14 0.03,0.14 0.04,0.12 0.03,0.12 0.01,0.05 0.01,0.05 0.02,0.05 0.01,0.05 0.01,0.04 0.01,0.04 0.01,0.04 0.01,0.03 0.01,0.03 0.01,0.03 0.01,0.02 0,0.02 0.01,0.02 0,0.01 c 0.07,0.27 1.08,2.02 2.2,2.86 0.38,0.27 1.32,0.97 2.82,0.97 0.35,0 1.22,-0.03 1.92,-0.49 -1.11,-0.31 -1.54,-1.29 -1.54,-1.91 0,-0.77 0.6,-1.3 1.4,-1.3 0.8,0 1.95,0.67 1.95,2.13 0,1.81 -1.92,2.55 -3.69,2.55 -1.82,0 -3.39,-0.74 -4.92,-2.48 -0.63,2.13 -2.76,2.48 -3.59,2.48 -1.29,0 -2.16,-0.81 -2.72,-1.78 -0.8,-1.36 -1.29,-3.39 -1.29,-3.56 0,-0.45 0.49,-0.45 0.59,-0.45 0.49,0 0.52,0.11 0.77,1.05 0.52,2.12 1.18,3.76 2.54,3.76 0.91,0 1.16,-0.77 1.16,-1.71 0,-0.66 -0.32,-1.95 -0.56,-2.89 -0.24,-0.94 -0.6,-2.37 -0.77,-3.14 l -1.12,-4.46 c -0.14,-0.46 -0.34,-1.33 -0.34,-1.43 0,-0.77 0.62,-1.12 1.18,-1.12 0.52,0 1.22,0.31 1.5,1.01 0.07,0.21 0.45,1.75 0.66,2.62 z"
         id="path7928" /><path
         style="fill:#000000;stroke-width:0"
         d="m 660.22,422.29 0.14,0 0.15,0 0.15,0.01 0.07,0 0.07,0 0.07,0.01 0.08,0.01 0.07,0.01 0.07,0.01 0.06,0.02 0.07,0.01 0.07,0.02 0.06,0.02 0.06,0.03 0.06,0.03 0.05,0.03 0.06,0.03 0.05,0.04 0.04,0.04 0.05,0.05 0.03,0.05 0.02,0.03 0.02,0.02 0.02,0.03 0.01,0.03 0.02,0.03 0.01,0.04 0.01,0.03 0.01,0.04 0.01,0.03 0.01,0.04 0.01,0.04 0,0.04 0.01,0.04 0,0.04 0,0.05 0,0.05 c 0,0.99 -0.94,0.99 -1.64,0.99 l -29.84,0 c -0.7,0 -1.64,0 -1.64,-0.99 0,-1 0.94,-1 1.69,-1 z"
         id="path7930" /><path
         style="fill:#000000;stroke-width:0"
         d="m 660.27,412.62 0.13,0.01 0.14,0 0.14,0 0.07,0.01 0.07,0 0.07,0.01 0.07,0.01 0.07,0.01 0.07,0.01 0.06,0.01 0.07,0.02 0.06,0.02 0.06,0.02 0.06,0.02 0.06,0.03 0.06,0.03 0.05,0.04 0.05,0.04 0.04,0.04 0.05,0.04 0.02,0.03 0.02,0.03 0.01,0.02 0.02,0.03 0.02,0.03 0.01,0.03 0.02,0.03 0.01,0.03 0.01,0.04 0.01,0.03 0.01,0.04 0.01,0.04 0.01,0.04 0,0.04 0.01,0.04 0,0.04 0,0.05 0,0.04 c 0,1 -0.94,1 -1.69,1 l -29.74,0 c -0.75,0 -1.69,0 -1.69,-1 0,-1 0.94,-1 1.64,-1 z"
         id="path7932" /><path
         style="fill:#000000;stroke-width:0"
         d="m 703.31,419.8 0.04,0.16 0.05,0.16 0.04,0.16 0.04,0.16 0.03,0.15 0.03,0.16 0.03,0.16 0.03,0.17 0.03,0.16 0.02,0.18 0.01,0.09 0.01,0.09 0,0.1 0.01,0.1 0.01,0.1 0,0.1 0.01,0.11 0,0.1 0,0.12 0.01,0.11 0,0.12 0,0.13 c 0,3.24 -1.99,5.33 -5.73,5.33 -3.94,0 -6.53,-2.59 -7.72,-4.34 -0.25,2.84 -2.34,4.34 -4.58,4.34 -2.3,0 -3.24,-1.95 -3.69,-2.84 -0.9,-1.7 -1.54,-4.68 -1.54,-4.83 0,-0.5 0.49,-0.5 0.59,-0.5 0.5,0 0.55,0.05 0.85,1.14 0.84,3.54 1.84,5.93 3.64,5.93 0.84,0 1.54,-0.4 1.54,-2.29 0,-1.04 -0.15,-1.59 -0.8,-4.18 l -2.89,-11.51 c -0.15,-0.75 -0.45,-1.89 -0.45,-2.14 0,-0.9 0.7,-1.35 1.45,-1.35 0.6,0 1.5,0.4 1.84,1.4 0.05,0.1 0.65,2.44 0.95,3.68 l 1.1,4.49 c 0.29,1.09 0.59,2.19 0.84,3.34 0.1,0.29 0.5,1.94 0.55,2.23 0.15,0.45 1.69,3.24 3.39,4.59 1.1,0.8 2.64,1.74 4.78,1.74 2.14,0 2.69,-1.69 2.69,-3.49 0,-0.25 0,-1.14 -0.5,-3.13 l -5.68,-22.92 c -0.15,-0.59 -0.15,-0.7 -0.15,-0.79 0,-0.75 0.55,-1.35 1.4,-1.35 1.54,0 1.89,1.44 2.04,1.99 z"
         id="path7934" /><path
         style="fill:#000000;stroke-width:0"
         d="m 730.7,440.02 0,0.01 0,0 0,0.01 0,0.01 0,0.01 0,0.01 0,0.02 0,0.02 -0.01,0.02 0,0.02 -0.01,0.02 0,0.02 -0.01,0.03 -0.01,0.02 -0.01,0.03 -0.01,0.02 -0.02,0.02 -0.01,0.03 -0.02,0.02 -0.02,0.03 -0.03,0.02 -0.01,0.01 -0.01,0.01 -0.01,0.01 -0.02,0.01 -0.01,0.01 -0.02,0.01 -0.01,0.01 -0.02,0.01 -0.02,0.01 -0.02,0.01 -0.01,0.01 -0.02,0 -0.03,0.01 -0.02,0.01 -0.02,0 -0.02,0.01 -0.02,0 -0.03,0.01 -0.02,0 -0.03,0 -0.03,0.01 -0.03,0 -0.03,0 -0.03,0 c -0.74,0 -5.47,-0.45 -6.32,-0.55 -0.4,-0.05 -0.7,-0.3 -0.7,-0.95 0,-0.59 0.45,-0.59 1.2,-0.59 2.39,0 2.49,-0.35 2.49,-0.85 l -0.15,-0.99 -2.99,-11.81 c -0.9,1.84 -2.34,3.19 -4.58,3.19 l 0.05,-1.1 c 3.23,0 3.93,-4.08 3.93,-4.38 0,-0.3 -0.1,-0.6 -0.15,-0.85 l -2.49,-9.76 c -0.25,-0.9 -0.25,-1 -0.99,-1.84 -2.19,-2.75 -4.24,-3.54 -5.63,-3.54 -2.49,0 -3.19,2.74 -3.19,4.68 0,2.49 1.59,8.62 2.74,10.91 1.54,2.94 3.78,4.78 5.78,4.78 l -0.05,1.1 c -5.83,0 -12.01,-7.32 -12.01,-14.6 0,-4.68 2.74,-7.97 6.63,-7.97 0.99,0 3.48,0.2 6.47,3.74 0.4,-2.09 2.14,-3.74 4.53,-3.74 1.75,0 2.9,1.15 3.69,2.74 0.85,1.79 1.5,4.83 1.5,4.93 0,0.5 -0.45,0.5 -0.6,0.5 -0.5,0 -0.55,-0.2 -0.7,-0.89 -0.85,-3.24 -1.74,-6.18 -3.78,-6.18 -1.35,0 -1.5,1.29 -1.5,2.29 0,1.2 0.1,1.54 0.3,2.39 z"
         id="path7936" /><path
         style="fill:#000000;stroke-width:0"
         d="m 741.11,440.46 0.03,0.05 0.02,0.05 0.02,0.06 0.03,0.05 0.02,0.04 0.02,0.05 0.01,0.04 0.02,0.05 0.01,0.04 0.02,0.04 0.01,0.04 0.01,0.04 0.02,0.03 0.01,0.04 0.01,0.03 0,0.04 0.01,0.03 0.01,0.03 0,0.03 0.01,0.03 0.01,0.03 0,0.03 0,0.02 0.01,0.03 0,0.05 0,0.05 0.01,0.05 0,0.04 c 0,1.09 -0.98,1.92 -2.06,1.92 -1.33,0 -1.75,-1.08 -1.92,-1.64 l -4.6,-15.1 c -0.04,-0.07 -0.18,-0.52 -0.18,-0.55 0,-0.42 1.08,-0.77 1.36,-0.77 0.25,0 0.28,0.07 0.53,0.59 z"
         id="path7938" /><path
         style="fill:#000000;stroke-width:0"
         d="m 740.21,415.15 0,0.01 0,0 0,0 0,0.01 0.01,0.01 0,0 0,0.01 0,0 0.01,0.02 0,0.02 0.01,0.02 0,0.01 0.01,0.02 0,0.03 0.01,0.02 0.01,0.02 0,0.02 0.01,0.03 0.01,0.04 0.01,0.05 0,0.03 0.01,0.02 0,0.02 0.01,0.02 0,0.02 0.01,0.02 0,0.02 0,0.01 0.01,0.01 0,0.01 0,0 0,0.01 0,0.01 0,0 0,0.01 0,0 0,0 0,0.01 0,0 0,0 c 0,0.18 -0.13,0.49 -0.56,0.49 -0.69,0 -3.58,-0.28 -4.46,-0.35 -0.28,-0.03 -0.76,-0.07 -0.76,-0.8 0,-0.49 0.48,-0.49 0.91,-0.49 1.67,0 1.67,-0.24 1.67,-0.52 0,-0.25 -0.35,-1.64 -0.56,-2.44 l -0.8,-3.21 c -0.31,-1.19 -2.23,-8.82 -2.3,-9.28 -0.18,-0.83 -0.18,-1.29 -0.18,-1.7 0,-3.53 2.23,-5.76 5.13,-5.76 l 0.03,0.98 c -1.71,0 -2.68,1.5 -2.68,3.55 0,1.29 0.31,2.48 1.29,6.42 0.21,0.66 0.21,0.73 0.87,1.5 1.33,1.53 2.89,2.3 4.15,2.3 1.36,0 2.54,-1.01 2.54,-3.38 0,-1.43 -0.76,-4.99 -1.81,-7.01 -0.84,-1.71 -2.58,-3.38 -4.36,-3.38 l 0,0 -0.03,-0.98 c 4.35,0 8.99,4.74 8.99,9.9 0,4.08 -2.82,5.83 -5.23,5.83 -1.81,0 -3.35,-1.01 -4.39,-1.92 z"
         id="path7940" /><path
         style="fill:#000000;stroke-width:0"
         d="m 794.83,417.46 0.16,0 0.16,0 0.15,0 0.08,0.01 0.08,0 0.07,0.01 0.08,0.01 0.07,0.01 0.07,0.01 0.07,0.01 0.07,0.02 0.06,0.02 0.07,0.02 0.06,0.03 0.05,0.02 0.06,0.04 0.05,0.03 0.05,0.04 0.05,0.04 0.04,0.05 0.04,0.05 0.01,0.02 0.02,0.03 0.02,0.03 0.01,0.03 0.02,0.03 0.01,0.04 0.01,0.03 0.01,0.03 0.01,0.04 0.01,0.04 0,0.04 0.01,0.04 0,0.04 0.01,0.04 0,0.05 0,0.04 c 0,1 -0.9,1 -1.74,1 l -26.95,0 c -0.85,0 -1.75,0 -1.75,-1 0,-0.99 0.9,-0.99 1.75,-0.99 z"
         id="path7942" /><path
         style="fill:#000000;stroke-width:0"
         d="m 836.31,419.8 0.04,0.16 0.05,0.16 0.04,0.16 0.04,0.16 0.03,0.15 0.03,0.16 0.03,0.16 0.03,0.17 0.03,0.16 0.02,0.18 0.01,0.09 0.01,0.09 0,0.1 0.01,0.1 0.01,0.1 0,0.1 0.01,0.11 0,0.1 0,0.12 0.01,0.11 0,0.12 0,0.13 c 0,3.24 -1.99,5.33 -5.73,5.33 -3.94,0 -6.53,-2.59 -7.72,-4.34 -0.25,2.84 -2.34,4.34 -4.58,4.34 -2.3,0 -3.24,-1.95 -3.69,-2.84 -0.9,-1.7 -1.54,-4.68 -1.54,-4.83 0,-0.5 0.49,-0.5 0.59,-0.5 0.5,0 0.55,0.05 0.85,1.14 0.84,3.54 1.84,5.93 3.64,5.93 0.84,0 1.54,-0.4 1.54,-2.29 0,-1.04 -0.15,-1.59 -0.8,-4.18 l -2.89,-11.51 c -0.15,-0.75 -0.45,-1.89 -0.45,-2.14 0,-0.9 0.7,-1.35 1.45,-1.35 0.6,0 1.5,0.4 1.84,1.4 0.05,0.1 0.65,2.44 0.95,3.68 l 1.1,4.49 c 0.29,1.09 0.59,2.19 0.84,3.34 0.1,0.29 0.5,1.94 0.55,2.23 0.15,0.45 1.69,3.24 3.39,4.59 1.1,0.8 2.64,1.74 4.78,1.74 2.14,0 2.69,-1.69 2.69,-3.49 0,-0.25 0,-1.14 -0.5,-3.13 l -5.68,-22.92 c -0.15,-0.59 -0.15,-0.7 -0.15,-0.79 0,-0.75 0.55,-1.35 1.4,-1.35 1.54,0 1.89,1.44 2.04,1.99 z"
         id="path7944" /><path
         style="fill:#000000;stroke-width:0"
         d="m 857.3,434.01 0.03,0.01 0.03,0.01 0.03,0.02 0.03,0.01 0.02,0.01 0.03,0.01 0.02,0.02 0.02,0.01 0.02,0.01 0.03,0.01 0.02,0.01 0.02,0.02 0.02,0.01 0.01,0.01 0.02,0.01 0.02,0.01 0.01,0.01 0.02,0.02 0.02,0.01 0.01,0.01 0.03,0.02 0.02,0.02 0.02,0.02 0.02,0.02 0.02,0.02 0.02,0.02 0.01,0.02 0.01,0.02 0.01,0.02 0.01,0.02 0.01,0.02 0,0.01 0.01,0.02 0,0.02 0.01,0.01 0,0.02 0,0.02 0,0.01 0,0.03 0,0.03 c 0,0.31 -0.31,0.45 -0.48,0.45 -0.18,0 -5.97,-1.12 -6.91,-1.33 l -0.8,6.45 c -0.07,0.49 -0.14,0.91 -0.56,0.91 -0.35,0 -0.48,-0.31 -0.56,-0.87 l -0.77,-6.49 -6.41,1.26 c -0.42,0.07 -0.49,0.07 -0.52,0.07 -0.18,0 -0.49,-0.14 -0.49,-0.45 0,-0.14 0.07,-0.25 0.17,-0.39 0.14,-0.1 5.65,-2.65 6.42,-3 l -3.17,-5.79 c -0.25,-0.41 -0.25,-0.48 -0.25,-0.55 0,-0.25 0.21,-0.49 0.45,-0.49 0.32,0 1.05,0.83 2.41,2.37 0.87,0.98 1.81,1.92 2.72,2.86 1.71,-1.74 4.19,-4.5 4.6,-4.88 0.28,-0.28 0.32,-0.35 0.53,-0.35 0.24,0 0.45,0.24 0.45,0.49 0,0.14 -0.42,0.9 -0.66,1.36 l -2.76,4.95 z"
         id="path7946" /><path
         style="fill:#000000;stroke-width:0"
         d="m 887.7,440.02 0,0.01 0,0 0,0.01 0,0.01 0,0.01 0,0.01 0,0.02 0,0.02 -0.01,0.02 0,0.02 -0.01,0.02 0,0.02 -0.01,0.03 -0.01,0.02 -0.01,0.03 -0.01,0.02 -0.02,0.02 -0.01,0.03 -0.02,0.02 -0.02,0.03 -0.03,0.02 -0.01,0.01 -0.01,0.01 -0.01,0.01 -0.02,0.01 -0.01,0.01 -0.02,0.01 -0.01,0.01 -0.02,0.01 -0.02,0.01 -0.02,0.01 -0.01,0.01 -0.02,0 -0.03,0.01 -0.02,0.01 -0.02,0 -0.02,0.01 -0.02,0 -0.03,0.01 -0.02,0 -0.03,0 -0.03,0.01 -0.03,0 -0.03,0 -0.03,0 c -0.74,0 -5.47,-0.45 -6.32,-0.55 -0.4,-0.05 -0.7,-0.3 -0.7,-0.95 0,-0.59 0.45,-0.59 1.2,-0.59 2.39,0 2.49,-0.35 2.49,-0.85 l -0.15,-0.99 -2.99,-11.81 c -0.9,1.84 -2.34,3.19 -4.58,3.19 l 0.05,-1.1 c 3.23,0 3.93,-4.08 3.93,-4.38 0,-0.3 -0.1,-0.6 -0.15,-0.85 l -2.49,-9.76 c -0.25,-0.9 -0.25,-1 -0.99,-1.84 -2.19,-2.75 -4.24,-3.54 -5.63,-3.54 -2.49,0 -3.19,2.74 -3.19,4.68 0,2.49 1.59,8.62 2.74,10.91 1.54,2.94 3.78,4.78 5.78,4.78 l -0.05,1.1 c -5.83,0 -12.01,-7.32 -12.01,-14.6 0,-4.68 2.74,-7.97 6.63,-7.97 0.99,0 3.48,0.2 6.47,3.74 0.4,-2.09 2.14,-3.74 4.53,-3.74 1.75,0 2.9,1.15 3.69,2.74 0.85,1.79 1.5,4.83 1.5,4.93 0,0.5 -0.45,0.5 -0.6,0.5 -0.5,0 -0.55,-0.2 -0.7,-0.89 -0.85,-3.24 -1.74,-6.18 -3.78,-6.18 -1.35,0 -1.5,1.29 -1.5,2.29 0,1.2 0.1,1.54 0.3,2.39 z"
         id="path7948" /><path
         style="fill:#000000;stroke-width:0"
         d="m 897.21,422.15 0,0.01 0,0 0,0 0,0.01 0.01,0.01 0,0 0,0.01 0,0 0.01,0.02 0,0.02 0.01,0.02 0,0.01 0.01,0.02 0,0.03 0.01,0.02 0.01,0.02 0,0.02 0.01,0.03 0.01,0.04 0.01,0.05 0,0.03 0.01,0.02 0,0.02 0.01,0.02 0,0.02 0.01,0.02 0,0.02 0,0.01 0.01,0.01 0,0.01 0,0 0,0.01 0,0.01 0,0 0,0.01 0,0 0,0 0,0.01 0,0 0,0 c 0,0.18 -0.13,0.49 -0.56,0.49 -0.69,0 -3.58,-0.28 -4.46,-0.35 -0.28,-0.03 -0.76,-0.07 -0.76,-0.8 0,-0.49 0.48,-0.49 0.91,-0.49 1.67,0 1.67,-0.24 1.67,-0.52 0,-0.25 -0.35,-1.64 -0.56,-2.44 l -0.8,-3.21 c -0.31,-1.19 -2.23,-8.82 -2.3,-9.28 -0.18,-0.83 -0.18,-1.29 -0.18,-1.7 0,-3.53 2.23,-5.76 5.13,-5.76 l 0.03,0.98 c -1.71,0 -2.68,1.5 -2.68,3.55 0,1.29 0.31,2.48 1.29,6.42 0.21,0.66 0.21,0.73 0.87,1.5 1.33,1.53 2.89,2.3 4.15,2.3 1.36,0 2.54,-1.01 2.54,-3.38 0,-1.43 -0.76,-4.99 -1.81,-7.01 -0.84,-1.71 -2.58,-3.38 -4.36,-3.38 l 0,0 -0.03,-0.98 c 4.35,0 8.99,4.74 8.99,9.9 0,4.08 -2.82,5.83 -5.23,5.83 -1.81,0 -3.35,-1.01 -4.39,-1.92 z"
         id="path7950" /></g>  </g>
  <g
     id="g8124"
     transform="translate(11.382697,27.939342)">
    <g
       word-spacing="normal"
       letter-spacing="normal"
       font-size-adjust="none"
       font-stretch="normal"
       font-weight="normal"
       font-variant="normal"
       font-style="normal"
       stroke-miterlimit="10.433"
       xml:space="preserve"
       transform="matrix(0.28571429,0,0,-0.28571429,-50,150)"
       id="g8126"
       style="font-style:normal;font-variant:normal;font-weight:normal;font-stretch:normal;letter-spacing:normal;word-spacing:normal;text-anchor:start;fill:none;fill-opacity:1;fill-rule:evenodd;stroke:#000000;stroke-linecap:butt;stroke-linejoin:miter;stroke-miterlimit:10.43299961;stroke-dasharray:none;stroke-dashoffset:0;stroke-opacity:1"><path
         id="path8128"
         d="m 480.31,419.8 0.04,0.16 0.05,0.16 0.04,0.16 0.04,0.16 0.03,0.15 0.03,0.16 0.03,0.16 0.03,0.17 0.03,0.16 0.02,0.18 0.01,0.09 0.01,0.09 0,0.1 0.01,0.1 0.01,0.1 0,0.1 0.01,0.11 0,0.1 0,0.12 0.01,0.11 0,0.12 0,0.13 c 0,3.24 -2,5.33 -5.73,5.33 -3.94,0 -6.53,-2.59 -7.72,-4.34 -0.25,2.84 -2.34,4.34 -4.58,4.34 -2.3,0 -3.24,-1.95 -3.69,-2.84 -0.9,-1.7 -1.54,-4.68 -1.54,-4.83 0,-0.5 0.49,-0.5 0.59,-0.5 0.5,0 0.55,0.05 0.85,1.14 0.84,3.54 1.84,5.93 3.64,5.93 0.84,0 1.54,-0.4 1.54,-2.29 0,-1.04 -0.15,-1.59 -0.8,-4.18 l -2.89,-11.51 c -0.15,-0.75 -0.45,-1.89 -0.45,-2.14 0,-0.9 0.7,-1.35 1.45,-1.35 0.6,0 1.5,0.4 1.84,1.4 0.05,0.1 0.65,2.44 0.95,3.68 l 1.1,4.49 c 0.29,1.09 0.59,2.19 0.84,3.34 0.1,0.29 0.5,1.94 0.55,2.23 0.15,0.45 1.7,3.24 3.39,4.59 1.09,0.8 2.64,1.74 4.78,1.74 2.14,0 2.69,-1.69 2.69,-3.49 0,-0.25 0,-1.14 -0.5,-3.13 l -5.68,-22.92 c -0.15,-0.59 -0.15,-0.7 -0.15,-0.79 0,-0.75 0.55,-1.35 1.4,-1.35 1.54,0 1.89,1.44 2.04,1.99 z"
         style="fill:#000000;stroke-width:0" /><path
         id="path8130"
         d="m 500.3,434.01 0.03,0.01 0.03,0.01 0.03,0.02 0.03,0.01 0.02,0.01 0.03,0.01 0.02,0.02 0.02,0.01 0.02,0.01 0.03,0.01 0.02,0.01 0.02,0.02 0.02,0.01 0.01,0.01 0.02,0.01 0.02,0.01 0.01,0.01 0.02,0.02 0.02,0.01 0.01,0.01 0.03,0.02 0.02,0.02 0.02,0.02 0.02,0.02 0.02,0.02 0.02,0.02 0.01,0.02 0.01,0.02 0.01,0.02 0.01,0.02 0.01,0.02 0,0.01 0.01,0.02 0,0.02 0.01,0.01 0,0.02 0,0.02 0,0.01 0,0.03 0,0.03 c 0,0.31 -0.31,0.45 -0.48,0.45 -0.18,0 -5.97,-1.12 -6.91,-1.33 l -0.8,6.45 c -0.07,0.49 -0.14,0.91 -0.56,0.91 -0.35,0 -0.48,-0.31 -0.56,-0.87 l -0.76,-6.49 -6.42,1.26 c -0.42,0.07 -0.49,0.07 -0.52,0.07 -0.18,0 -0.49,-0.14 -0.49,-0.45 0,-0.14 0.07,-0.25 0.18,-0.39 0.13,-0.1 5.64,-2.65 6.41,-3 l -3.17,-5.79 c -0.25,-0.41 -0.25,-0.48 -0.25,-0.55 0,-0.25 0.21,-0.49 0.45,-0.49 0.32,0 1.05,0.83 2.41,2.37 0.87,0.98 1.81,1.92 2.72,2.86 1.71,-1.74 4.19,-4.5 4.61,-4.88 0.27,-0.28 0.31,-0.35 0.52,-0.35 0.24,0 0.45,0.24 0.45,0.49 0,0.14 -0.42,0.9 -0.66,1.36 l -2.76,4.95 z"
         style="fill:#000000;stroke-width:0" /><path
         id="path8132"
         d="m 553.22,422.29 0.14,0 0.15,0 0.15,0.01 0.07,0 0.07,0 0.07,0.01 0.08,0.01 0.07,0.01 0.07,0.01 0.06,0.02 0.07,0.01 0.07,0.02 0.06,0.02 0.06,0.03 0.06,0.03 0.05,0.03 0.06,0.03 0.05,0.04 0.04,0.04 0.05,0.05 0.03,0.05 0.02,0.03 0.02,0.02 0.02,0.03 0.01,0.03 0.02,0.03 0.01,0.04 0.01,0.03 0.01,0.04 0.01,0.03 0.01,0.04 0.01,0.04 0,0.04 0.01,0.04 0,0.04 0,0.05 0,0.05 c 0,0.99 -0.94,0.99 -1.64,0.99 l -29.84,0 c -0.7,0 -1.64,0 -1.64,-0.99 0,-1 0.94,-1 1.69,-1 z"
         style="fill:#000000;stroke-width:0" /><path
         id="path8134"
         d="m 553.27,412.62 0.13,0.01 0.14,0 0.14,0 0.07,0.01 0.07,0 0.07,0.01 0.07,0.01 0.07,0.01 0.07,0.01 0.06,0.01 0.07,0.02 0.06,0.02 0.06,0.02 0.06,0.02 0.06,0.03 0.06,0.03 0.05,0.04 0.05,0.04 0.04,0.04 0.05,0.04 0.02,0.03 0.02,0.03 0.01,0.02 0.02,0.03 0.02,0.03 0.01,0.03 0.02,0.03 0.01,0.03 0.01,0.04 0.01,0.03 0.01,0.04 0.01,0.04 0.01,0.04 0,0.04 0.01,0.04 0,0.04 0,0.05 0,0.04 c 0,1 -0.94,1 -1.69,1 l -29.74,0 c -0.75,0 -1.69,0 -1.69,-1 0,-1 0.94,-1 1.64,-1 z"
         style="fill:#000000;stroke-width:0" /><path
         id="path8136"
         d="m 596.91,454.15 0,0.01 0,0 0.01,0 0,0.01 0,0.01 0,0 0,0.01 0.01,0 0,0.02 0.01,0.02 0,0.02 0.01,0.01 0,0.02 0.01,0.03 0,0.02 0.01,0.02 0.01,0.02 0,0.03 0.01,0.04 0.01,0.05 0.01,0.03 0.01,0.02 0,0.02 0.01,0.02 0,0.02 0,0.02 0.01,0.02 0,0.01 0,0.01 0,0.01 0.01,0 0,0.01 0,0.01 0,0 0,0.01 0,0 0,0 0,0.01 0,0 0,0 c 0,0.18 -0.14,0.49 -0.56,0.49 -0.7,0 -3.59,-0.28 -4.46,-0.35 -0.28,-0.03 -0.77,-0.07 -0.77,-0.8 0,-0.49 0.49,-0.49 0.91,-0.49 1.67,0 1.67,-0.24 1.67,-0.52 0,-0.25 -0.07,-0.46 -0.14,-0.77 l -1.98,-7.95 c -0.74,1.15 -1.92,2.06 -3.6,2.06 l 0,-0.98 c 2.44,0 3.11,-2.65 3.11,-3.03 0,-0.14 -0.07,-0.39 -0.11,-0.49 l -1.64,-6.52 c -0.24,-0.98 -1.01,-1.68 -1.78,-2.34 -0.31,-0.28 -1.7,-1.39 -3.2,-1.39 -1.29,0 -2.55,0.91 -2.55,3.38 0,1.85 1.01,5.69 1.82,7.08 1.6,2.79 3.38,3.31 4.35,3.31 l 0,0.98 c -4.46,0 -8.99,-4.92 -8.99,-9.94 0,-3.38 2.27,-5.79 5.26,-5.79 1.88,0 3.56,1.08 4.95,2.44 0.67,-2.09 2.69,-2.44 3.59,-2.44 1.26,0 2.13,0.77 2.76,1.85 0.77,1.36 1.22,3.35 1.22,3.48 0,0.46 -0.45,0.46 -0.56,0.46 -0.49,0 -0.52,-0.14 -0.76,-1.08 -0.42,-1.68 -1.09,-3.73 -2.55,-3.73 -0.91,0 -1.15,0.76 -1.15,1.71 0,0.66 0.07,0.97 0.17,1.43 z"
         style="fill:#000000;stroke-width:0" /><path
         id="path8138"
         d="m 605.42,430.09 0.01,0.03 0.01,0.04 0.01,0.04 0.01,0.05 0.01,0.05 0.01,0.05 0.01,0.05 0.01,0.05 0.02,0.06 0.01,0.06 0.02,0.06 0.01,0.06 0.03,0.12 0.03,0.12 0.03,0.12 0.03,0.13 0.02,0.06 0.01,0.06 0.01,0.05 0.02,0.06 0.01,0.05 0.01,0.05 0.01,0.06 0.01,0.04 0.01,0.05 0.01,0.04 0.01,0.04 0.01,0.04 c 0.1,0.37 0.2,0.77 0.3,1.1 0.1,0.42 0.9,1.71 1.72,2.41 0.87,0.7 1.64,0.87 2.51,0.87 0.3,0 1.5,0 2.3,-0.42 -1.08,-0.38 -1.08,-1.42 -1.08,-1.45 0,-0.42 0.3,-1.02 1.13,-1.02 0.69,0 1.54,0.6 1.54,1.69 0,1.85 -2.62,2.05 -3.84,2.05 -0.6,0 -2.29,0 -3.98,-1.94 -0.3,1.32 -1.74,1.94 -2.97,1.94 -0.84,0 -1.56,-0.4 -2.21,-1.37 -0.65,-1.05 -0.97,-2.34 -0.97,-2.47 0,-0.37 0.37,-0.37 0.52,-0.37 0.43,0 0.45,0.08 0.62,0.7 0.4,1.52 1,2.66 1.92,2.66 0.85,0 1.02,-0.8 1.02,-1.32 0,-0.35 -0.25,-1.29 -0.4,-1.94 -0.17,-0.67 -0.42,-1.69 -0.54,-2.24 l -0.58,-2.22 c -0.15,-0.62 -0.42,-1.72 -0.42,-1.84 0,-0.55 0.44,-0.87 0.92,-0.87 0.4,0 0.85,0.22 1.1,0.65 0.1,0.19 0.3,0.99 0.42,1.49 z"
         style="fill:#000000;stroke-width:0" /><path
         id="path8140"
         d="m 634.15,438.88 10.66,0 c 0.46,0 1.29,0 1.29,0.84 0,0.87 -0.8,0.87 -1.29,0.87 l -10.66,0 0,10.7 c 0,0.46 0,1.29 -0.84,1.29 -0.87,0 -0.87,-0.8 -0.87,-1.29 l 0,-10.7 -10.71,0 c -0.45,0 -1.29,0 -1.29,-0.84 0,-0.87 0.8,-0.87 1.29,-0.87 l 10.71,0 0,-10.7 c 0,-0.46 0,-1.29 0.83,-1.29 0.88,0 0.88,0.8 0.88,1.29 z"
         style="fill:#000000;stroke-width:0" /><path
         id="path8142"
         d="m 668.91,454.15 0,0.01 0,0 0.01,0 0,0.01 0,0.01 0,0 0,0.01 0.01,0 0,0.02 0.01,0.02 0,0.02 0.01,0.01 0,0.02 0.01,0.03 0,0.02 0.01,0.02 0.01,0.02 0,0.03 0.01,0.04 0.01,0.05 0.01,0.03 0.01,0.02 0,0.02 0.01,0.02 0,0.02 0,0.02 0.01,0.02 0,0.01 0,0.01 0,0.01 0.01,0 0,0.01 0,0.01 0,0 0,0.01 0,0 0,0 0,0.01 0,0 0,0 c 0,0.18 -0.14,0.49 -0.56,0.49 -0.7,0 -3.59,-0.28 -4.46,-0.35 -0.28,-0.03 -0.77,-0.07 -0.77,-0.8 0,-0.49 0.49,-0.49 0.91,-0.49 1.67,0 1.67,-0.24 1.67,-0.52 0,-0.25 -0.07,-0.46 -0.14,-0.77 l -1.98,-7.95 c -0.74,1.15 -1.92,2.06 -3.6,2.06 l 0,-0.98 c 2.44,0 3.11,-2.65 3.11,-3.03 0,-0.14 -0.07,-0.39 -0.11,-0.49 l -1.64,-6.52 c -0.24,-0.98 -1.01,-1.68 -1.78,-2.34 -0.31,-0.28 -1.7,-1.39 -3.2,-1.39 -1.29,0 -2.55,0.91 -2.55,3.38 0,1.85 1.01,5.69 1.82,7.08 1.6,2.79 3.38,3.31 4.35,3.31 l 0,0.98 c -4.46,0 -8.99,-4.92 -8.99,-9.94 0,-3.38 2.27,-5.79 5.26,-5.79 1.88,0 3.56,1.08 4.95,2.44 0.67,-2.09 2.69,-2.44 3.59,-2.44 1.26,0 2.13,0.77 2.76,1.85 0.77,1.36 1.22,3.35 1.22,3.48 0,0.46 -0.45,0.46 -0.56,0.46 -0.49,0 -0.52,-0.14 -0.76,-1.08 -0.42,-1.68 -1.09,-3.73 -2.55,-3.73 -0.91,0 -1.15,0.76 -1.15,1.71 0,0.66 0.07,0.97 0.17,1.43 z"
         style="fill:#000000;stroke-width:0" /><path
         id="path8144"
         d="m 673.49,423.09 -0.02,-0.06 -0.01,-0.06 -0.02,-0.05 -0.01,-0.05 -0.02,-0.05 -0.01,-0.05 -0.02,-0.04 -0.01,-0.04 -0.02,-0.04 -0.02,-0.04 -0.02,-0.03 -0.02,-0.03 -0.02,-0.03 -0.03,-0.03 -0.03,-0.02 -0.03,-0.03 -0.03,-0.02 -0.04,-0.02 -0.04,-0.01 -0.04,-0.02 -0.04,-0.01 -0.05,-0.02 -0.06,-0.01 -0.03,0 -0.03,-0.01 -0.03,0 -0.03,-0.01 -0.03,0 -0.04,0 -0.03,-0.01 -0.04,0 -0.04,0 -0.04,0 -0.04,-0.01 -0.04,0 -0.05,0 -0.04,0 -0.05,0 -0.05,0 -0.05,0 -0.05,0 c -0.38,0 -0.8,0 -0.8,-0.7 0,-0.27 0.22,-0.42 0.4,-0.42 0.37,0 0.82,0.07 1.22,0.07 l 2.71,0 c 0.43,0 0.95,-0.07 1.37,-0.07 0.33,0 0.63,0.17 0.63,0.7 0,0.42 -0.43,0.42 -0.77,0.42 -0.83,0 -1.38,0 -1.38,0.3 0,0.15 0.4,1.67 1.15,4.63 0.62,-0.84 1.62,-1.49 2.99,-1.49 l 0,0.84 c -2.07,0 -2.59,2.02 -2.59,2.22 0,0.12 0.05,0.27 0.07,0.4 l 1.07,4.23 c 0.1,0.4 0.13,0.45 0.55,0.95 1,1.09 2.27,1.79 3.46,1.79 1.02,0 2.2,-0.64 2.2,-2.54 0,-1.09 -0.58,-3.49 -1.27,-4.68 -1.05,-1.82 -2.54,-2.37 -3.49,-2.37 l 0,-0.84 c 3.51,0 7,3.43 7,6.95 0,2.48 -1.82,4.33 -4.36,4.33 -1.94,0 -3.46,-1.27 -3.96,-1.74 -0.5,1.34 -1.99,1.74 -2.92,1.74 -0.84,0 -1.59,-0.4 -2.21,-1.37 -0.65,-1.05 -0.97,-2.34 -0.97,-2.47 0,-0.37 0.37,-0.37 0.52,-0.37 0.43,0 0.47,0.13 0.57,0.52 0.28,1 0.8,2.84 1.97,2.84 0.87,0 1.02,-0.82 1.02,-1.32 0,-0.35 -0.02,-0.45 -0.07,-0.64 z"
         style="fill:#000000;stroke-width:0" /><polyline
         id="polyline8146"
         points="577,418 690.16,418 690.16,420.04 577,420.04 "
         style="fill:#000000;fill-rule:nonzero;stroke-width:0" /><path
         id="path8148"
         d="m 633.91,412.15 0,0.01 0,0 0.01,0 0,0.01 0,0.01 0,0 0,0.01 0.01,0 0,0.02 0.01,0.02 0,0.02 0.01,0.01 0,0.02 0.01,0.03 0,0.02 0.01,0.02 0.01,0.02 0,0.03 0.01,0.04 0.01,0.05 0.01,0.03 0.01,0.02 0,0.02 0.01,0.02 0,0.02 0,0.02 0.01,0.02 0,0.01 0,0.01 0,0.01 0.01,0 0,0.01 0,0.01 0,0 0,0.01 0,0 0,0 0,0.01 0,0 0,0 c 0,0.18 -0.14,0.49 -0.56,0.49 -0.7,0 -3.59,-0.28 -4.46,-0.35 -0.28,-0.03 -0.77,-0.07 -0.77,-0.8 0,-0.49 0.49,-0.49 0.91,-0.49 1.67,0 1.67,-0.24 1.67,-0.52 0,-0.25 -0.07,-0.46 -0.14,-0.77 l -1.98,-7.95 c -0.74,1.15 -1.92,2.06 -3.6,2.06 l 0,-0.98 c 2.44,0 3.11,-2.65 3.11,-3.03 0,-0.14 -0.07,-0.39 -0.11,-0.49 l -1.64,-6.52 c -0.24,-0.98 -1.01,-1.68 -1.78,-2.34 -0.31,-0.28 -1.7,-1.39 -3.2,-1.39 -1.29,0 -2.55,0.91 -2.55,3.38 0,1.85 1.01,5.69 1.82,7.08 1.6,2.79 3.38,3.31 4.35,3.31 l 0,0.98 c -4.46,0 -8.99,-4.92 -8.99,-9.94 0,-3.38 2.27,-5.79 5.26,-5.79 1.88,0 3.56,1.08 4.95,2.44 0.67,-2.09 2.69,-2.44 3.59,-2.44 1.26,0 2.13,0.77 2.76,1.85 0.77,1.36 1.22,3.35 1.22,3.48 0,0.46 -0.45,0.46 -0.56,0.46 -0.49,0 -0.52,-0.14 -0.76,-1.08 -0.42,-1.68 -1.09,-3.73 -2.55,-3.73 -0.91,0 -1.15,0.76 -1.15,1.71 0,0.66 0.07,0.97 0.17,1.43 z"
         style="fill:#000000;stroke-width:0" /><path
         id="path8150"
         d="m 642.84,400.34 0.01,0.02 0,0.01 0.01,0.02 0,0.01 0.01,0.02 0,0.01 0,0.01 0.01,0.02 0,0.02 0.01,0.03 0.01,0.02 0,0.02 0.01,0.02 0,0.02 0.01,0.02 0,0.02 0,0.01 0.01,0.02 0,0.01 0,0.02 0,0.01 0.01,0.01 0,0.01 0,0.01 0,0.02 0,0.01 0,0.02 0,0.02 0,0.02 0,0.02 0.01,0.01 0,0.01 c 0,0.43 -0.38,0.43 -0.78,0.4 l -3.06,-0.22 c -0.42,-0.03 -0.47,-0.06 -0.6,-0.15 -0.1,-0.13 -0.17,-0.43 -0.17,-0.58 0,-0.42 0.39,-0.42 0.75,-0.42 0.02,0 0.47,0 0.84,-0.05 0.48,-0.05 0.5,-0.13 0.5,-0.32 0,-0.15 -0.25,-1.13 -0.4,-1.67 l -2.06,-8.35 c -0.13,-0.52 -0.2,-0.92 -0.2,-1.46 0,-2.59 1.84,-4.31 4.23,-4.31 l 0.05,0.84 c -1.07,0 -2.29,0.65 -2.29,2.67 0,0.8 0.2,1.59 0.4,2.44 0.07,0.3 0.49,1.92 0.52,2.07 0.07,0.25 1.82,2.41 3.91,2.41 1.07,0 2.19,-0.64 2.19,-2.54 0,-0.92 -0.47,-3.26 -1.27,-4.71 -0.85,-1.46 -2.24,-2.34 -3.46,-2.34 l 0,0 -0.05,-0.84 c 3.61,0 7.02,3.48 7.02,6.95 0,2.46 -1.79,4.33 -4.36,4.33 -1.04,0 -2.26,-0.4 -3.48,-1.35 z"
         style="fill:#000000;stroke-width:0" /></g>  </g>
  <g
     transform="translate(-38.80464,111.75737)"
     id="g8349">
    <g
       style="font-style:normal;font-variant:normal;font-weight:normal;font-stretch:normal;letter-spacing:normal;word-spacing:normal;text-anchor:start;fill:none;fill-opacity:1;fill-rule:evenodd;stroke:#000000;stroke-linecap:butt;stroke-linejoin:miter;stroke-miterlimit:10.43299961;stroke-dasharray:none;stroke-dashoffset:0;stroke-opacity:1"
       id="g8351"
       transform="matrix(0.28571429,0,0,-0.28571429,-50,150)"
       xml:space="preserve"
       stroke-miterlimit="10.433"
       font-style="normal"
       font-variant="normal"
       font-weight="normal"
       font-stretch="normal"
       font-size-adjust="none"
       letter-spacing="normal"
       word-spacing="normal"><path
         style="fill:#000000;stroke-width:0"
         d="m 480.31,419.8 0.04,0.16 0.05,0.16 0.04,0.16 0.04,0.16 0.03,0.15 0.03,0.16 0.03,0.16 0.03,0.17 0.03,0.16 0.02,0.18 0.01,0.09 0.01,0.09 0,0.1 0.01,0.1 0.01,0.1 0,0.1 0.01,0.11 0,0.1 0,0.12 0.01,0.11 0,0.12 0,0.13 c 0,3.24 -2,5.33 -5.73,5.33 -3.94,0 -6.53,-2.59 -7.72,-4.34 -0.25,2.84 -2.34,4.34 -4.58,4.34 -2.3,0 -3.24,-1.95 -3.69,-2.84 -0.9,-1.7 -1.54,-4.68 -1.54,-4.83 0,-0.5 0.49,-0.5 0.59,-0.5 0.5,0 0.55,0.05 0.85,1.14 0.84,3.54 1.84,5.93 3.64,5.93 0.84,0 1.54,-0.4 1.54,-2.29 0,-1.04 -0.15,-1.59 -0.8,-4.18 l -2.89,-11.51 c -0.15,-0.75 -0.45,-1.89 -0.45,-2.14 0,-0.9 0.7,-1.35 1.45,-1.35 0.6,0 1.5,0.4 1.84,1.4 0.05,0.1 0.65,2.44 0.95,3.68 l 1.1,4.49 c 0.29,1.09 0.59,2.19 0.84,3.34 0.1,0.29 0.5,1.94 0.55,2.23 0.15,0.45 1.7,3.24 3.39,4.59 1.09,0.8 2.64,1.74 4.78,1.74 2.14,0 2.69,-1.69 2.69,-3.49 0,-0.25 0,-1.14 -0.5,-3.13 l -5.68,-22.92 c -0.15,-0.59 -0.15,-0.7 -0.15,-0.79 0,-0.75 0.55,-1.35 1.4,-1.35 1.54,0 1.89,1.44 2.04,1.99 z"
         id="path8353" /><path
         style="fill:#000000;stroke-width:0"
         d="m 500.3,434.01 0.03,0.01 0.03,0.01 0.03,0.02 0.03,0.01 0.02,0.01 0.03,0.01 0.02,0.02 0.02,0.01 0.02,0.01 0.03,0.01 0.02,0.01 0.02,0.02 0.02,0.01 0.01,0.01 0.02,0.01 0.02,0.01 0.01,0.01 0.02,0.02 0.02,0.01 0.01,0.01 0.03,0.02 0.02,0.02 0.02,0.02 0.02,0.02 0.02,0.02 0.02,0.02 0.01,0.02 0.01,0.02 0.01,0.02 0.01,0.02 0.01,0.02 0,0.01 0.01,0.02 0,0.02 0.01,0.01 0,0.02 0,0.02 0,0.01 0,0.03 0,0.03 c 0,0.31 -0.31,0.45 -0.48,0.45 -0.18,0 -5.97,-1.12 -6.91,-1.33 l -0.8,6.45 c -0.07,0.49 -0.14,0.91 -0.56,0.91 -0.35,0 -0.48,-0.31 -0.56,-0.87 l -0.76,-6.49 -6.42,1.26 c -0.42,0.07 -0.49,0.07 -0.52,0.07 -0.18,0 -0.49,-0.14 -0.49,-0.45 0,-0.14 0.07,-0.25 0.18,-0.39 0.13,-0.1 5.64,-2.65 6.41,-3 l -3.17,-5.79 c -0.25,-0.41 -0.25,-0.48 -0.25,-0.55 0,-0.25 0.21,-0.49 0.45,-0.49 0.32,0 1.05,0.83 2.41,2.37 0.87,0.98 1.81,1.92 2.72,2.86 1.71,-1.74 4.19,-4.5 4.61,-4.88 0.27,-0.28 0.31,-0.35 0.52,-0.35 0.24,0 0.45,0.24 0.45,0.49 0,0.14 -0.42,0.9 -0.66,1.36 l -2.76,4.95 z"
         id="path8355" /><path
         style="fill:#000000;stroke-width:0"
         d="m 553.22,422.29 0.14,0 0.15,0 0.15,0.01 0.07,0 0.07,0 0.07,0.01 0.08,0.01 0.07,0.01 0.07,0.01 0.06,0.02 0.07,0.01 0.07,0.02 0.06,0.02 0.06,0.03 0.06,0.03 0.05,0.03 0.06,0.03 0.05,0.04 0.04,0.04 0.05,0.05 0.03,0.05 0.02,0.03 0.02,0.02 0.02,0.03 0.01,0.03 0.02,0.03 0.01,0.04 0.01,0.03 0.01,0.04 0.01,0.03 0.01,0.04 0.01,0.04 0,0.04 0.01,0.04 0,0.04 0,0.05 0,0.05 c 0,0.99 -0.94,0.99 -1.64,0.99 l -29.84,0 c -0.7,0 -1.64,0 -1.64,-0.99 0,-1 0.94,-1 1.69,-1 z"
         id="path8357" /><path
         style="fill:#000000;stroke-width:0"
         d="m 553.27,412.62 0.13,0.01 0.14,0 0.14,0 0.07,0.01 0.07,0 0.07,0.01 0.07,0.01 0.07,0.01 0.07,0.01 0.06,0.01 0.07,0.02 0.06,0.02 0.06,0.02 0.06,0.02 0.06,0.03 0.06,0.03 0.05,0.04 0.05,0.04 0.04,0.04 0.05,0.04 0.02,0.03 0.02,0.03 0.01,0.02 0.02,0.03 0.02,0.03 0.01,0.03 0.02,0.03 0.01,0.03 0.01,0.04 0.01,0.03 0.01,0.04 0.01,0.04 0.01,0.04 0,0.04 0.01,0.04 0,0.04 0,0.05 0,0.04 c 0,1 -0.94,1 -1.69,1 l -29.74,0 c -0.75,0 -1.69,0 -1.69,-1 0,-1 0.94,-1 1.64,-1 z"
         id="path8359" /><path
         style="fill:#000000;stroke-width:0"
         d="m 581.26,425.93 4.69,0 c 0.99,0 1.49,0 1.49,0.99 0,0.55 -0.5,0.55 -1.4,0.55 l -4.38,0 c 1.79,7.07 2.04,8.07 2.04,8.37 0,0.84 -0.6,1.34 -1.44,1.34 -0.15,0 -1.54,-0.05 -1.99,-1.79 l -1.95,-7.92 -4.68,0 c -0.99,0 -1.49,0 -1.49,-0.95 0,-0.59 0.39,-0.59 1.39,-0.59 l 4.39,0 c -3.59,-14.15 -3.79,-15 -3.79,-15.89 0,-2.7 1.89,-4.59 4.58,-4.59 5.08,0 7.92,7.28 7.92,7.67 0,0.5 -0.4,0.5 -0.6,0.5 -0.45,0 -0.49,-0.15 -0.74,-0.69 -2.14,-5.19 -4.78,-6.38 -6.48,-6.38 -1.05,0 -1.54,0.65 -1.54,2.29 0,1.2 0.1,1.54 0.29,2.39 z"
         id="path8361" /><path
         style="fill:#000000;stroke-width:0"
         d="m 607.3,434.01 0.03,0.01 0.03,0.01 0.03,0.02 0.03,0.01 0.02,0.01 0.03,0.01 0.02,0.02 0.02,0.01 0.02,0.01 0.03,0.01 0.02,0.01 0.02,0.02 0.02,0.01 0.01,0.01 0.02,0.01 0.02,0.01 0.01,0.01 0.02,0.02 0.02,0.01 0.01,0.01 0.03,0.02 0.02,0.02 0.02,0.02 0.02,0.02 0.02,0.02 0.02,0.02 0.01,0.02 0.01,0.02 0.01,0.02 0.01,0.02 0.01,0.02 0,0.01 0.01,0.02 0,0.02 0.01,0.01 0,0.02 0,0.02 0,0.01 0,0.03 0,0.03 c 0,0.31 -0.31,0.45 -0.48,0.45 -0.18,0 -5.97,-1.12 -6.91,-1.33 l -0.8,6.45 c -0.07,0.49 -0.14,0.91 -0.56,0.91 -0.35,0 -0.48,-0.31 -0.56,-0.87 l -0.77,-6.49 -6.41,1.26 c -0.42,0.07 -0.49,0.07 -0.52,0.07 -0.18,0 -0.49,-0.14 -0.49,-0.45 0,-0.14 0.07,-0.25 0.17,-0.39 0.14,-0.1 5.65,-2.65 6.42,-3 l -3.17,-5.79 c -0.25,-0.41 -0.25,-0.48 -0.25,-0.55 0,-0.25 0.21,-0.49 0.45,-0.49 0.32,0 1.05,0.83 2.41,2.37 0.87,0.98 1.81,1.92 2.72,2.86 1.71,-1.74 4.19,-4.5 4.6,-4.88 0.28,-0.28 0.32,-0.35 0.53,-0.35 0.24,0 0.45,0.24 0.45,0.49 0,0.14 -0.42,0.9 -0.66,1.36 l -2.76,4.95 z"
         id="path8363" /><path
         style="fill:#000000;stroke-width:0"
         d="m 604.03,407.11 -0.09,-0.02 -0.08,-0.03 -0.08,-0.02 -0.08,-0.03 -0.07,-0.03 -0.07,-0.04 -0.08,-0.04 -0.06,-0.04 -0.07,-0.04 -0.06,-0.04 -0.07,-0.05 -0.05,-0.05 -0.06,-0.05 -0.05,-0.05 -0.06,-0.05 -0.04,-0.06 -0.05,-0.05 -0.04,-0.06 -0.04,-0.06 -0.04,-0.06 -0.04,-0.06 -0.03,-0.06 -0.03,-0.06 -0.03,-0.07 -0.02,-0.06 -0.02,-0.07 -0.02,-0.06 -0.01,-0.07 -0.01,-0.06 -0.01,-0.07 -0.01,-0.06 0,-0.07 c 0,-0.8 0.7,-1.11 1.16,-1.11 0.34,0 1.67,0.21 1.67,1.98 0,2.27 -2.51,3.04 -4.64,3.04 -5.44,0 -6.41,-4.01 -6.41,-5.09 0,-1.29 0.73,-2.13 1.21,-2.55 0.91,-0.7 1.54,-0.84 3.95,-1.26 0.73,-0.13 2.96,-0.55 2.96,-2.3 0,-0.59 -0.39,-1.91 -1.85,-2.79 -1.36,-0.76 -3.07,-0.76 -3.49,-0.76 -1.39,0 -3.38,0.31 -4.18,1.46 1.15,0.14 1.92,1.01 1.92,1.99 0,0.87 -0.63,1.29 -1.36,1.29 -1.01,0 -2.02,-0.8 -2.02,-2.33 0,-2.1 2.23,-3.39 5.61,-3.39 6.41,0 7.6,4.39 7.6,5.76 0,3.2 -3.52,3.83 -4.81,4.07 -0.31,0.07 -1.18,0.22 -1.4,0.28 -1.28,0.25 -1.91,0.98 -1.91,1.75 0,0.8 0.63,1.74 1.39,2.23 0.94,0.59 2.16,0.66 2.76,0.66 0.73,0 2.54,-0.1 3.31,-1.29 z"
         id="path8365" /><path
         style="fill:#000000;stroke-width:0"
         d="m 633.87,441.47 0.01,0.03 0.01,0.03 0.01,0.03 0.01,0.02 0.01,0.03 0.01,0.03 0.02,0.05 0.02,0.05 0.01,0.05 0.02,0.04 0.01,0.04 0.01,0.04 0.02,0.04 0.01,0.04 0.01,0.03 0,0.03 0.01,0.03 0.01,0.03 0.01,0.03 0,0.02 0.01,0.03 0,0.02 0,0.02 0.01,0.02 0,0.01 0,0.02 0,0.01 0,0.02 0.01,0.01 0,0.01 0,0.01 0,0 0,0.01 0,0.01 0,0 c 0,0.55 -0.45,1 -1,1 -0.35,0 -0.7,-0.15 -0.85,-0.45 l -17.28,-47.47 c -0.25,-0.65 -0.25,-0.85 -0.25,-0.9 0,-0.54 0.45,-0.99 0.99,-0.99 0.65,0 0.8,0.34 1.1,1.19 z"
         id="path8367" /><path
         style="fill:#000000;stroke-width:0"
         d="m 647.26,425.93 4.69,0 c 0.99,0 1.49,0 1.49,0.99 0,0.55 -0.5,0.55 -1.4,0.55 l -4.38,0 c 1.79,7.07 2.04,8.07 2.04,8.37 0,0.84 -0.6,1.34 -1.44,1.34 -0.15,0 -1.54,-0.05 -1.99,-1.79 l -1.95,-7.92 -4.68,0 c -0.99,0 -1.49,0 -1.49,-0.95 0,-0.59 0.39,-0.59 1.39,-0.59 l 4.39,0 c -3.59,-14.15 -3.79,-15 -3.79,-15.89 0,-2.7 1.89,-4.59 4.58,-4.59 5.08,0 7.92,7.28 7.92,7.67 0,0.5 -0.4,0.5 -0.6,0.5 -0.45,0 -0.49,-0.15 -0.74,-0.69 -2.14,-5.19 -4.78,-6.38 -6.48,-6.38 -1.05,0 -1.54,0.65 -1.54,2.29 0,1.2 0.1,1.54 0.29,2.39 z"
         id="path8369" /><path
         style="fill:#000000;stroke-width:0"
         d="m 673.3,434.01 0.03,0.01 0.03,0.01 0.03,0.02 0.03,0.01 0.02,0.01 0.03,0.01 0.02,0.02 0.02,0.01 0.02,0.01 0.03,0.01 0.02,0.01 0.02,0.02 0.02,0.01 0.01,0.01 0.02,0.01 0.02,0.01 0.01,0.01 0.02,0.02 0.02,0.01 0.01,0.01 0.03,0.02 0.02,0.02 0.02,0.02 0.02,0.02 0.02,0.02 0.02,0.02 0.01,0.02 0.01,0.02 0.01,0.02 0.01,0.02 0.01,0.02 0,0.01 0.01,0.02 0,0.02 0.01,0.01 0,0.02 0,0.02 0,0.01 0,0.03 0,0.03 c 0,0.31 -0.31,0.45 -0.48,0.45 -0.18,0 -5.97,-1.12 -6.91,-1.33 l -0.8,6.45 c -0.07,0.49 -0.14,0.91 -0.56,0.91 -0.35,0 -0.48,-0.31 -0.56,-0.87 l -0.77,-6.49 -6.41,1.26 c -0.42,0.07 -0.49,0.07 -0.52,0.07 -0.18,0 -0.49,-0.14 -0.49,-0.45 0,-0.14 0.07,-0.25 0.17,-0.39 0.14,-0.1 5.65,-2.65 6.42,-3 l -3.17,-5.79 c -0.25,-0.41 -0.25,-0.48 -0.25,-0.55 0,-0.25 0.21,-0.49 0.45,-0.49 0.32,0 1.05,0.83 2.41,2.37 0.87,0.98 1.81,1.92 2.72,2.86 1.71,-1.74 4.19,-4.5 4.6,-4.88 0.28,-0.28 0.32,-0.35 0.53,-0.35 0.24,0 0.45,0.24 0.45,0.49 0,0.14 -0.42,0.9 -0.66,1.36 l -2.76,4.95 z"
         id="path8371" /><path
         style="fill:#000000;stroke-width:0"
         d="m 664.21,415.15 0,0.01 0,0 0,0 0,0.01 0.01,0.01 0,0 0,0.01 0,0 0.01,0.02 0,0.02 0.01,0.02 0,0.01 0.01,0.02 0,0.03 0.01,0.02 0.01,0.02 0,0.02 0.01,0.03 0.01,0.04 0.01,0.05 0,0.03 0.01,0.02 0,0.02 0.01,0.02 0,0.02 0.01,0.02 0,0.02 0,0.01 0.01,0.01 0,0.01 0,0 0,0.01 0,0.01 0,0 0,0.01 0,0 0,0 0,0.01 0,0 0,0 c 0,0.18 -0.13,0.49 -0.56,0.49 -0.69,0 -3.58,-0.28 -4.46,-0.35 -0.28,-0.03 -0.76,-0.07 -0.76,-0.8 0,-0.49 0.48,-0.49 0.91,-0.49 1.67,0 1.67,-0.24 1.67,-0.52 0,-0.25 -0.35,-1.64 -0.56,-2.44 l -0.8,-3.21 c -0.31,-1.19 -2.23,-8.82 -2.3,-9.28 -0.18,-0.83 -0.18,-1.29 -0.18,-1.7 0,-3.53 2.23,-5.76 5.13,-5.76 l 0.03,0.98 c -1.71,0 -2.68,1.5 -2.68,3.55 0,1.29 0.31,2.48 1.29,6.42 0.21,0.66 0.21,0.73 0.87,1.5 1.33,1.53 2.89,2.3 4.15,2.3 1.36,0 2.54,-1.01 2.54,-3.38 0,-1.43 -0.76,-4.99 -1.81,-7.01 -0.84,-1.71 -2.58,-3.38 -4.36,-3.38 l 0,0 -0.03,-0.98 c 4.35,0 8.99,4.74 8.99,9.9 0,4.08 -2.82,5.83 -5.23,5.83 -1.81,0 -3.35,-1.01 -4.39,-1.92 z"
         id="path8373" /></g>  </g>
</svg>
