<?xml version="1.0" encoding="utf-8"?>
<!-- Generator: Adobe Illustrator 15.1.0, SVG Export Plug-In . SVG Version: 6.00 Build 0)  -->
<!DOCTYPE svg PUBLIC "-//W3C//DTD SVG 1.1//EN" "http://www.w3.org/Graphics/SVG/1.1/DTD/svg11.dtd">
<svg version="1.1" id="Layer_1" xmlns="http://www.w3.org/2000/svg" xmlns:xlink="http://www.w3.org/1999/xlink" x="0px" y="0px"
	 width="198.574px" height="303.588px" viewBox="0 0 198.574 303.588" enable-background="new 0 0 198.574 303.588"
	 xml:space="preserve">
<path fill="none" stroke="#000000" stroke-width="12" stroke-miterlimit="10" d="M134.014,5.064
	c51.448,32.684,66.662,100.885,33.979,152.333c-26.146,41.158-80.707,53.328-121.867,27.184
	C13.2,163.664,3.463,120.016,24.38,87.088c16.734-26.342,51.652-34.13,77.994-17.397c21.073,13.387,27.306,41.322,13.918,62.396
	c-10.71,16.859-33.058,21.844-49.917,11.135c-13.487-8.567-17.474-26.446-8.907-39.934c6.854-10.789,21.157-13.979,31.946-7.126
	c8.633,5.483,11.186,16.926,5.701,25.558c-4.387,6.905-13.54,8.947-20.445,4.562"/>
<text transform="matrix(1 0 0 1 0 282.5879)" fill="#E46FA8" font-family="'MyriadPro-Bold'" font-size="84">PEAR</text>
</svg>
