<?xml version="1.0" encoding="UTF-8" standalone="no"?>
<svg
   xmlns:dc="http://purl.org/dc/elements/1.1/"
   xmlns:cc="http://creativecommons.org/ns#"
   xmlns:rdf="http://www.w3.org/1999/02/22-rdf-syntax-ns#"
   xmlns:svg="http://www.w3.org/2000/svg"
   xmlns="http://www.w3.org/2000/svg"
   xmlns:sodipodi="http://sodipodi.sourceforge.net/DTD/sodipodi-0.dtd"
   xmlns:inkscape="http://www.inkscape.org/namespaces/inkscape"
   width="210mm"
   height="297mm"
   viewBox="0 0 210 297"
   version="1.1"
   id="svg3746"
   sodipodi:docname="logo.svg"
   inkscape:export-filename="/home/maxetron/Documents/sc-logo-lg.png"
   inkscape:export-xdpi="200"
   inkscape:export-ydpi="200"
   inkscape:version="1.0.1 (1.0.1+r74)">
  <defs
     id="defs3740" />
  <sodipodi:namedview
     id="base"
     pagecolor="#ffffff"
     bordercolor="#666666"
     borderopacity="1.0"
     inkscape:pageopacity="0.0"
     inkscape:pageshadow="2"
     inkscape:zoom="0.98994949"
     inkscape:cx="262.67487"
     inkscape:cy="474.15806"
     inkscape:document-units="mm"
     inkscape:current-layer="layer1"
     showgrid="true"
     showguides="false"
     inkscape:snap-bbox="false"
     inkscape:bbox-nodes="false"
     inkscape:snap-others="true"
     inkscape:snap-bbox-edge-midpoints="false"
     inkscape:bbox-paths="false"
     inkscape:snap-nodes="true"
     inkscape:snap-global="true"
     inkscape:object-nodes="true"
     inkscape:window-width="1920"
     inkscape:window-height="1016"
     inkscape:window-x="0"
     inkscape:window-y="27"
     inkscape:window-maximized="1"
     inkscape:snap-page="false"
     showborder="false"
     inkscape:snap-smooth-nodes="true"
     inkscape:document-rotation="0">
    <inkscape:grid
       type="xygrid"
       id="grid3760" />
  </sodipodi:namedview>
  <metadata
     id="metadata3743">
    <rdf:RDF>
      <cc:Work
         rdf:about="">
        <dc:format>image/svg+xml</dc:format>
        <dc:type
           rdf:resource="http://purl.org/dc/dcmitype/StillImage" />
        <dc:title />
      </cc:Work>
    </rdf:RDF>
  </metadata>
  <g
     inkscape:label="Layer 1"
     inkscape:groupmode="layer"
     id="layer1">
    <circle
       style="fill:#54a0ff;fill-opacity:1;stroke-width:0.175287"
       id="path835"
       cx="93.927086"
       cy="119.0625"
       r="70.114578"
       inkscape:export-filename="/home/maxetron/Documents/path835.png"
       inkscape:export-xdpi="92.739647"
       inkscape:export-ydpi="92.739647" />
    <path
       style="fill:#ffffff;fill-opacity:1;stroke:none;stroke-width:0.26458332px;stroke-linecap:butt;stroke-linejoin:miter;stroke-opacity:0.94117647"
       d="m 87.3125,148.83333 c -1.32291,0 19.84375,-63.499968 21.16667,-63.499967 12.34722,6e-6 29.10417,2e-6 37.04167,0 2.64583,-1e-6 -2.64584,15.874977 -5.29167,15.874977 0,0 -14.11112,0 -21.16667,0 -1.32291,0 -11.90625,31.74999 -10.58332,31.74999 7.05555,-2e-5 15.87499,-1e-5 21.16666,0 2.64583,0 -2.64584,15.875 -5.29166,15.875 -5.29168,-1e-5 -24.69445,-3e-5 -37.04168,0 z"
       id="path4621"
       inkscape:connector-curvature="0"
       sodipodi:nodetypes="sssssssss" />
    <path
       style="fill:#222f3f;fill-opacity:0.94117647;stroke:none;stroke-width:0.13229166px;stroke-linecap:butt;stroke-linejoin:miter;stroke-opacity:1"
       d="m 76.330225,85.325534 c -0.568307,-0.0041 -0.923975,0.0078 -0.923975,0.0078 0,0 -13.229167,0 -15.875,0 -1.322917,0 -5.291667,15.874996 -5.291667,15.874996 0,0 17.197917,31.75 15.875,31.75 H 43.65625 c -1.322917,0 -6.614583,15.875 -5.291667,15.875 h 31.75 10.495484 c 4.056358,0 5.379516,-15.875 5.379516,-15.875 l -15.875,-31.75 h 10.583333 4.020426 c 0.328583,2.2765 2.278446,3.96667 4.578532,3.96875 2.299497,-0.003 4.248484,-1.69283 4.576982,-3.96875 h 2.69906 c 0,0 2.961717,-3.345052 2.645837,-5.291663 -0.19979,-1.231154 -1.560474,-2.031312 -2.645837,-2.645834 -3.164353,-1.791673 -10.583333,-2.64588 -10.583333,-2.64588 0,0 -0.968277,-3.052365 -2.645834,-4.089156 -1.688007,-1.043252 -5.308605,-1.198002 -7.013524,-1.210263 z"
       id="path3783"
       inkscape:connector-curvature="0"
       sodipodi:nodetypes="ccccccccccccccccsscsc" />
  </g>
</svg>
