
		<svg xmlns="http://www.w3.org/2000/svg" xmlns:xlink="http://www.w3.org/1999/xlink" version="1.1" width="3123.7113402061855" height="494.8453608247423">
			
			<g transform="scale(6.185567010309279) translate(10, 10)">
				<defs id="SvgjsDefs1045"><linearGradient id="SvgjsLinearGradient1048"><stop id="SvgjsStop1049" stop-color="#b88746" offset="0"/><stop id="SvgjsStop1050" stop-color="#fdf5a6" offset="1"/></linearGradient></defs><g id="main_text" rel="mainfill" name="main_text" feature="main_text" xmlns:name="mainText_mainfill" groupName="main_text" fill="#000" transform="translate(68.06236765042893, -6.231781850667279) scale(2.479826206405874)"><path d="M8.6719 11.914375 q-0.3125 -0.4296875 -0.6884765625 -0.6591796875 t-0.8252 -0.35156 t-0.89844 -0.12207 q-0.7421875 0 -1.298828125 0.1708984375 t-0.92285 0.46387 t-0.55176 0.68359 t-0.18555 0.82031 q0 0.64453125 0.2294921875 1.040039063 t0.58105 0.63477 t0.77637 0.37598 t0.81543 0.27344 l1.9727 0.64453 q0.888671875 0.283203125 1.567382813 0.64453125 t1.1377 0.85449 t0.69824 1.1377 t0.23926 1.4941 q0 0.91796875 -0.3759765625 1.69921875 t-1.0498 1.3574 t-1.6064 0.90332 t-2.0459 0.32715 q-1.142578125 0 -1.953125 -0.2587890625 t-1.3623 -0.69336 t-0.88379 -0.99121 t-0.51758 -1.1426 l-0.74219 0 l0 -1.6797 l2.4609 0 q0 1.083984375 0.2294921875 1.533203125 t0.63965 0.74707 t0.97656 0.44922 t1.25 0.15137 q0.6640625 0 1.196289063 -0.15625 t0.9082 -0.4541 t0.57617 -0.72266 t0.2002 -0.96191 q0 -0.595703125 -0.2490234375 -1.010742188 t-0.63965 -0.70801 t-0.85449 -0.47852 t-0.89355 -0.32227 l-2.1387 -0.60547 q-0.703125 -0.21484375 -1.284179688 -0.546875 t-0.99609 -0.81055 t-0.63965 -1.1182 t-0.22461 -1.4795 q0 -0.849609375 0.33203125 -1.591796875 t0.97656 -1.2988 t1.5771 -0.87402 t2.1338 -0.31738 q0.791015625 0 1.459960938 0.185546875 t1.2109 0.52246 t0.95703 0.81055 t0.69824 1.04 l0.73242 0 l0 1.6797 l-2.3926 0 q0 -0.859375 -0.3125 -1.2890625 z M12.71484625 13.867375 l3.3008 0 l0 8.4375 l1.5234 0 l0 1.6797 l-4.8047 0 l0 -1.6797 l1.4453 0 l0 -6.7578 l-1.4648 0 l0 -1.6797 z M13.83790625 10.283375 q0 -0.25390625 0.1025390625 -0.4833984375 t0.27344 -0.40039 t0.40527 -0.27344 t0.49805 -0.10254 q0.25390625 0 0.4833984375 0.1025390625 t0.40039 0.27344 t0.27344 0.40039 t0.10254 0.4834 q0 0.263671875 -0.1025390625 0.498046875 t-0.27344 0.41504 t-0.40039 0.2832 t-0.4834 0.10254 q-0.263671875 0 -0.498046875 -0.1025390625 t-0.40527 -0.2832 t-0.27344 -0.41504 t-0.10254 -0.49805 z M19.208981875 13.867375 l3.2227 0 l0 1.1816 l0.019531 0 q0.33203125 -0.283203125 0.6982421875 -0.5322265625 t0.7666 -0.43457 t0.83496 -0.29297 t0.90332 -0.10742 q1.09375 0 1.884765625 0.4052734375 t1.2207 1.2646 q0.37109375 -0.33203125 0.78125 -0.6396484375 t0.85449 -0.53223 t0.93262 -0.36133 t1.0156 -0.13672 q0.8203125 0 1.474609375 0.224609375 t1.1133 0.68359 t0.69824 1.1768 t0.23926 1.6943 l0 4.8438 l1.4063 0 l0 1.6797 l-4.7266 0 l0 -1.6797 l1.4258 0 l0 -4.6191 q0 -1.162109375 -0.5859375 -1.762695313 t-1.6895 -0.60059 q-0.654296875 0 -1.337890625 0.3125 t-1.1719 0.79102 l0 5.8789 l1.3965 0 l0 1.6797 l-4.7168 0 l0 -1.6797 l1.4258 0 l0 -4.6191 q0 -1.162109375 -0.5908203125 -1.762695313 t-1.6943 -0.60059 q-0.634765625 0 -1.279296875 0.302734375 t-1.2207 0.75195 l0 5.9277 l1.4258 0 l0 1.6797 l-4.7266 0 l0 -1.6797 l1.4063 0 l0 -6.7578 l-1.4063 0 l0 -1.6797 z M39.228513125 13.867375 l3.2227 0 l0 1.1816 l0.019531 0 q0.33203125 -0.283203125 0.6982421875 -0.5322265625 t0.7666 -0.43457 t0.83496 -0.29297 t0.90332 -0.10742 q1.09375 0 1.884765625 0.4052734375 t1.2207 1.2646 q0.37109375 -0.33203125 0.78125 -0.6396484375 t0.85449 -0.53223 t0.93262 -0.36133 t1.0156 -0.13672 q0.8203125 0 1.474609375 0.224609375 t1.1133 0.68359 t0.69824 1.1768 t0.23926 1.6943 l0 4.8438 l1.4063 0 l0 1.6797 l-4.7266 0 l0 -1.6797 l1.4258 0 l0 -4.6191 q0 -1.162109375 -0.5859375 -1.762695313 t-1.6895 -0.60059 q-0.654296875 0 -1.337890625 0.3125 t-1.1719 0.79102 l0 5.8789 l1.3965 0 l0 1.6797 l-4.7168 0 l0 -1.6797 l1.4258 0 l0 -4.6191 q0 -1.162109375 -0.5908203125 -1.762695313 t-1.6943 -0.60059 q-0.634765625 0 -1.279296875 0.302734375 t-1.2207 0.75195 l0 5.9277 l1.4258 0 l0 1.6797 l-4.7266 0 l0 -1.6797 l1.4063 0 l0 -6.7578 l-1.4063 0 l0 -1.6797 z M65.341784375 13.867375 l3.2617 0 l0 8.4375 l1.123 0 l0 1.6797 l-2.9492 0 l0 -0.9375 q-0.68359375 0.52734375 -1.489257813 0.8203125 t-1.7236 0.29297 q-0.76171875 0 -1.381835938 -0.2197265625 t-1.0547 -0.68359 t-0.66895 -1.1768 t-0.23438 -1.6992 l0 -4.834 l-1.3672 0 l0 -1.6797 l3.2617 0 l0 6.2988 q0 1.162109375 0.537109375 1.7578125 t1.543 0.5957 q0.595703125 0 1.254882813 -0.21484375 t1.2451 -0.5957 l0 -6.1621 l-1.3574 0 l0 -1.6797 z M79.091778125 22.304675 l1.4258 0 l0 -4.6191 q0 -1.162109375 -0.5908203125 -1.762695313 t-1.6943 -0.60059 q-0.634765625 0 -1.279296875 0.302734375 t-1.2207 0.75195 l0 5.9277 l1.4258 0 l0 1.6797 l-4.7266 0 l0 -1.6797 l1.4063 0 l0 -6.7578 l-1.4063 0 l0 -1.6797 l3.2227 0 l0 1.1914 l0.019531 0 q0.322265625 -0.283203125 0.6884765625 -0.537109375 t0.7666 -0.43945 t0.83496 -0.29297 t0.91309 -0.10742 q0.810546875 0 1.46484375 0.224609375 t1.1133 0.68359 t0.70801 1.1768 t0.24902 1.6943 l0 4.8438 l1.4063 0 l0 1.6797 l-4.7266 0 l0 -1.6797 z M85.634761875 18.925775 q0.009765625 -1.201171875 0.3857421875 -2.1875 t1.0498 -1.6943 t1.6016 -1.0889 t2.041 -0.38086 q1.123046875 0 2.055664063 0.380859375 t1.5967 1.0791 t1.0352 1.6846 t0.37109 2.1875 q0 1.181640625 -0.37109375 2.172851563 t-1.0352 1.7041 t-1.5967 1.1084 t-2.0557 0.39551 q-1.142578125 0 -2.0703125 -0.390625 t-1.5918 -1.0986 t-1.0352 -1.6943 t-0.38086 -2.1777 z M87.558621875 18.925775 q0 0.869140625 0.2490234375 1.572265625 t0.68359 1.1963 t1.0059 0.76172 t1.2158 0.26855 q0.673828125 0 1.254882813 -0.263671875 t1.0107 -0.75684 t0.67383 -1.1963 t0.24414 -1.582 q0 -0.91796875 -0.244140625 -1.630859375 t-0.66895 -1.1914 t-1.0107 -0.72266 t-1.2598 -0.24414 q-0.64453125 0 -1.215820313 0.244140625 t-1.0059 0.72266 t-0.68359 1.1914 t-0.24902 1.6309 z M97.7343725 13.867375 l3.2227 0 l0 1.1816 l0.019531 0 q0.33203125 -0.283203125 0.6982421875 -0.5322265625 t0.7666 -0.43457 t0.83496 -0.29297 t0.90332 -0.10742 q1.09375 0 1.884765625 0.4052734375 t1.2207 1.2646 q0.37109375 -0.33203125 0.78125 -0.6396484375 t0.85449 -0.53223 t0.93262 -0.36133 t1.0156 -0.13672 q0.8203125 0 1.474609375 0.224609375 t1.1133 0.68359 t0.69824 1.1768 t0.23926 1.6943 l0 4.8438 l1.4063 0 l0 1.6797 l-4.7266 0 l0 -1.6797 l1.4258 0 l0 -4.6191 q0 -1.162109375 -0.5859375 -1.762695313 t-1.6895 -0.60059 q-0.654296875 0 -1.337890625 0.3125 t-1.1719 0.79102 l0 5.8789 l1.3965 0 l0 1.6797 l-4.7168 0 l0 -1.6797 l1.4258 0 l0 -4.6191 q0 -1.162109375 -0.5908203125 -1.762695313 t-1.6943 -0.60059 q-0.634765625 0 -1.279296875 0.302734375 t-1.2207 0.75195 l0 5.9277 l1.4258 0 l0 1.6797 l-4.7266 0 l0 -1.6797 l1.4063 0 l0 -6.7578 l-1.4063 0 l0 -1.6797 z M119.47264375 19.160175 q0 0.4296875 0.0634765625 0.7861328125 t0.18066 0.67871 q0.361328125 0.9765625 1.157226563 1.469726563 t1.8018 0.49316 q0.791015625 0 1.538085938 -0.2197265625 t1.5674 -0.68848 l0.73242 1.2402 q-0.99609375 0.68359375 -2.001953125 1.015625 t-2.0898 0.33203 q-1.025390625 0 -1.899414063 -0.341796875 t-1.5039 -1.0156 t-0.98633 -1.6797 t-0.35645 -2.3438 q0 -1.083984375 0.302734375 -2.045898438 t0.90332 -1.6797 t1.4893 -1.1377 t2.0703 -0.41992 q1.142578125 0 1.909179688 0.3466796875 t1.25 0.91797 t0.73242 1.3037 t0.34668 1.4941 q0.048828125 0.37109375 0.0634765625 0.751953125 t0.014648 0.74219 l-7.2852 0 z M122.31444375 15.126975 q-0.634765625 0 -1.108398438 0.1806640625 t-0.80566 0.51758 t-0.53223 0.8252 t-0.29785 1.0938 l5.2441 0 q-0.0390625 -0.56640625 -0.1806640625 -1.044921875 t-0.43457 -0.83008 t-0.75195 -0.54688 t-1.1328 -0.19531 z M128.251953125 23.984375 z M134.023453125 9.179375 l4.7266 0 l0 1.6895 l-1.4063 0 l0 11.436 l1.4063 0 l0 1.6797 l-4.7266 0 l0 -1.6797 l1.4063 0 l0 -11.436 l-1.4063 0 l0 -1.6895 z M147.783184375 22.304675 l1.4258 0 l0 -4.6191 q0 -1.162109375 -0.5908203125 -1.762695313 t-1.6943 -0.60059 q-0.634765625 0 -1.279296875 0.302734375 t-1.2207 0.75195 l0 5.9277 l1.4258 0 l0 1.6797 l-4.7266 0 l0 -1.6797 l1.4063 0 l0 -6.7578 l-1.4063 0 l0 -1.6797 l3.2227 0 l0 1.1914 l0.019531 0 q0.322265625 -0.283203125 0.6884765625 -0.537109375 t0.7666 -0.43945 t0.83496 -0.29297 t0.91309 -0.10742 q0.810546875 0 1.46484375 0.224609375 t1.1133 0.68359 t0.70801 1.1768 t0.24902 1.6943 l0 4.8438 l1.4063 0 l0 1.6797 l-4.7266 0 l0 -1.6797 z M161.767628125 16.562475 q-0.41015625 -0.732421875 -1.040039063 -1.07421875 t-1.46 -0.3418 q-0.634765625 0 -1.19140625 0.263671875 t-0.97168 0.75195 t-0.6543 1.1865 t-0.23926 1.5576 q0 0.849609375 0.2392578125 1.533203125 t0.65918 1.167 t0.97168 0.74219 t1.1865 0.25879 q0.9375 0 1.630859375 -0.4541015625 t1.1035 -1.333 l1.5039 0.74219 q-0.29296875 0.625 -0.72265625 1.123046875 t-0.97168 0.84961 t-1.1914 0.54199 t-1.3721 0.19043 q-1.0546875 0 -1.948242188 -0.3955078125 t-1.543 -1.1084 t-1.0107 -1.6992 t-0.36133 -2.1582 t0.38086 -2.1582 t1.0449 -1.6943 t1.5527 -1.1084 t1.9043 -0.40039 q0.95703125 0 1.811523438 0.33203125 t1.499 1.0059 l1.0254 0 l0 1.6797 l-1.8359 0 z M165.341796875 22.802775 q0 -0.25390625 0.1025390625 -0.4833984375 t0.27832 -0.40039 t0.40527 -0.27344 t0.49316 -0.10254 q0.25390625 0 0.4833984375 0.1025390625 t0.40039 0.27344 t0.27344 0.40039 t0.10254 0.4834 q0 0.263671875 -0.1025390625 0.498046875 t-0.27344 0.41504 t-0.40039 0.2832 t-0.4834 0.10254 q-0.263671875 0 -0.4931640625 -0.1025390625 t-0.40527 -0.2832 t-0.27832 -0.41504 t-0.10254 -0.49805 z"/></g><g id="SvgjsG1047" rel="mainfill" name="symbol" feature="symbol" xmlns:name="symbol_mainfill" fill="#000" transform="translate(0.9543923470787359, 0.9543923470787359) scale(0.6805814012252586)"><path xmlns="http://www.w3.org/2000/svg" d="M50,13.291c-20.24,0-36.709,16.468-36.709,36.709c0,8.095,2.64,15.581,7.095,21.657c0.06,0.131,0.14,0.251,0.251,0.346  C27.34,80.926,38.007,86.709,50,86.709c20.242,0,36.709-16.468,36.709-36.709S70.242,13.291,50,13.291z M84.021,56.887  c-4.612,2.644-9.628,4.472-14.816,5.479c-0.07-0.175-0.161-0.335-0.251-0.499c6.412-5.586,11.451-12.815,14.463-21.229  c0.836,2.98,1.293,6.118,1.293,9.362C84.709,52.357,84.471,54.66,84.021,56.887z M56.279,34.18c0.706,1.789,2.443,3.062,4.48,3.062  c0.324,0,0.641-0.034,0.948-0.096c1.938,4.89,3.001,10.159,3.001,15.578c0,2.249-0.198,4.474-0.552,6.662  c-2.102,0.254-3.789,1.843-4.163,3.905c-10.131-0.002-19.717-3.146-27.668-8.712c0.336-0.657,0.543-1.389,0.543-2.176  c0-1.362-0.572-2.588-1.482-3.466C37.608,41.377,46.359,36.047,56.279,34.18z M60.76,29.591c1.557,0,2.824,1.268,2.824,2.825  s-1.268,2.825-2.824,2.825c-1.559,0-2.826-1.268-2.826-2.825S59.201,29.591,60.76,29.591z M65.46,33.471  c5.837,0.185,11.659,1.572,16.928,4.082c-0.045,0.072-0.096,0.14-0.122,0.224c-2.766,9.013-7.909,16.722-14.611,22.564  c-0.447-0.344-0.953-0.604-1.504-0.775c0.355-2.249,0.559-4.532,0.559-6.842c0-5.699-1.128-11.234-3.176-16.372  C64.494,35.672,65.194,34.654,65.46,33.471z M30.869,52.403c0,1.558-1.268,2.825-2.824,2.825c-1.559,0-2.826-1.268-2.826-2.825  s1.268-2.825,2.826-2.825C29.602,49.578,30.869,50.846,30.869,52.403z M26.222,56.865c0.563,0.231,1.177,0.363,1.823,0.363  c1.146,0,2.188-0.419,3.018-1.091c8.305,5.85,18.336,9.153,28.938,9.153c0.019,0,0.037-0.002,0.056-0.002  c0.034,0.142,0.082,0.276,0.128,0.413c-7.286,4.24-15.727,6.623-24.658,6.623c-4.554,0-9.078-0.643-13.459-1.896  C22.691,65.585,24.133,61.027,26.222,56.865z M61.906,64.153c0-1.558,1.268-2.825,2.825-2.825s2.825,1.268,2.825,2.825  s-1.268,2.825-2.825,2.825S61.906,65.711,61.906,64.153z M81.22,34.846c-4.976-2.066-10.348-3.208-15.731-3.374  c-0.439-2.21-2.393-3.881-4.729-3.881c-0.597,0-1.162,0.123-1.689,0.321c-3.288-4.889-7.527-9.153-12.582-12.444  c1.154-0.116,2.326-0.177,3.512-0.177C63.708,15.291,75.583,23.28,81.22,34.846z M43.395,15.93  c5.693,3.268,10.422,7.775,13.984,13.052c-0.844,0.83-1.371,1.97-1.424,3.232c-10.501,1.963-19.758,7.624-26.292,15.664  c-0.509-0.183-1.048-0.3-1.618-0.3c-1.058,0-2.027,0.352-2.823,0.93c-3.007-3.128-5.62-6.689-7.74-10.633  C21.662,26.7,31.443,18.242,43.395,15.93z M16.637,40.455c2.057,3.505,4.496,6.697,7.249,9.544  c-0.413,0.711-0.667,1.524-0.667,2.404c0,1.288,0.516,2.453,1.34,3.319c-1.953,3.829-3.379,7.981-4.158,12.38  C17.162,62.829,15.291,56.629,15.291,50C15.291,46.689,15.768,43.49,16.637,40.455z M24.041,73.004  c3.765,0.873,7.614,1.321,11.484,1.321c9.303,0,18.094-2.482,25.681-6.9c0.19,0.204,0.398,0.388,0.621,0.557  c-2.427,6.295-6.313,12.006-11.483,16.564l0.133,0.151c-0.159,0.002-0.316,0.012-0.477,0.012  C39.681,84.709,30.404,80.177,24.041,73.004z M53.257,84.552c4.587-4.468,8.101-9.838,10.386-15.708  c0.352,0.082,0.713,0.135,1.089,0.135c2.603,0,4.716-2.074,4.808-4.655c4.808-0.922,9.475-2.517,13.83-4.795  C79.504,73.04,67.646,83.206,53.257,84.552z"/></g>
			</g>
		</svg>
	